<?xml version="1.0" encoding="UTF-8"?>
<svg id="Layer_1" data-name="Layer 1" xmlns="http://www.w3.org/2000/svg" viewBox="0 0 530 780">
  <defs>
    <style>
      .cls-1 {
        fill: #e6e6e6;
      }

      .cls-1, .cls-2, .cls-3, .cls-4, .cls-5, .cls-6, .cls-7 {
        stroke-width: 0px;
      }

      .cls-2 {
        fill: #009245;
      }

      .cls-3 {
        fill: #ccc;
      }

      .cls-4 {
        fill: #fff;
      }

      .cls-5 {
        fill: #3f3d56;
      }

      .cls-6 {
        fill: #ff6584;
      }

      .cls-7 {
        fill: #f2f2f2;
      }
    </style>
  </defs>
  <circle class="cls-6" cx="192.75" cy="424.11" r="24.34"/>
  <polygon class="cls-5" points="334.9 431.2 305.7 431.2 305.7 404.66 334.9 431.2"/>
  <rect class="cls-1" x="191.42" y="430.33" width="146.89" height="202.94"/>
  <rect class="cls-4" x="206.07" y="444.56" width="17.28" height="36.41"/>
  <rect class="cls-4" x="232.8" y="444.56" width="17.28" height="36.41"/>
  <rect class="cls-4" x="203.8" y="496.17" width="17.28" height="36.41"/>
  <rect class="cls-4" x="232.8" y="496.17" width="17.28" height="36.41"/>
  <rect class="cls-4" x="203.8" y="543.93" width="17.28" height="36.41"/>
  <rect class="cls-4" x="232.15" y="543.28" width="17.28" height="36.41"/>
  <rect class="cls-3" x="257.27" y="596.94" width="17.28" height="36.41"/>
  <rect class="cls-4" x="283.38" y="543.28" width="17.28" height="36.41"/>
  <rect class="cls-4" x="312.39" y="543.28" width="17.28" height="36.41"/>
  <rect class="cls-4" x="284.03" y="495.79" width="17.28" height="36.41"/>
  <rect class="cls-4" x="313.04" y="495.79" width="17.28" height="36.41"/>
  <rect class="cls-4" x="284.03" y="444.56" width="17.28" height="36.41"/>
  <rect class="cls-4" x="313.04" y="444.56" width="17.28" height="36.41"/>
  <rect class="cls-5" x="191.42" y="477.24" width="146.89" height="5.55"/>
  <rect class="cls-5" x="191.42" y="520.44" width="146.89" height="3.09"/>
  <rect class="cls-5" x="191.42" y="510.57" width="146.89" height="3.09"/>
  <rect class="cls-5" x="202.84" y="558.09" width="3.09" height="24.69"/>
  <rect class="cls-5" x="220.12" y="558.09" width="3.09" height="24.69"/>
  <rect class="cls-5" x="237.4" y="558.09" width="3.09" height="24.69"/>
  <rect class="cls-5" x="254.68" y="558.09" width="3.09" height="24.69"/>
  <rect class="cls-5" x="271.96" y="558.09" width="3.09" height="24.69"/>
  <rect class="cls-5" x="289.24" y="558.09" width="3.09" height="24.69"/>
  <rect class="cls-5" x="306.52" y="558.09" width="3.09" height="24.69"/>
  <rect class="cls-5" x="323.81" y="558.09" width="3.09" height="24.69"/>
  <rect class="cls-5" x="203.15" y="511.19" width="3.09" height="24.69"/>
  <rect class="cls-5" x="220.43" y="511.19" width="3.09" height="24.69"/>
  <rect class="cls-5" x="237.71" y="511.19" width="3.09" height="24.69"/>
  <rect class="cls-5" x="254.99" y="511.19" width="3.09" height="24.69"/>
  <rect class="cls-5" x="272.27" y="511.19" width="3.09" height="24.69"/>
  <rect class="cls-5" x="289.55" y="511.19" width="3.09" height="24.69"/>
  <rect class="cls-5" x="306.83" y="511.19" width="3.09" height="24.69"/>
  <rect class="cls-5" x="324.11" y="511.19" width="3.09" height="24.69"/>
  <rect class="cls-5" x="203.15" y="456.26" width="3.09" height="24.69"/>
  <rect class="cls-5" x="220.43" y="456.26" width="3.09" height="24.69"/>
  <rect class="cls-5" x="237.71" y="456.26" width="3.09" height="24.69"/>
  <rect class="cls-5" x="254.99" y="456.26" width="3.09" height="24.69"/>
  <rect class="cls-5" x="272.27" y="456.26" width="3.09" height="24.69"/>
  <rect class="cls-5" x="289.55" y="456.26" width="3.09" height="24.69"/>
  <rect class="cls-5" x="306.83" y="456.26" width="3.09" height="24.69"/>
  <rect class="cls-5" x="324.11" y="456.26" width="3.09" height="24.69"/>
  <rect class="cls-5" x="191.42" y="464.9" width="146.89" height="3.09"/>
  <rect class="cls-5" x="191.42" y="455.02" width="146.89" height="3.09"/>
  <rect class="cls-5" x="191.42" y="530.94" width="146.89" height="5.55"/>
  <rect class="cls-5" x="184.66" y="428.05" width="160.41" height="8.28"/>
  <polygon class="cls-4" points="223.39 604.81 223.39 596.94 213.94 596.94 213.94 604.81 222.6 604.81 223.39 604.81"/>
  <polygon class="cls-4" points="222.6 611.11 213.94 611.11 213.94 618.99 223.39 618.99 223.39 611.11 222.6 611.11"/>
  <rect class="cls-4" x="229.69" y="596.94" width="9.45" height="7.87"/>
  <rect class="cls-4" x="229.69" y="611.11" width="9.45" height="7.87"/>
  <polygon class="cls-4" points="300.45 604.81 300.45 596.94 291 596.94 291 604.81 299.67 604.81 300.45 604.81"/>
  <polygon class="cls-4" points="299.67 611.11 291 611.11 291 618.99 300.45 618.99 300.45 611.11 299.67 611.11"/>
  <rect class="cls-4" x="306.75" y="596.94" width="9.45" height="7.87"/>
  <rect class="cls-4" x="306.75" y="611.11" width="9.45" height="7.87"/>
  <rect class="cls-5" x="191.42" y="577.84" width="146.89" height="5.55"/>
  <rect class="cls-5" x="191.42" y="567.97" width="146.89" height="3.09"/>
  <rect class="cls-5" x="191.42" y="558.09" width="146.89" height="3.09"/>
  <path class="cls-2" d="M235.89,630.63c0-.17,0-.34,0-.51-.13-4.55-4.65-5.78-7.06-3.63-1.58-1.37-3.93-1.37-5.5,0-2.43-2.12-6.85-.97-7,3.52,0,.17,0,.34,0,.51,0,.95.07,1.89.17,2.83h19.24c.1-.9.16-1.81.17-2.72Z"/>
  <path class="cls-2" d="M312.35,630.63c0-.17,0-.34,0-.51-.13-4.55-4.65-5.78-7.06-3.63-1.58-1.37-3.93-1.37-5.5,0-2.43-2.12-6.85-.97-7,3.52,0,.17,0,.34,0,.51,0,.95.07,1.89.17,2.83h19.24c.1-.9.16-1.81.17-2.72Z"/>
  <polygon class="cls-1" points="417.86 633.66 414.89 633.66 415.88 575.54 416.87 575.54 417.86 633.66"/>
  <path class="cls-1" d="M420.34,538.95l4.8-7.42c-1.42-3.93-3.07-7.79-4.93-11.53l-3.11,2.51,2.46-3.8c-2.34-4.61-4.19-7.52-4.19-7.52,0,0-9.63,15.18-12.85,31.25l6.16,9.52-6.82-5.51c-.24,1.87-.37,3.76-.37,5.65,0,19.03,6.22,34.46,13.88,34.46s13.88-15.43,13.88-34.46c0-5.9-1.33-12.07-3.18-17.78l-5.75,4.64Z"/>
  <polygon class="cls-2" points="407.39 552.36 343.91 552.36 343.91 599.1 343.95 599.1 343.95 608.41 353.26 599.1 407.39 599.1 407.39 552.36"/>
  <rect class="cls-1" x="270.8" y="652.18" width="56.32" height="2.23"/>
  <rect class="cls-1" x="373.19" y="652.18" width="56.62" height="2.23"/>
  <rect class="cls-1" x="168.41" y="652.18" width="56.39" height="2.23"/>
  <rect class="cls-5" x="100.19" y="633.3" width="329.39" height=".62"/>
  <rect class="cls-5" x="358.54" y="642.97" width="6.63" height="1.05"/>
  <path class="cls-2" d="M310.59,643.21l1.37.32,52,.03.47-1.09c.82-1.87,1.1-3.93.81-5.95-.22-1.5-.79-3-2.06-3.65l-2.31-15.37-28.77-.05-11.13,8.98s-5.25-.09-8.1,3.46c-1.03,1.32-1.64,2.92-1.74,4.59l-.11,1.85-.42,6.89Z"/>
  <circle class="cls-5" cx="322.01" cy="642.95" r="6.42"/>
  <circle class="cls-3" cx="322.01" cy="642.95" r="3.38"/>
  <circle class="cls-5" cx="353.7" cy="642.97" r="6.42"/>
  <circle class="cls-3" cx="353.7" cy="642.97" r="3.38"/>
  <polygon class="cls-4" points="325.39 625.37 340.92 625.38 342.82 625.38 346.02 625.38 346.02 625.15 346.02 622.33 346.02 619.17 343.9 619.17 342 619.17 338.64 619.17 336.74 619.17 332.87 619.17 325.39 625.37"/>
  <polygon class="cls-4" points="348.55 625.38 356.76 625.39 356.76 623.78 356.76 620.96 356.76 619.18 355.56 619.18 353.66 619.18 348.55 619.17 348.55 625.38"/>
  <rect class="cls-5" x="344.96" y="630.02" width="1.05" height="2"/>
  <rect class="cls-5" x="327.6" y="627.16" width="2" height="1.05"/>
  <path class="cls-5" d="M328.86,627.63h-.12c-1.22,0-2.2-.99-2.2-2.2h0c0-1.22.99-2.2,2.2-2.2h.12s0,4.4,0,4.4h0Z"/>
  <path class="cls-5" d="M311.01,636.32c1.87.2,3.55-1.15,3.75-3.01.16-1.43-.6-2.8-1.89-3.43-1.03,1.32-1.64,2.92-1.74,4.59l-.11,1.85Z"/>
  <polygon class="cls-7" points="342 619.17 346.02 625.15 346.02 622.33 343.9 619.17 342 619.17"/>
  <polygon class="cls-7" points="353.66 619.18 356.76 623.78 356.76 620.96 355.56 619.18 353.66 619.18"/>
  <polygon class="cls-7" points="336.74 619.17 340.92 625.38 342.82 625.38 338.64 619.17 336.74 619.17"/>
  <path class="cls-1" d="M252.44,386.39l-.04.02c-.94.51-2.08.52-3.02.01-.03-.01-.05-.03-.08-.04-.94-.5-2.08-.5-3.02.01l-.04.02c-.94.51-2.08.52-3.02.01-.03-.02-.06-.03-.08-.04-.93-.5-2.06-.5-2.99,0-1.41.76-3.31,2.05-3.3,3.52,0,.06,0,.12,0,.17.16,1.52,5.12,1.91,7.84,1.19,2.03.46,4.14.46,6.17,0,2.71.73,7.77.31,7.91-1.23,0-.06,0-.12,0-.17,0-1.46-1.93-2.75-3.34-3.49-.94-.49-2.06-.48-2.99.03Z"/>
  <path class="cls-1" d="M388.96,436.55l-.04.02c-.94.51-2.08.52-3.02.01-.03-.01-.05-.03-.08-.04-.94-.5-2.08-.5-3.02.01l-.04.02c-.94.51-2.08.52-3.02.01-.03-.02-.06-.03-.08-.04-.93-.5-2.06-.5-2.99,0-1.41.76-3.31,2.05-3.3,3.52,0,.06,0,.12,0,.17.16,1.52,5.12,1.91,7.84,1.19,2.03.46,4.14.46,6.17,0,2.71.73,7.77.31,7.91-1.23,0-.06,0-.12,0-.17,0-1.46-1.93-2.75-3.34-3.49-.94-.49-2.06-.48-2.99.03Z"/>
  <path class="cls-1" d="M149.89,439.35l-.04.02c-.94.51-2.08.52-3.02.01-.03-.01-.05-.03-.08-.04-.94-.5-2.08-.5-3.02.01l-.04.02c-.94.51-2.08.52-3.02.01-.03-.02-.06-.03-.08-.04-.93-.5-2.06-.5-2.99,0-1.41.76-3.31,2.05-3.3,3.52,0,.06,0,.12,0,.17.16,1.52,5.12,1.91,7.84,1.19,2.03.46,4.14.46,6.17,0,2.71.73,7.77.31,7.91-1.23,0-.06,0-.12,0-.17,0-1.46-1.93-2.75-3.34-3.49-.94-.49-2.06-.48-2.99.03Z"/>
  <rect class="cls-5" x="134.42" y="655.58" width="6.63" height="1.05"/>
  <path class="cls-2" d="M189,655.82l-1.37.32-52,.03-.47-1.09c-.82-1.87-1.1-3.93-.81-5.95.22-1.5.79-3,2.06-3.65l2.31-15.37,28.77-.05,11.13,8.98s5.25-.09,8.1,3.46c1.03,1.32,1.64,2.92,1.74,4.59l.11,1.85.42,6.89Z"/>
  <circle class="cls-5" cx="177.58" cy="655.56" r="6.42"/>
  <circle class="cls-3" cx="177.58" cy="655.56" r="3.38"/>
  <circle class="cls-5" cx="145.9" cy="655.58" r="6.42"/>
  <circle class="cls-3" cx="145.9" cy="655.58" r="3.38"/>
  <polygon class="cls-4" points="174.2 637.99 158.67 637.99 156.77 637.99 153.57 638 153.57 637.76 153.57 634.95 153.57 631.79 155.7 631.79 157.59 631.78 160.95 631.78 162.85 631.78 166.72 631.78 174.2 637.99"/>
  <polygon class="cls-4" points="151.04 638 142.83 638 142.83 636.39 142.83 633.58 142.83 631.79 144.03 631.79 145.93 631.79 151.04 631.79 151.04 638"/>
  <rect class="cls-5" x="153.57" y="642.63" width="1.05" height="2"/>
  <rect class="cls-5" x="169.99" y="639.78" width="2" height="1.05"/>
  <path class="cls-5" d="M170.73,635.84h.12c1.22,0,2.2.98,2.2,2.2h0c0,1.22-.98,2.2-2.2,2.2h-.12v-4.4h0Z"/>
  <path class="cls-5" d="M188.58,648.93c-1.87.2-3.55-1.15-3.75-3.01-.16-1.43.6-2.8,1.89-3.43,1.03,1.32,1.64,2.92,1.74,4.59l.11,1.85Z"/>
  <polygon class="cls-7" points="157.59 631.78 153.57 637.76 153.57 634.95 155.7 631.79 157.59 631.78"/>
  <polygon class="cls-7" points="145.93 631.79 142.83 636.39 142.83 633.58 144.03 631.79 145.93 631.79"/>
  <polygon class="cls-7" points="162.85 631.78 158.67 637.99 156.77 637.99 160.95 631.78 162.85 631.78"/>
  <polygon class="cls-4" points="373.43 585.7 365.32 575.27 370.03 571.61 373.87 576.54 386.84 562.86 391.17 566.96 373.43 585.7"/>
  <polygon class="cls-2" points="102.54 564.19 166.02 564.19 166.02 610.93 165.98 610.93 165.98 620.23 156.67 610.93 102.54 610.93 102.54 564.19"/>
  <polygon class="cls-4" points="132.48 598.63 124.37 588.21 129.09 584.55 132.93 589.48 145.89 575.79 150.23 579.9 132.48 598.63"/>
</svg>