<?xml version="1.0" encoding="UTF-8"?>
<svg id="Layer_1" data-name="Layer 1" xmlns="http://www.w3.org/2000/svg" viewBox="0 0 530 780">
  <defs>
    <style>
      .cls-1 {
        fill: #e4e4e4;
      }

      .cls-1, .cls-2, .cls-3, .cls-4, .cls-5, .cls-6, .cls-7, .cls-8, .cls-9, .cls-10, .cls-11, .cls-12, .cls-13 {
        stroke-width: 0px;
      }

      .cls-2 {
        fill: #e6e6e6;
      }

      .cls-3 {
        fill: #9e616a;
      }

      .cls-4 {
        fill: #f0f0f0;
      }

      .cls-5 {
        fill: #009245;
      }

      .cls-6 {
        fill: #ccc;
      }

      .cls-7 {
        fill: #fff;
      }

      .cls-8 {
        fill: #3f3d56;
      }

      .cls-9 {
        fill: #ffb6b6;
      }

      .cls-10 {
        fill: #cacaca;
      }

      .cls-11 {
        fill: #ffb8b8;
      }

      .cls-12 {
        fill: #f2f2f2;
      }

      .cls-13 {
        fill: #2f2e41;
      }
    </style>
  </defs>
  <path class="cls-4" d="M127.02,534.95v-56.83c0-1.69,1.37-3.06,3.06-3.06s3.06,1.37,3.06,3.06v56.83c0,1.69-1.37,3.06-3.06,3.06s-3.06-1.37-3.06-3.06Z"/>
  <path class="cls-4" d="M119.7,534.95v-56.83c0-1.69,1.37-3.06,3.06-3.06s3.06,1.37,3.06,3.06v56.83c0,1.69-1.37,3.06-3.06,3.06s-3.06-1.37-3.06-3.06Z"/>
  <path class="cls-4" d="M112.38,534.95v-56.83c0-1.69,1.37-3.06,3.06-3.06s3.06,1.37,3.06,3.06v56.83c0,1.69-1.37,3.06-3.06,3.06s-3.06-1.37-3.06-3.06Z"/>
  <path class="cls-2" d="M388.86,625.73c-1.23,0-2.46-.21-3.62-.63l-.18-.06.08-.4c-2.08-4.2-1.35-9.95,1.86-14.68,2.92-4.3,7.36-7.42,11.27-10.18,1.38-.97,3.28-.64,4.24.74.48.68.66,1.52.5,2.34l-1.4,7.18c-1.01,5.18-2.21,10.09-5.78,13.15-1.96,1.64-4.43,2.54-6.98,2.54Z"/>
  <path class="cls-2" d="M398.03,638.14c-2.76-.02-5.32-1.43-6.8-3.74l-.1-.16.24-.21c.63-3.42,3.57-6.46,7.53-7.77,3.6-1.19,7.57-1,11.07-.82h0c1.29.06,2.28,1.16,2.22,2.45-.03.62-.31,1.21-.77,1.62l-3.94,3.55c-2.86,2.58-5.72,4.91-9.16,5.08-.1,0-.19,0-.29,0Z"/>
  <path class="cls-12" d="M385.8,641.94c-.58-4.33-1.18-8.72-.77-13.09.36-3.89,1.52-7.68,3.88-10.8,1.25-1.64,2.77-3.06,4.51-4.18.45-.29.87.44.42.73-3.01,1.95-5.32,4.8-6.61,8.15-1.44,3.74-1.67,7.82-1.42,11.79.15,2.4.47,4.79.79,7.17.05.22-.07.45-.29.52-.22.06-.45-.07-.51-.29,0,0,0,0,0,0h0Z"/>
  <path class="cls-12" d="M384.16,644.43c2.8-5.06,6.05-10.69,11.85-12.49,1.61-.5,3.3-.68,4.98-.53.53.05.4.88-.13.83-2.82-.24-5.64.52-7.95,2.15-2.24,1.56-3.99,3.73-5.47,6.03-.91,1.41-1.72,2.88-2.53,4.34-.26.47-1.02.13-.75-.34h0Z"/>
  <path class="cls-10" d="M382.9,644.36l2.83.06-17.04-91.04-2.83.53,4.45,23.62h-14.34l4.45-23.62-2.83-.53-16.9,91.04,2.68-.06,8.88-47.15h21.75l8.88,47.15ZM352.93,593.71l2.39-12.68h15.65l2.39,12.68h-20.43Z"/>
  <path class="cls-4" d="M259.49,536.4v-29.9c0-.89,1.37-1.61,3.06-1.61s3.06.72,3.06,1.61v29.9c0,.89-1.37,1.61-3.06,1.61s-3.06-.72-3.06-1.61Z"/>
  <path class="cls-4" d="M252.17,536.4v-29.9c0-.89,1.37-1.61,3.06-1.61s3.06.72,3.06,1.61v29.9c0,.89-1.37,1.61-3.06,1.61s-3.06-.72-3.06-1.61Z"/>
  <path class="cls-4" d="M244.85,536.4v-29.9c0-.89,1.37-1.61,3.06-1.61s3.06.72,3.06,1.61v29.9c0,.89-1.37,1.61-3.06,1.61s-3.06-.72-3.06-1.61Z"/>
  <path class="cls-6" d="M306.45,514.42c-.03-.18-.13-.35-.29-.45l-23.07-15.23c.35-.15.64-.4.83-.73h0c.48-.84.19-1.9-.64-2.39l-1.89-1.09c-.84-.48-1.9-.19-2.39.64-.13.22-.2.47-.22.72l-16.65-10.99c-1.13-2.74-3.41-4.85-6.24-5.75v-4.85h-6.12v4.85c-4.17,1.33-6.99,5.2-6.99,9.58v1.31h6.12c0,2.17,1.76,3.93,3.93,3.93s3.93-1.76,3.93-3.93h6.12v-1.31c0-.63-.06-1.26-.18-1.87l42.13,27.81-17.5,21.28c-.14,0-.27,0-.41,0-1.4,0-2.75.03-4.04.09.08-.22.11-.45.1-.67-.05-.96-.87-1.7-1.84-1.66l-2.18.11c-.96.05-1.7.87-1.66,1.84.02.27.1.54.24.77-3.86.41-6.36.98-6.36,1.26,0,.47,6.72.02,15.12,0,.12.34.49.52.83.4.11-.04.21-.11.29-.2l.16-.2c8.38.02,15.07.47,15.07,0,0-.44-5.95-1.55-13.65-1.72l17.3-21.03c.12-.14.17-.33.14-.51Z"/>
  <path class="cls-1" d="M307.08,644.58h-53.87c-2.27,0-4.1-1.84-4.11-4.11v-88.41c0-2.03-1.64-3.67-3.67-3.67h-126c-2.03,0-3.67,1.64-3.67,3.67v88.41c0,2.27-1.84,4.1-4.11,4.11h-1.84c-2.27,0-4.1-1.84-4.11-4.11v-93.17c0-5.43,4.41-9.83,9.84-9.84h185.8c5.43,0,9.83,4.41,9.84,9.84v93.17c0,2.27-1.84,4.1-4.11,4.11Z"/>
  <rect class="cls-7" x="249.33" y="560.42" width="61.64" height="2.62"/>
  <rect class="cls-7" x="249.33" y="595.83" width="61.64" height="2.62"/>
  <path class="cls-2" d="M198.3,537.03l-1.77-.75-1.22-8.88h-16.18l-1.32,8.85-1.59.79c-.19.09-.26.32-.17.51.06.13.19.21.34.21h21.76c.21,0,.38-.17.38-.38,0-.15-.09-.29-.23-.35Z"/>
  <path class="cls-6" d="M227.06,528.59h-79.5c-.87,0-1.57-.71-1.57-1.58v-11.21h82.65v11.21c0,.87-.7,1.57-1.57,1.58Z"/>
  <path class="cls-8" d="M228.72,521.1h-82.8v-47.97c0-1.05.85-1.9,1.9-1.9h79c1.05,0,1.9.85,1.9,1.9v47.97Z"/>
  <path class="cls-7" d="M223.77,517.62h-72.91c-.81,0-1.46-.66-1.46-1.46v-39.98c0-.81.66-1.46,1.46-1.46h72.91c.81,0,1.46.66,1.46,1.46v39.98c0,.81-.66,1.46-1.46,1.46Z"/>
  <path class="cls-3" d="M305.51,479.3c2.63-.38,5.08,1.45,5.46,4.08.04.28.06.56.05.85l15.99,6.15-7.24,5.17-14.07-6.64c-2.66-.27-4.61-2.64-4.34-5.3.22-2.23,1.94-4.01,4.16-4.32h0Z"/>
  <path class="cls-1" d="M366.2,476.28l2.7,4.92c-.65,3.12-2.34,5.92-4.79,7.96-4.14,3.49-25.79,16.5-25.79,16.5l-27.33-13.72,4.78-6.35,21.46,7.19h0c7.96-7.52,17.57-13.07,28.05-16.22l.92-.28Z"/>
  <ellipse class="cls-10" cx="361.17" cy="550.69" rx="21.33" ry="6.95"/>
  <polygon class="cls-3" points="313.32 638.47 307.66 636.9 311 614.31 319.36 616.62 313.32 638.47"/>
  <path class="cls-13" d="M313.25,644.36l-18.26-5.05.06-.23c1.09-3.93,5.15-6.23,9.07-5.14h0s11.15,3.08,11.15,3.08l-2.03,7.34Z"/>
  <polygon class="cls-3" points="296.9 638.54 291.52 636.17 298.12 614.3 306.05 617.81 296.9 638.54"/>
  <path class="cls-13" d="M295.97,644.36l-17.33-7.65.1-.22c1.65-3.73,6-5.41,9.73-3.77h0s10.59,4.68,10.59,4.68l-3.08,6.97Z"/>
  <path class="cls-13" d="M377.78,533.7s2.85,8.83-14.63,19.99l-22.52,22.44-23.39,55.96-13.89-6.23,2.72-7.27,1.83-4.88.94-2.5,1-2.68,14.87-39.69,12.49-21.87.36-11.87,3.07-8.36,22.29-7.91,14.86,14.86Z"/>
  <path class="cls-13" d="M366.41,534.14s2.85,8.83-14.63,19.99l-22.52,22.44-23.39,55.96-13.89-6.23,2.72-7.27,1.83-4.88.94-2.5,1-2.68,14.87-39.69,4.18-7.32c5.52-9.66,12.22-18.59,19.96-26.59l4.1-4.24.44-6.56,9.54-5.3,14.86,14.86Z"/>
  <path class="cls-1" d="M352.94,490.92l6.99-14.86,12.21-1.67s9.53,12.14,7.03,29.21c-.94,6.4-1.7,12.77-1.75,18.36-.01,1.49,1.29,2.15,1.31,3.5.02,1.32-2.47,3.47-1.75,4.37,1.03,1.24,1.64,2.77,1.75,4.37-.87,2.06-27.09-9.11-38.11-7.45l12.31-35.83Z"/>
  <circle class="cls-3" cx="360.79" cy="461.27" r="11.04"/>
  <path class="cls-13" d="M367.85,457.3c-.02.29-.05.68-.08,1.11-.03,1.19.3,2.36.96,3.36.62,1.04-.12,7.35-.12,7.35,18.09-12.61,3.8-25.27-1.79-24.15.12-1.6-4.44-.97-4.44-.97-1.74-2.71-5.54.89-5.54.89l.73-1.24c-2.96.75-5.88,9.89-5.88,9.89,1,3.94,16.28,2.15,16.17,3.76Z"/>
  <path class="cls-6" d="M297.69,496.77c6.21-8.27,11.13-17.44,14.57-27.19.41-1.2-.11-2.53-1.23-3.13l-21.27-11.4c-.7-.38-1.53-.41-2.25-.09-.74.32-1.29.96-1.49,1.75-2.48,9.4-7.13,18.08-13.58,25.35-.54.6-.77,1.41-.63,2.21.14.78.63,1.45,1.32,1.83l21.27,11.4c1.12.6,2.52.3,3.29-.71Z"/>
  <path class="cls-7" d="M296.23,495.68c-.24.29-.65.38-.98.2l-21.27-11.4c-.21-.11-.36-.31-.39-.54-.04-.25.03-.5.2-.68,6.64-7.48,11.43-16.42,13.98-26.1.06-.24.23-.44.46-.54.22-.1.46-.09.67.03l21.27,11.4c.33.18.49.57.37.93-3.38,9.58-8.2,18.58-14.31,26.7Z"/>
  <path class="cls-5" d="M288.79,467.48l14.67,8.6c1.46.86,2.78-1.41,1.32-2.26l-14.67-8.6c-1.46-.86-2.78,1.41-1.32,2.26h0Z"/>
  <path class="cls-5" d="M286.17,472.29l14.67,8.6c1.46.86,2.78-1.41,1.32-2.26l-14.67-8.6c-1.46-.86-2.78,1.41-1.32,2.26h0Z"/>
  <path class="cls-5" d="M283.11,477.53l14.67,8.6c1.46.86,2.78-1.41,1.32-2.26l-14.67-8.6c-1.46-.86-2.78,1.41-1.32,2.26h0Z"/>
  <path class="cls-5" d="M280.05,481.9l14.67,8.6c1.46.86,2.78-1.41,1.32-2.26l-14.67-8.6c-1.46-.86-2.78,1.41-1.32,2.26h0Z"/>
  <path class="cls-5" d="M346.92,532.48l5.51,12.38c.27.6.22,1.3-.14,1.86-.42.67-1.21,1.02-1.98.88-.13-.02-.26-.05-.38-.1-.49-.19-.88-.56-1.09-1.04l-5.51-12.38c-.44-.99,0-2.16.99-2.6.99-.44,2.16,0,2.6.99,0,0,0,0,0,0h0Z"/>
  <path class="cls-8" d="M351.98,543.86l1.1,2.5.56,3.54c.09.58-.3,1.13-.89,1.23-.38.06-.76-.09-1-.39l-2.28-2.84-1.09-2.44,3.6-1.6Z"/>
  <path class="cls-8" d="M342.1,529.03l.79,4.96c.09.58.64.98,1.23.89.09-.01.18-.04.27-.08l.78-.35,1.51,3.4c.1.22.36.32.58.22.22-.1.32-.36.22-.58l-1.51-3.4.78-.35c.54-.24.78-.87.55-1.41-.04-.09-.09-.17-.15-.24l-3.15-3.91c-.37-.46-1.05-.53-1.51-.16-.3.24-.45.62-.39,1Z"/>
  <path class="cls-3" d="M344.39,537.98c.47-2.62,2.97-4.36,5.59-3.9.28.05.55.12.82.22l10.87-13.24,2.63,8.5-10.73,11.27c-1.09,2.44-3.96,3.54-6.4,2.45-2.05-.91-3.2-3.11-2.79-5.31h0Z"/>
  <path class="cls-1" d="M358.07,537.12l-4.79-6.92,13.6-18.13-7-15.01.51-17.85,5.79-1.07.07.04c2.81,1.62,4.99,4.15,6.16,7.18,1.44,3.61,4.67,17.16,6.46,24.92.72,3.06-.2,6.26-2.43,8.48l-18.37,18.37Z"/>
  <path class="cls-9" d="M223.26,503.7c-.04.34-.05.67-.04,1.01l-24.51,17.83-6.73-2.98-5.83,9.58,11.41,6.43c1.89,1.07,4.26.76,5.82-.76l24.67-24.1c3.43.87,6.93-1.2,7.8-4.64.87-3.43-1.2-6.93-4.64-7.8-3.43-.87-6.93,1.2-7.8,4.64-.07.26-.11.52-.15.78h0Z"/>
  <path class="cls-5" d="M197.91,523.2l-7.15,11.91c-.78,1.3-2.47,1.72-3.77.94-.12-.07-.23-.15-.33-.23l-10.7-8.79c-3.6-2.19-4.75-6.89-2.55-10.5,2.18-3.59,6.85-4.74,10.45-2.58l12.75,5.29c1.4.58,2.07,2.19,1.49,3.6-.05.12-.11.25-.18.36h0Z"/>
  <rect class="cls-10" x="167.28" y="603.52" width="14.01" height="23.22"/>
  <rect class="cls-10" x="194.91" y="608.22" width="3.2" height="40.64" transform="translate(-433.94 438.22) rotate(-55.84)"/>
  <rect class="cls-10" x="131.75" y="626.94" width="40.64" height="3.2" transform="translate(-326.69 193.83) rotate(-34.16)"/>
  <circle class="cls-10" cx="213.32" cy="639.95" r="4.4"/>
  <circle class="cls-10" cx="174.09" cy="639.95" r="4.4"/>
  <circle class="cls-10" cx="135.25" cy="639.95" r="4.4"/>
  <rect class="cls-10" x="172.49" y="617.13" width="3.2" height="22.82"/>
  <rect class="cls-10" x="171.29" y="583.1" width="6.01" height="30.83"/>
  <path class="cls-8" d="M157.07,587.91v-7.21c0-2.76,2.24-5,5-5h26.82c2.76,0,5,2.24,5,5v7.21c0,2.76-2.24,5-5,5h-26.82c-2.76,0-5-2.24-5-5Z"/>
  <polygon class="cls-11" points="205.52 637.17 212.94 637.17 216.47 617.93 205.52 617.93 205.52 637.17"/>
  <path class="cls-13" d="M203.63,644.36h23.92v-.3c0-5.14-4.17-9.31-9.31-9.31h-14.61s0,9.61,0,9.61Z"/>
  <path class="cls-13" d="M216.62,625.23l14.79-33.17c2.56-5.8.24-12.59-5.34-15.6l-32.08-17.2-14.64-1.25-13.5-1.23-.1.16c-.12.21-3.03,5.23-1.07,10.72,1.49,4.17,5.36,7.43,11.51,9.68,14.35,5.26,30.93,9.76,37.39,11.45.58.15,1.06.54,1.34,1.06.27.52.32,1.14.12,1.69l-13.74,30.87c-.52,1.41.21,2.98,1.62,3.49.22.08.45.13.69.15l10.27.75c.09,0,.17.01.26.01,1.07,0,2.05-.63,2.48-1.61Z"/>
  <polygon class="cls-11" points="200.68 637.17 208.1 637.17 211.63 617.93 200.68 617.93 200.68 637.17"/>
  <path class="cls-13" d="M198.79,644.36h23.92v-.3c0-5.14-4.17-9.31-9.31-9.31h-14.61s0,9.61,0,9.61Z"/>
  <path class="cls-13" d="M211.17,627.05l14.79-33.17c2.56-5.8.24-12.59-5.34-15.6l-32.08-17.2-14.64-1.25-10.58-.92v-.15c-.12.21-3.03,5.23-1.06,10.72,1.49,4.17,2.34,7.43,8.48,9.68,14.35,5.26,30.93,9.76,37.39,11.45.58.15,1.06.54,1.34,1.06.27.52.32,1.14.12,1.69l-13.74,30.87c-.52,1.41.21,2.98,1.62,3.49.22.08.45.13.69.15l10.27.75c.09,0,.17.01.26.01,1.07,0,2.05-.63,2.48-1.61Z"/>
  <circle class="cls-11" cx="187.44" cy="480.76" r="14.86"/>
  <path class="cls-6" d="M238.67,537.86c6.21-8.27,11.13-17.44,14.57-27.19.41-1.2-.11-2.53-1.23-3.13l-21.27-11.4c-.7-.38-1.53-.41-2.25-.09-.74.32-1.29.96-1.49,1.75-2.48,9.4-7.13,18.08-13.58,25.35-.54.6-.77,1.41-.63,2.21.14.78.63,1.45,1.32,1.83l21.27,11.4c1.12.6,2.52.3,3.29-.71Z"/>
  <path class="cls-7" d="M237.21,536.77c-.24.29-.65.38-.98.2l-21.27-11.4c-.21-.11-.36-.31-.39-.54-.04-.25.03-.5.2-.68,6.64-7.48,11.43-16.42,13.98-26.1.06-.24.23-.44.46-.54.22-.1.46-.09.67.03l21.27,11.4c.33.18.49.57.37.93-3.38,9.58-8.2,18.58-14.31,26.7Z"/>
  <path class="cls-6" d="M229.77,508.57l14.67,8.6c1.46.86,2.78-1.41,1.32-2.26l-14.67-8.6c-1.46-.86-2.78,1.41-1.32,2.26h0Z"/>
  <path class="cls-6" d="M227.15,513.38l14.67,8.6c1.46.86,2.78-1.41,1.32-2.26l-14.67-8.6c-1.46-.86-2.78,1.41-1.32,2.26h0Z"/>
  <path class="cls-6" d="M225.09,518.17l13.34,7.92c1.33.79,2.75-.84,1.42-1.63l-13.34-7.92c-1.33-.79-2.75.84-1.42,1.63Z"/>
  <path class="cls-6" d="M221.03,523l14.67,8.6c1.46.86,2.78-1.41,1.32-2.26l-14.67-8.6c-1.46-.86-2.78,1.41-1.32,2.26h0Z"/>
  <path class="cls-5" d="M196,560.47l-29.41-.18v-.21c-.57-14.76,1.23-28.12,5.51-40.87.06-.48.13-.99.19-1.49.73-5.7,1.31-10.23,6.73-11.91-.45-.6-.72-1.32-.77-2.07-.07-1.01.27-2,.94-2.75.64-.73,1.55-1.17,2.51-1.23l10.47-.36c.55,0,1.09.18,1.52.52,1.65,1.22,2.16,3.46,1.22,5.28-.12.25-.17.36-.19.41.37,1.95,1.48,4.27,2.64,6.72,1.67,3.51,3.57,7.49,4.06,11.74.26,2.3.15,4.62-.32,6.89-.22,1.22-.27,2.46-.15,3.7.1,1.83.19,3.55-.85,5.22-.26.45-.56.93-.92,1.47l-1.45,3.47-1.73,15.65Z"/>
  <path class="cls-8" d="M151.87,581.12v-60.1c0-4.08,3.31-7.38,7.39-7.39h2.04c4.08,0,7.38,3.31,7.39,7.39v60.1c0,4.08-3.31,7.38-7.39,7.39h-2.04c-4.08,0-7.38-3.31-7.39-7.39Z"/>
  <path class="cls-9" d="M230.74,527.02c-.21.26-.4.54-.57.84l-30.23,2.21-4.15-6.09-10,5.06,6.29,11.49c1.04,1.91,3.22,2.89,5.34,2.43l33.68-7.44c2.46,2.55,6.52,2.63,9.07.18,2.55-2.46,2.63-6.52.18-9.07-2.46-2.55-6.52-2.63-9.07-.18-.19.18-.37.38-.54.59Z"/>
  <path class="cls-5" d="M198.92,530.2l-12.36,6.34c-1.35.69-3.01.16-3.7-1.19-.06-.12-.11-.24-.16-.37l-4.45-13.12c-1.9-3.75-.41-8.33,3.33-10.25-5.48,2.81,5.93-5.18,10.29,3.31l8.04,11.22c.88,1.24.6,2.95-.64,3.84-.11.08-.22.15-.34.21h0Z"/>
  <path class="cls-13" d="M180.72,495.22c-.89,0-1.88-.43-2.99-1.3-6.73-5.28-9.1-14.41-5.8-22.31.81-1.93,2.32-4.56,4.94-6.1,1.88-1.11,4.09-1.51,6.01-1.79,1.66-.25,3.35-.45,5.01-.59,1.98-.17,4.27-.28,6.36.51,1.53.58,2.83,1.61,4.09,2.6.44.35.89.7,1.35,1.04,1.1.86,2.37,1.48,3.73,1.81.58.12,1.08.49,1.37,1,.29.52.35,1.15.15,1.72-.2.55-.37,1.05-.02,1.59.27.38.71.61,1.18.6.25,0,.48.12.62.32.14.2.17.46.08.7l-.06.15c.31.03.59.21.74.48.23.4.16.9-.18,1.21-1.33,1.26-2.98,2.13-4.77,2.5-1.23.24-2.49.24-3.72,0l-.2-.04.02-.22c-4.96-1.77-9.44,1.23-11.99,4.66l-.37-.23c.13-.26.14-.56.05-.83-.1-.33-.33-.6-.64-.75-.62-.26-1.34-.11-1.81.36-.48.5-.72,1.18-.68,1.87.07.73.25,1.44.55,2.1.12.32.24.65.34.98.56,1.89.41,3.92-.42,5.7-.39.81-1.08,1.85-2.22,2.17-.24.07-.48.1-.73.1Z"/>
</svg>