<?xml version="1.0" encoding="UTF-8"?>
<svg id="Layer_1" data-name="Layer 1" xmlns="http://www.w3.org/2000/svg" viewBox="0 0 530 780">
  <defs>
    <style>
      .cls-1 {
        fill: #feb8b8;
      }

      .cls-1, .cls-2, .cls-3, .cls-4, .cls-5, .cls-6, .cls-7, .cls-8 {
        stroke-width: 0px;
      }

      .cls-2 {
        fill: #e6e6e6;
      }

      .cls-3 {
        fill: #009245;
      }

      .cls-4 {
        fill: #ccc;
      }

      .cls-5 {
        fill: #fff;
      }

      .cls-6 {
        fill: #3f3d56;
      }

      .cls-7 {
        fill: #f2f2f2;
      }

      .cls-8 {
        fill: #2f2e41;
      }
    </style>
  </defs>
  <g id="Group_47" data-name="Group 47">
    <g id="Group_43" data-name="Group 43">
      <rect id="Rectangle_113" data-name="Rectangle 113" class="cls-4" x="266.91" y="434.04" width="38.52" height=".73"/>
      <rect id="Rectangle_114" data-name="Rectangle 114" class="cls-4" x="114.67" y="434.04" width="122.16" height=".73"/>
      <circle id="Ellipse_115" data-name="Ellipse 115" class="cls-3" cx="114.67" cy="434.41" r="15.04"/>
      <circle id="Ellipse_116" data-name="Ellipse 116" class="cls-6" cx="183.27" cy="434.41" r="15.04"/>
      <path id="Path_748-621" data-name="Path 748-621" class="cls-4" d="M251.87,449.82c-8.51,0-15.41-6.9-15.41-15.41s6.9-15.41,15.41-15.41,15.41,6.9,15.41,15.41-6.9,15.41-15.41,15.41h0ZM251.87,419.73c-8.1,0-14.67,6.57-14.67,14.67s6.57,14.67,14.67,14.67,14.67-6.57,14.67-14.67h0c0-8.1-6.57-14.67-14.67-14.67Z"/>
      <path id="Path_749-622" data-name="Path 749-622" class="cls-4" d="M320.47,449.82c-8.51,0-15.41-6.9-15.41-15.41s6.9-15.41,15.41-15.41c8.51,0,15.41,6.9,15.41,15.41s-6.9,15.41-15.41,15.41h0ZM320.47,419.73c-8.1,0-14.67,6.57-14.67,14.67,0,8.1,6.57,14.67,14.67,14.67,8.1,0,14.67-6.57,14.67-14.67s-6.57-14.67-14.67-14.67h0Z"/>
      <path id="Path_395-623" data-name="Path 395-623" class="cls-5" d="M113.51,438.89c-.26,0-.52-.09-.73-.24h-.01s-2.76-2.12-2.76-2.12c-.54-.41-.64-1.18-.23-1.72.41-.54,1.18-.64,1.72-.23l1.79,1.37,4.22-5.51c.41-.54,1.18-.64,1.72-.23h0l-.03.04.03-.04c.54.41.64,1.18.23,1.72l-4.97,6.48c-.23.3-.59.48-.98.48h0Z"/>
    </g>
    <g id="Group_24" data-name="Group 24">
      <path id="Path_552-624" data-name="Path 552-624" class="cls-1" d="M366.98,514.32c.25.11.49.25.72.4l22.99-9.81.82-6.05,9.18-.06-.54,13.89-30.34,8.02c-.06.21-.14.42-.23.62-1.23,2.62-4.35,3.75-6.98,2.52-2.62-1.23-3.75-4.35-2.52-6.98,1.21-2.59,4.28-3.73,6.9-2.56h0Z"/>
      <path id="Path_553-625" data-name="Path 553-625" class="cls-1" d="M404.03,640.17h-6.28l-2.99-24.23h9.27v24.23Z"/>
      <path id="Path_554-626" data-name="Path 554-626" class="cls-8" d="M393.26,638.37h12.12v7.63h-19.75c0-4.21,3.42-7.63,7.63-7.63h0Z"/>
      <path id="Path_555-627" data-name="Path 555-627" class="cls-1" d="M428.47,638.39l-6.25.62-5.35-23.82,9.23-.91,2.37,24.12Z"/>
      <path id="Path_556-628" data-name="Path 556-628" class="cls-8" d="M417.57,637.66l12.06-1.19.75,7.59-19.65,1.94c-.41-4.19,2.65-7.93,6.84-8.34h0Z"/>
      <circle id="Ellipse_84" data-name="Ellipse 84" class="cls-1" cx="405.78" cy="460.57" r="12.59"/>
      <path id="Path_557-629" data-name="Path 557-629" class="cls-8" d="M396.34,635.26c-1.11,0-2.07-.8-2.26-1.9-3.25-18.05-13.88-77.08-14.14-78.71,0-.04,0-.08,0-.11v-4.4c0-.16.05-.32.14-.45l1.4-1.97c.14-.19.35-.31.59-.32,8.01-.38,34.23-1.48,35.49.11h0c1.27,1.59.82,6.41.72,7.36v.1s11.79,75.33,11.79,75.33c.19,1.25-.66,2.42-1.9,2.63l-7.36,1.21c-1.13.18-2.23-.49-2.58-1.59-2.28-7.27-9.91-31.73-12.55-41.2-.03-.14-.17-.22-.31-.19-.12.03-.21.14-.2.26.13,9.02.45,32.04.56,39.99v.86c.02,1.2-.89,2.21-2.09,2.32l-7.09.64c-.07,0-.14,0-.21,0Z"/>
      <path id="Path_99-630" data-name="Path 99-630" class="cls-2" d="M397.79,478.1c-2.2,1.31-3.51,3.71-4.27,6.15-1.4,4.52-2.24,9.19-2.5,13.92l-.8,14.14-9.87,37.5c8.55,7.24,13.49,5.59,25-.33,11.51-5.92,12.83,1.97,12.83,1.97l2.3-31.91,3.29-34.87c-.74-.89-1.57-1.69-2.49-2.4-6.16-4.79-14.18-6.49-21.75-4.61l-1.74.42Z"/>
      <path id="Path_558-631" data-name="Path 558-631" class="cls-1" d="M394.59,521.89c.27.1.52.22.77.36l22.73-11.38.38-6.16,9.38-.65.5,14.05-30.37,10.05c-.67,2.89-3.57,4.69-6.46,4.02-2.89-.67-4.69-3.57-4.02-6.46.67-2.89,3.57-4.69,6.46-4.02.22.05.43.11.64.19h0Z"/>
      <path id="Path_101-632" data-name="Path 101-632" class="cls-2" d="M423.61,484.85c5.59,1.97,6.58,23.36,6.58,23.36-6.58-3.62-14.47,2.3-14.47,2.3,0,0-1.64-5.59-3.62-12.83-1.21-4.14-.22-8.61,2.63-11.84,0,0,3.29-2.96,8.88-.99Z"/>
      <path id="Path_102-633" data-name="Path 102-633" class="cls-8" d="M417.06,463.9c-1.57-1.25-3.71,1.02-3.71,1.02l-1.25-11.29s-7.84.94-12.86-.31-5.8,4.55-5.8,4.55c-.26-2.34-.31-4.71-.16-7.06.31-2.82,4.39-5.65,11.6-7.53,7.21-1.88,10.98,6.27,10.98,6.27,5.02,2.51,2.77,15.6,1.2,14.34Z"/>
    </g>
    <path id="Path_438-634" data-name="Path 438-634" class="cls-2" d="M177.01,630.26c2.61.92,5.51.41,7.65-1.35,2.68-2.25,3.52-5.96,4.21-9.39l2.02-10.15-4.23,2.92c-3.05,2.1-6.16,4.26-8.27,7.3-2.11,3.04-3.03,7.18-1.33,10.47"/>
    <path id="Path_439-635" data-name="Path 439-635" class="cls-7" d="M177.67,643.26c-.53-3.88-1.08-7.82-.71-11.74.33-3.49,1.4-6.89,3.56-9.68,1.15-1.48,2.55-2.75,4.13-3.74.41-.26.79.39.38.65-2.74,1.73-4.86,4.29-6.06,7.31-1.32,3.35-1.53,7.01-1.3,10.57.14,2.15.43,4.29.72,6.43.05.2-.07.4-.26.47-.2.05-.41-.06-.47-.26h0Z"/>
    <path id="Path_442-636" data-name="Path 442-636" class="cls-2" d="M181.5,637.03c1.12,1.7,3.05,2.7,5.08,2.62,2.57-.12,4.72-1.92,6.65-3.62l5.71-5.04-3.78-.18c-2.72-.13-5.51-.25-8.1.59s-4.98,2.86-5.45,5.54"/>
    <path id="Path_443-637" data-name="Path 443-637" class="cls-7" d="M176.16,645.49c2.56-4.54,5.54-9.59,10.86-11.2,1.48-.45,3.03-.61,4.57-.47.49.04.36.79-.12.75-2.58-.21-5.15.47-7.29,1.93-2.06,1.4-3.66,3.34-5.01,5.41-.83,1.26-1.57,2.58-2.32,3.9-.24.42-.93.12-.69-.31Z"/>
    <g id="Group_46" data-name="Group 46">
      <path id="Path_138-638" data-name="Path 138-638" class="cls-2" d="M358.18,528.38h-114.9c-1.17,0-2.13-.95-2.13-2.13v-28.5c0-1.17.95-2.13,2.13-2.13h114.9c1.17,0,2.13.95,2.13,2.13v28.5c0,1.17-.95,2.13-2.13,2.13ZM243.28,496.48c-.7,0-1.28.57-1.28,1.28v28.5c0,.7.57,1.28,1.28,1.28h114.9c.7,0,1.28-.57,1.28-1.28v-28.5c0-.7-.57-1.28-1.28-1.28h-114.9Z"/>
      <path id="Path_139-639" data-name="Path 139-639" class="cls-2" d="M281.15,505.13c-.8,0-1.45.64-1.45,1.44,0,.8.64,1.45,1.44,1.45h68.11c.8,0,1.44-.65,1.44-1.45,0-.8-.65-1.44-1.44-1.44h-68.1Z"/>
      <path id="Path_140-640" data-name="Path 140-640" class="cls-2" d="M281.15,513.8c-.8,0-1.45.64-1.45,1.44,0,.8.64,1.45,1.44,1.45h29.31c.8,0,1.45-.64,1.45-1.44,0-.8-.64-1.45-1.44-1.45h-29.31Z"/>
      <g id="Group_45" data-name="Group 45">
        <circle id="Ellipse_18" data-name="Ellipse 18" class="cls-2" cx="261.22" cy="510.85" r="8.67"/>
        <path id="Path_395-2-641" data-name="Path 395-2-641" class="cls-3" d="M259.86,515.66c-.29,0-.57-.09-.81-.27h-.01s-3.04-2.34-3.04-2.34c-.59-.45-.71-1.3-.25-1.9s1.3-.71,1.9-.25l1.97,1.51,4.66-6.07c.45-.59,1.3-.7,1.89-.25h0l-.03.04.03-.04c.59.45.7,1.3.25,1.89l-5.48,7.15c-.26.33-.65.53-1.08.53h0Z"/>
      </g>
    </g>
  </g>
</svg>