<?xml version="1.0" encoding="UTF-8"?>
<svg id="Layer_1" data-name="Layer 1" xmlns="http://www.w3.org/2000/svg" xmlns:xlink="http://www.w3.org/1999/xlink" viewBox="0 0 530 780">
  <defs>
    <style>
      .cls-1 {
        fill: #efc8c4;
      }

      .cls-1, .cls-2, .cls-3, .cls-4, .cls-5, .cls-6, .cls-7, .cls-8, .cls-9, .cls-10, .cls-11, .cls-12, .cls-13, .cls-14, .cls-15, .cls-16, .cls-17, .cls-18, .cls-19, .cls-20, .cls-21, .cls-22 {
        stroke-width: 0px;
      }

      .cls-2, .cls-10 {
        fill: #009245;
      }

      .cls-2, .cls-23, .cls-19, .cls-22 {
        opacity: .1;
      }

      .cls-2, .cls-18, .cls-19, .cls-22 {
        isolation: isolate;
      }

      .cls-3 {
        fill: #727a9c;
      }

      .cls-4 {
        fill: url(#linear-gradient);
      }

      .cls-5 {
        fill: #512e4e;
      }

      .cls-6 {
        fill: #535461;
      }

      .cls-8 {
        fill: #dce7ff;
      }

      .cls-9 {
        fill: #be8b87;
      }

      .cls-11 {
        fill: #1d2366;
      }

      .cls-12 {
        fill: #ffb0b1;
      }

      .cls-13 {
        fill: #c7daf5;
      }

      .cls-14, .cls-19 {
        fill: #fff;
      }

      .cls-15 {
        fill: url(#linear-gradient-2);
      }

      .cls-16 {
        fill: #3f3d56;
      }

      .cls-24 {
        fill: none;
        stroke: #535461;
        stroke-miterlimit: 10;
        stroke-width: .65px;
      }

      .cls-17 {
        fill: #cf6f80;
      }

      .cls-18 {
        opacity: .03;
      }

      .cls-20 {
        fill: #591d4b;
      }

      .cls-21 {
        fill: #9d9cb5;
      }
    </style>
    <linearGradient id="linear-gradient" x1="248" y1="78.95" x2="248" y2="280.19" gradientTransform="translate(-47.24 722.37) scale(1 -1)" gradientUnits="userSpaceOnUse">
      <stop offset="0" stop-color="gray" stop-opacity=".25"/>
      <stop offset=".54" stop-color="gray" stop-opacity=".12"/>
      <stop offset="1" stop-color="gray" stop-opacity=".1"/>
    </linearGradient>
    <linearGradient id="linear-gradient-2" x1="423.67" y1="81.49" x2="423.67" y2="265.3" xlink:href="#linear-gradient"/>
  </defs>
  <ellipse class="cls-2" cx="204.37" cy="640.74" rx="31.87" ry="5.12"/>
  <ellipse class="cls-2" cx="377.6" cy="640.88" rx="39.77" ry="5.12"/>
  <path class="cls-2" d="M88.75,500.61h33.19v45.24h-30.76c-.08.46-.16.93-.25,1.4h31.01v36.49c-.06-.02-.1-.04-.16-.06-.88-.35-1.75-.71-2.62-1.11l-.56-.25c-.87-.41-1.74-.85-2.62-1.31-.3-.16-.61-.33-.91-.5-4.84-2.71-9.24-6.15-13.04-10.19-.11-.11-.22-.22-.33-.33-.53-.58-1.05-1.16-1.55-1.75l-.56-.65c-.6-.73-1.17-1.48-1.73-2.24-.08-.11-.16-.22-.25-.33-2.27-3.15-4.16-6.57-5.63-10.17-.05-.11-.09-.23-.13-.33-.45-1.16-.85-2.32-1.19-3.5-.15-.49-.29-.98-.42-1.49-.05-.15-.09-.3-.12-.44-1.86-7.25-2.08-14.78-2.08-22.26v-2.62c0-3.03.04-6.07.09-9.11,0-.79.03-1.57.05-2.36.05-2.01.11-4.02.2-6.02.02-.56.05-1.12.08-1.67,0-.32.02-.64.05-.96.08-1.16.14-2.32.22-3.47Z"/>
  <path class="cls-2" d="M121.94,450.24h-18.21c2.96-4.63,6.19-9.08,9.68-13.33,2.7-3.32,5.56-6.56,8.52-9.68v23.01Z"/>
  <path class="cls-2" d="M121.94,451.64v47.57h-33.09c0-.14.02-.28.03-.42.03-.38.06-.75.09-1.13.04-.44.08-.88.12-1.31s.09-.95.14-1.43.09-.96.15-1.43.1-.95.16-1.42.11-.95.17-1.42c.05-.39.1-.78.15-1.17.08-.55.15-1.11.24-1.66,0-.08.02-.17.04-.25.6-4.02,1.41-8.01,2.44-11.94,1.07-4.13,2.45-8.17,4.1-12.1,1.76-4.11,3.83-8.09,6.17-11.89l19.08-.02Z"/>
  <path class="cls-2" d="M129.86,500.61v45.24h70.9v-45.24h-70.9ZM129.86,547.25v38.85c.41.09.81.17,1.21.24.54.1,1.08.2,1.64.28.1.02.21.03.33.04.22.04.44.07.65.09.55.08,1.09.14,1.64.19.26.03.52.05.78.07l.63.05h0c.34.03.68.05,1.02.06.21,0,.42.02.63.03h2.33c.28,0,.56,0,.84-.03h.02c.19,0,.39,0,.59-.03.05,0,.11,0,.16,0,.16,0,.33,0,.48-.02h.11l1.1-.09c.36-.03.72-.08,1.09-.11l.75-.09c3.03-.43,6.03-1.06,8.98-1.91,6.61-1.84,13.08-4.43,19.69-6.32,8.55-2.44,17.99-3.63,26.25-.65v-30.65h-70.91ZM200.76,450.24v-60.23c-7.76-.08-15.5.82-23.03,2.7-17.95,4.51-34.06,14.29-47.86,26.79v30.74h3.56v1.4h-3.56v47.58h70.9v-47.58h-52.73v-1.4h52.73ZM291.82,429.89c-4.44-.16-8.86-1.56-12.85-3.73-7.64-4.15-13.74-10.57-20.55-15.98-14.16-11.27-31.72-18.08-49.74-19.76v59.82h101.21l.25-.26-18.31-20.08ZM301.04,428.26l9.78,10.73v-13.54c-3.27.41-6.14,1.37-9.76,2.8h-.01ZM310.82,595.75v-48.5h-20.83c-.06-.21-.11-.42-.18-.62.06.21.11.42.17.62h-81.29v35.08c.77.57,1.53,1.17,2.29,1.79h0c.81.65,1.62,1.34,2.43,2.02l.81.67c.39.33.78.65,1.18.96.78.64,1.58,1.26,2.38,1.88.4.33.8.62,1.2.93,6.39,4.88,13.12,9.29,20.16,13.18,1.58.87,3.17,1.72,4.77,2.55,1.07.55,2.15,1.09,3.22,1.62,1.62.79,3.26,1.55,4.91,2.29h0c15.2,6.82,31.27,11.5,47.75,13.91,3.66.54,7.34.97,11.02,1.28v-29.66h.33-.32ZM208.69,451.64v47.58h102.14v-47.58h-102.14ZM208.69,500.61v45.24h102.14v-45.24h-102.14ZM318.76,425.39v15.1l12.48-13.69c-4.13-.67-8.29-1.14-12.48-1.43v.02ZM318.76,500.62v45.23h99.34v-45.24l-99.34.02ZM417.74,599.34l.35-52.09h-99.33v78.68c6.4.27,12.81.19,19.2-.23h.11c3.05-.19,6.09-.47,9.11-.84h.07c16.13-1.88,31.91-6.09,46.83-12.5M437.25,508.06c-.37-.88-.76-1.75-1.16-2.62-.74-1.64-1.52-3.22-2.33-4.81h-7.75v45.22h19.6c0-12.81-3.25-25.89-8.35-37.81v.02ZM426.02,547.27v44.81c5.52-5.29,10.18-11.35,13.54-18.27,4.04-8.33,5.89-17.36,6.04-26.55h-19.58ZM426.02,487.44v11.77h7.03c-2.13-4.05-4.47-7.99-7.02-11.79v.02ZM358.65,434.26c-.52-.2-1.03-.4-1.55-.59-5.48-2.03-11.09-3.71-16.78-5.04l-19.09,20.95h0l-.37.39.25.27h67.96c-9.46-6.51-19.67-11.88-30.4-16v.02ZM391.04,451.65h-70.9l-1.39,1.28v46.28h99.36v-22.42c-7.88-9.53-16.98-17.99-27.06-25.16v.02Z"/>
  <path class="cls-2" d="M121.94,475.63v23.58h-33.09c0-.14.02-.28.03-.42.03-.38.06-.75.09-1.13.04-.44.08-.88.12-1.31s.09-.95.14-1.43.09-.96.15-1.43.1-.95.16-1.42.11-.95.17-1.42c.05-.39.1-.78.15-1.17.08-.55.15-1.11.24-1.66,0-.08.02-.17.04-.25.6-4.02,1.41-8.01,2.44-11.94h29.36Z"/>
  <path class="cls-2" d="M88.75,500.61h33.19v45.24h-30.76c-.08.46-.16.93-.25,1.4h31.01v36.49c-.06-.02-.1-.04-.16-.06-.88-.35-1.75-.71-2.62-1.11l-.56-.25c-.87-.41-1.74-.85-2.62-1.31-.3-.16-.61-.33-.91-.5-4.84-2.71-9.24-6.15-13.04-10.19-.11-.11-.22-.22-.33-.33-.53-.58-1.05-1.16-1.55-1.75l-.56-.65c-.6-.73-1.17-1.48-1.73-2.24-.08-.11-.16-.22-.25-.33-2.27-3.15-4.16-6.57-5.63-10.17-.05-.11-.09-.23-.13-.33-.45-1.16-.85-2.32-1.19-3.5-.15-.49-.29-.98-.42-1.49-.05-.15-.09-.3-.12-.44-1.86-7.25-2.08-14.78-2.08-22.26v-2.62c0-3.03.04-6.07.09-9.11,0-.79.03-1.57.05-2.36.05-2.01.11-4.02.2-6.02.02-.56.05-1.12.08-1.67,0-.32.02-.64.05-.96.08-1.16.14-2.32.22-3.47Z"/>
  <polygon class="cls-2" points="154.82 458.45 154.82 499.21 129.86 499.21 129.86 458.45 133.42 458.45 133.42 444.65 148.03 444.65 148.03 458.45 154.82 458.45"/>
  <rect class="cls-2" x="129.87" y="500.61" width="24.95" height="45.24"/>
  <path class="cls-2" d="M129.86,547.25h24.96v37.61c-2.94.85-5.94,1.48-8.98,1.91l-.75.09c-.37.04-.73.08-1.09.11s-.73.06-1.1.09h-.11c-.16,0-.33.02-.48.02h-.17c-.2,0-.39.02-.59.03h0c-.28.02-.56.02-.84.02h-2.32l-.63-.02c-.33,0-.68-.04-1.02-.06h0l-.63-.05-.78-.07c-.55-.05-1.1-.11-1.64-.19l-.65-.09-.33-.05c-.55-.09-1.09-.18-1.64-.28-.4-.07-.8-.15-1.21-.24l-.02-38.84Z"/>
  <rect class="cls-2" x="290.25" y="453.63" width="20.58" height="45.57"/>
  <polygon class="cls-2" points="310.83 500.61 310.83 545.85 208.69 545.85 208.69 526.34 263.09 526.34 263.09 537.85 290.25 537.85 290.25 500.61 310.83 500.61"/>
  <path class="cls-2" d="M311.16,595.76h-.33v29.68c-3.68-.31-7.36-.74-11.02-1.27-16.49-2.41-32.57-7.11-47.77-13.94-4.39-1.98-8.69-4.13-12.9-6.47-7.03-3.9-13.77-8.3-20.16-13.18-1.6-1.23-3.19-2.49-4.75-3.77-1.08-.89-2.16-1.81-3.25-2.7-.76-.61-1.52-1.21-2.29-1.79v-35.06h81.29c-.06-.21-.11-.42-.17-.62.06.21.12.42.18.62h20.84v48.49c.11,0,.22.01.33.02Z"/>
  <path class="cls-2" d="M364.5,450.24h-13.41v-4.17h6.01v-12.41c.52.19,1.04.38,1.56.59v11.83h5.84v4.17Z"/>
  <path class="cls-2" d="M396.8,499.21h-65.83l.02.02-.03-.02h-12.21v-45.57h3.46v33.69h15.81v-19.95h13.06v-15.73h13.41v15.75h13.06v19.95h19.24v11.88Z"/>
  <path class="cls-2" d="M318.76,500.61v45.24h78.05v-45.24h-78.05ZM417.99,599.11l.11-35.81h-21.29v-16.03h-78.05v78.66c6.4.27,12.81.19,19.2-.23h.11c3.05-.19,6.09-.47,9.11-.84h.07c16.13-1.88,31.91-6.09,46.83-12.5"/>
  <path class="cls-2" d="M427.41,547.25h18.21c-.16,9.19-2,18.21-6.04,26.54-3.36,6.92-8.03,12.98-13.54,18.27v-28.78h1.37v-16.03Z"/>
  <path class="cls-2" d="M445.62,545.85h-18.22v-37.81h9.86c5.1,11.92,8.34,25,8.36,37.81Z"/>
  <rect class="cls-2" x="299.81" y="466.3" width="11.02" height="14.29"/>
  <rect class="cls-2" x="299.81" y="495.92" width="11.02" height="3.29"/>
  <rect class="cls-2" x="299.81" y="500.61" width="11.02" height="9.6"/>
  <rect class="cls-2" x="299.81" y="525.54" width="11.02" height="14.29"/>
  <rect class="cls-2" x="299.81" y="555.16" width="11.02" height="14.29"/>
  <path class="cls-2" d="M310.83,595.74c.11,0,.22,0,.33.02h-.33v3.32h-11.02v-14.31h11.02v10.97Z"/>
  <path class="cls-2" d="M310.83,614.39v11.04c-3.68-.31-7.36-.74-11.02-1.27v-9.77h11.02Z"/>
  <rect class="cls-2" x="208.69" y="544.8" width="47.25" height="1.05"/>
  <rect class="cls-2" x="208.69" y="547.25" width="47.25" height="4.02"/>
  <rect class="cls-2" x="208.69" y="564.46" width="47.25" height="6.47"/>
  <path class="cls-2" d="M255.94,584.11v6.47h-36.96c-1.6-1.23-3.19-2.48-4.76-3.77-1.08-.89-2.16-1.81-3.25-2.69h44.96Z"/>
  <path class="cls-2" d="M255.94,603.77v6.46h-3.9c-4.38-1.98-8.68-4.14-12.9-6.47h16.8Z"/>
  <rect class="cls-2" x="337.96" y="504.99" width="9.3" height="9.3"/>
  <rect class="cls-2" x="136.56" y="461.66" width="9.3" height="9.3"/>
  <rect class="cls-2" x="136.56" y="483.26" width="9.3" height="9.3"/>
  <rect class="cls-2" x="136.56" y="504.87" width="9.3" height="9.3"/>
  <rect class="cls-2" x="136.56" y="526.47" width="9.3" height="9.3"/>
  <rect class="cls-2" x="136.56" y="548.07" width="9.3" height="9.3"/>
  <rect class="cls-2" x="136.56" y="569.68" width="9.3" height="9.3"/>
  <rect class="cls-2" x="373.47" y="504.99" width="9.3" height="9.3"/>
  <rect class="cls-2" x="337.96" y="527.94" width="9.3" height="9.3"/>
  <rect class="cls-2" x="373.47" y="527.94" width="9.3" height="9.3"/>
  <rect class="cls-2" x="337.96" y="550.88" width="9.3" height="9.3"/>
  <rect class="cls-2" x="373.47" y="550.88" width="9.3" height="9.3"/>
  <rect class="cls-2" x="337.96" y="573.82" width="9.3" height="9.3"/>
  <rect class="cls-2" x="373.47" y="573.82" width="9.3" height="9.3"/>
  <rect class="cls-2" x="337.96" y="596.76" width="9.3" height="9.3"/>
  <rect class="cls-2" x="373.47" y="596.76" width="9.3" height="9.3"/>
  <polygon class="cls-2" points="337.96 625.7 337.96 619.7 347.26 619.7 347.26 624.85 337.96 625.7"/>
  <path class="cls-2" d="M90.11,487.59v5.32h31.83v-5.32h-31.83ZM93.28,492.57h-2.6v-4.66h2.62l-.02,4.66ZM96.45,492.57h-2.62v-4.66h2.62v4.66ZM99.61,492.57h-2.62v-4.66h2.62v4.66ZM102.78,492.57h-2.61v-4.66h2.62v4.66ZM105.95,492.57h-2.62v-4.66h2.62v4.66ZM109.11,492.57h-2.62v-4.66h2.62v4.66ZM112.28,492.57h-2.62v-4.66h2.62v4.66ZM115.45,492.57h-2.62v-4.66h2.62v4.66ZM118.62,492.57h-2.62v-4.66h2.62v4.66ZM121.78,492.57h-2.62v-4.66h2.62v4.66Z"/>
  <path class="cls-2" d="M90.11,503.07v5.32h31.83v-5.32h-31.83ZM93.28,508.05h-2.6v-4.65h2.62l-.02,4.65ZM96.45,508.05h-2.62v-4.65h2.62v4.65ZM99.61,508.05h-2.62v-4.65h2.62v4.65ZM102.78,508.05h-2.61v-4.65h2.62v4.65ZM105.95,508.05h-2.62v-4.65h2.62v4.65ZM109.11,508.05h-2.62v-4.65h2.62v4.65ZM112.28,508.05h-2.62v-4.65h2.62v4.65ZM115.45,508.05h-2.62v-4.65h2.62v4.65ZM118.62,508.05h-2.62v-4.65h2.62v4.65ZM121.78,508.05h-2.62v-4.65h2.62v4.65Z"/>
  <path class="cls-2" d="M90.11,518.56v5.33h31.83v-5.33h-31.83ZM93.28,523.54h-2.6v-4.65h2.62l-.02,4.65ZM96.45,523.54h-2.62v-4.65h2.62v4.65ZM99.61,523.54h-2.62v-4.65h2.62v4.65ZM102.78,523.54h-2.61v-4.65h2.62v4.65ZM105.95,523.54h-2.62v-4.65h2.62v4.65ZM109.11,523.54h-2.62v-4.65h2.62v4.65ZM112.28,523.54h-2.62v-4.65h2.62v4.65ZM115.45,523.54h-2.62v-4.65h2.62v4.65ZM118.62,523.54h-2.62v-4.65h2.62v4.65ZM121.78,523.54h-2.62v-4.65h2.62v4.65Z"/>
  <path class="cls-2" d="M90.11,534.05v5.31h31.83v-5.31h-31.83ZM93.28,539.03h-2.6v-4.65h2.62l-.02,4.65ZM96.45,539.03h-2.62v-4.65h2.62v4.65ZM99.61,539.03h-2.62v-4.65h2.62v4.65ZM102.78,539.03h-2.61v-4.65h2.62v4.65ZM105.95,539.03h-2.62v-4.65h2.62v4.65ZM109.11,539.03h-2.62v-4.65h2.62v4.65ZM112.28,539.03h-2.62v-4.65h2.62v4.65ZM115.45,539.03h-2.62v-4.65h2.62v4.65ZM118.62,539.03h-2.62v-4.65h2.62v4.65ZM121.78,539.03h-2.62v-4.65h2.62v4.65Z"/>
  <path class="cls-2" d="M90.24,549.53c.13.5.27,1,.42,1.49v-1.16h2.62v4.65h-1.4c.04.11.09.23.13.33h29.93v-5.31h-31.69ZM96.46,554.52h-2.62v-4.65h2.62v4.65ZM99.62,554.52h-2.62v-4.65h2.62v4.65ZM102.79,554.52h-2.62v-4.65h2.62v4.65ZM105.96,554.52h-2.62v-4.65h2.62v4.65ZM109.12,554.52h-2.62v-4.65h2.62v4.65ZM112.29,554.52h-2.62v-4.65h2.62v4.65ZM115.46,554.52h-2.62v-4.65h2.62v4.65ZM118.63,554.52h-2.62v-4.65h2.62v4.65ZM121.79,554.52h-2.62v-4.65h2.62v4.65Z"/>
  <path class="cls-2" d="M97.64,565.02c.08.1.16.22.25.33h1.73v2.23c.19.22.37.44.56.65v-2.9h2.62v4.67h-1.06c.1.11.21.22.33.33h19.89v-5.31h-24.31ZM105.95,570h-2.62v-4.65h2.62v4.65ZM109.11,570h-2.62v-4.65h2.62v4.65ZM112.28,570h-2.62v-4.65h2.62v4.65ZM115.45,570h-2.62v-4.65h2.62v4.65ZM118.62,570h-2.62v-4.65h2.62v4.65ZM121.78,570h-2.62v-4.65h2.62v4.65Z"/>
  <path class="cls-2" d="M115.1,580.51c.3.17.6.33.91.5v-.16h2.62v1.47l.56.26v-1.73h2.62v2.83c.05.02.1.04.16.06v-3.22h-6.86Z"/>
  <path class="cls-2" d="M330.97,499.21h.02-.02ZM310.83,595.74h.33-.33ZM289.81,546.62c.06.21.11.42.17.62h0c-.05-.21-.11-.42-.17-.62ZM330.97,499.2h.02-.02ZM133.43,450.23v1.4h14.61v-1.4h-14.61ZM310.83,595.74h.33-.33ZM289.81,546.62c.06.21.11.42.17.62h0c-.05-.21-.11-.42-.17-.62ZM330.97,499.2h.02-.02ZM310.83,595.73h.33-.33ZM289.81,546.62c.06.21.11.42.17.62h0c-.05-.21-.11-.42-.17-.62Z"/>
  <path class="cls-4" d="M235.19,514.17s-1.29-.18-1.29-2.06-.92-5.38-.92-5.38h0s-.8-6.11-1.9-7.07-2.52-6.65-2.52-6.65c0,0-.24-3.08-.74-3.75s-1.16-2.29-2.15-4.61-5.09-3.92-5.09-3.92c0,0-7.42-4.3-9.52-5.71h0c-.19-.12-.37-.25-.53-.4-.37-.48-1.96-.49-1.96-.49-.17-1.05-.33-2.26-.38-3.36,0-.12,0-.24-.02-.35,2.34-1.39,4.11-3.57,4.97-6.16.04-.12.07-.26.11-.38.28-.09.52-.3.64-.58.19-.42.19-.92.43-1.31.27-.46.8-.71,1.21-1.06,1.04-.88,1.31-2.37,1.26-3.73-.03-1.1-.21-2.2-.14-3.29l.02-.27c.02-.16.04-.33.07-.48.16-.81.51-1.58.71-2.38s.22-1.71-.24-2.4c-.67-1.02-2.07-1.22-3.29-1.32-1.39-.12-2.63.04-3.52-1.12-.42-.6-.88-1.17-1.4-1.69-.18-.17-1.96-1.26-1.96-1.33-1.74-.8-3.7-.96-5.54-.43-.92.27-1.79.71-2.73.93-2.02.48-4.34-.04-6.05,1.12-.96.65-1.53,1.69-2.06,2.71-.44.84-.88,1.67-1.33,2.5-.72,1.37-1.46,2.76-1.76,4.28-.06.33-.1.66-.12,1h0v.53c0,.11,0,.23.02.33s.02.13.03.2.03.22.05.33.06.29.1.43c.02.06.04.12.06.18.03.11.07.22.11.33.02.06.05.11.07.17.05.11.11.23.17.33.03.05.05.09.07.13.09.15.19.3.3.44.7.87,1.73,1.43,2.49,2.25v.37c.08,3.7,1.99,7.12,5.1,9.14,0,.12.02.25.02.38.06.97.05,1.95-.04,2.91-.27-.32-.67-.5-1.09-.48-.14,0-.28,0-.42.04l-.03-.02h0v.03c-.72.18-1.61.93-2.45,3.05,0,0-2.58,2.9-4.54,2.78s-6.93,3.02-6.93,3.02c0,0-4.85,3.15-5.89,6.35-.58,1.82-1.28,3.6-2.09,5.32l-5.99,12.35h0l-1.11,9.8s.61,4.36.49,5.02,2.52,6.65,2.52,6.65c0,0,8.71,15.3,12.27,16.09l.26-.18c.15.08.31.14.48.18l.73-.52c.04.58.03,1.15-.06,1.73-.49,1.51.18,11.37,1.04,13.3s.55,27.28.55,27.28l-.12,2.24s0,.07.03.2l-.03.53.09.05c.09.71.06,1.43-.09,2.13-.31.98-.43,3.75-.43,3.75,0,0-2.45,15.66-1.29,18.81s2.15,6.59,2.15,6.59c0,0,1.23,3.92.06,4.6s-4.49,1.8-3.8,3.43c.62,1.51,2.98,5.56,3.33,6.15l-.03.31-.48,5.21c.08.69.26,1.36.55,1.99.53,1.13,1.55,2.31,3.5,2.18.33-.02.71-.06,1.07-.11,3.56-.48,7.95-2.07,7.95-2.07-.23-.14-.44-.32-.62-.51h0c-.35-.34-.55-.82-.55-1.31.05-.95-1.72-5.47-2.17-6.58-.07-.16-.1-.25-.1-.25,0,0,4.05-4.23,3.38-7.98,0,0-4.48-2.62-3.01-4.05s4.11-5.56,4.11-5.56c0,0,.12-15.42,0-17.72-.13-1.6-.05-3.21.23-4.78.05-.24.11-.47.17-.7,2.04.3,4.1.46,6.16.47.75,0,1.52,0,2.29-.05,0,.22,0,.45.03.71.17,3.82.49,10.52.75,13.01.37,3.57,2.39,13.18,2.39,13.18,0,0-3.86,2.48.67,8.59,0,0,0,2.21-.3,2.53h0c-.32,1.05-.58,2.11-.78,3.19-.19,1.15-.27,2.32.04,2.92.74,1.45,5.15,1.33,5.15,1.33h0l.11-.02c1.68-.17,3.37.33,4.67,1.41,1.68,1.35,8.05.76,11.49.33,1.35-.17,2.25-.33,2.25-.33.04-.15.06-.31.05-.47h0c-.04-.85-.7-2.7-5.2-4.36,0,0-4.23-2.85-4.17-5.32h-.58c.36-.02.59,0,.59,0,0,0-1.66-6.05-.98-6.54s-1.35-7.2-1.35-7.2c0,0-1.16-11.25-1.22-12.04,0-.68.11-1.35.3-2l-.3-6.17s-.06-2.05,0-2.72c0-.58-.06-1.16-.14-1.73-.03-.23-.06-.47-.09-.7,1.59-.4,2.62-.78,2.62-.78l-.18-21.47c1.35-2.62,1.6-8.36,1.59-12.43,0-2.62-.12-4.55-.12-4.55l1.84-3.01s.43-3.6-.25-4.39c-.3-.36-.16-.73.08-1.03.13-.1.26-.19.4-.27,0,0-.02-.03-.04-.07.13-.11.27-.2.41-.29,0,0-.65-1.01-.07-1.44.55.37,1.04.65,1.41.88-.03.24-.05.38-.05.38l.16-.33c.36.2.58.33.58.33,0,0,2.88-5.75,2.82-6.59s1.96-4.42,1.96-4.42c0,0,.25-1.87,1.35-2.66s.86-6.47.86-6.47c0,0,.31-2.96,1.04-4.17s-.67-2.84-.67-2.84ZM179.99,511.65l.06,1.37c-.33-.53-.56-.91-.56-.91l.51-.46Z"/>
  <path class="cls-14" d="M227.98,538.85l-.71,3.01s-5.66-2.89-6.68-6.56c-1.02-3.67,1.71-5.06,1.71-5.06l5.27,2.23.41,6.38Z"/>
  <path class="cls-22" d="M227.98,538.85l-.71,3.01s-5.66-2.89-6.68-6.56c-1.02-3.67,1.71-5.06,1.71-5.06l5.27,2.23.41,6.38Z"/>
  <path class="cls-14" d="M196.23,641.25s-5.23,1.92-8.83,2.17c-1.91.13-2.91-1.04-3.43-2.17-.28-.63-.46-1.29-.54-1.98l.47-5.18.25-2.76,7.64-1.99,1.08,3.31.1.25c.43,1.11,2.18,5.6,2.13,6.54,0,.49.19.95.54,1.29.18.2.38.37.6.52Z"/>
  <path class="cls-14" d="M231.97,638.62c.01.16,0,.32-.05.47,0,0-11.19,1.87-13.48,0-1.31-1.1-3.02-1.6-4.71-1.38,0,0-4.33.12-5.05-1.31-.3-.6-.22-1.76-.04-2.9.19-1.07.44-2.13.76-3.18l.17-.14,1.03-.83,12.06-.36h.09c-.06,2.47,4.09,5.29,4.09,5.29,4.41,1.64,5.06,3.48,5.12,4.33Z"/>
  <path class="cls-22" d="M231.97,638.62c.01.16,0,.32-.05.47,0,0-11.19,1.87-13.48,0-1.3-1.1-3.01-1.6-4.71-1.38,0,0-4.33.12-5.05-1.31-.3-.6-.23-1.76-.04-2.9,1.67.17,4.3.58,5.33,1.57,1.56,1.51,4.21,3.01,5.84,3.13,1.27.08,8.88.32,12.15.42Z"/>
  <path class="cls-22" d="M196.23,641.25s-5.23,1.92-8.83,2.17c-1.91.13-2.91-1.04-3.43-2.17,1.33.45,3.18.92,4.15.49,1.15-.51,5.23-.84,7.52-.98.17.19.37.36.59.5Z"/>
  <path class="cls-17" d="M203.99,486.28c-4.32-1.68-9.87-7.22-8.48-9.81.31-.65.49-1.36.54-2.08.09-.98.1-1.96.04-2.94-.1-1.61-.29-3.21-.58-4.79,0,0,13.48.3,12.69,2.29-.23.58-.26,1.59-.2,2.72s.23,2.41.4,3.49c.24,1.48.47,2.62.47,2.62,0,0-.82,1.15-1.31,1.22s2.63,9.67-3.56,7.28Z"/>
  <path class="cls-22" d="M192.96,632.9l-.1.11c-4.03-4.87-8.9,1.2-8.9,1.2l-.07-.13.25-2.76,7.64-1.99,1.08,3.31.1.25Z"/>
  <path class="cls-22" d="M222.76,629.34s-2.94-.06-4.51,1.32-9.16.3-8.83,0c.1-.15.16-.32.17-.5l1.03-.83,12.06-.36c.05.22.08.36.08.36Z"/>
  <path class="cls-10" d="M197.97,591.07c-.22.54-.39,1.1-.5,1.68-.27,1.57-.35,3.17-.23,4.76.12,2.29,0,17.63,0,17.63,0,0-2.59,4.09-4.03,5.53s2.94,4.03,2.94,4.03c.65,3.73-3.31,7.94-3.31,7.94-4.03-4.87-8.9,1.2-8.9,1.2,0,0-2.65-4.58-3.31-6.21s2.59-2.77,3.73-3.43-.06-4.58-.06-4.58c0,0-.96-3.43-2.11-6.56-1.14-3.13,1.26-18.71,1.26-18.71,0,0,.12-2.77.42-3.73.15-.7.18-1.41.09-2.12-.02-.24-.04-.44-.06-.57s-.03-.2-.03-.2l.05-.08,1.64-3.05s13.19,4.54,12.4,6.46Z"/>
  <path class="cls-10" d="M222.76,628.98s-2.94-.06-4.51,1.31-9.16.3-8.83,0,.3-2.53.3-2.53c-4.45-6.08-.65-8.54-.65-8.54,0,0-1.99-9.57-2.35-13.11-.25-2.48-.56-9.14-.73-12.94-.07-1.64-.11-2.76-.11-2.76l3.64-.73.47-.09,8.77-1.76s.24,1.64.41,2.97c.08.57.13,1.15.14,1.72-.06.65,0,2.7,0,2.7l.3,6.14c-.19.64-.29,1.31-.3,1.99.06.78,1.2,11.97,1.2,11.97,0,0,1.99,6.68,1.31,7.16s.96,6.51.96,6.51Z"/>
  <path class="cls-22" d="M208.2,468.94c-.23.58-.26,1.59-.2,2.72-3.68,2.22-8.31,2.13-11.91-.22-.1-1.61-.29-3.21-.58-4.79,0,0,13.48.3,12.69,2.29Z"/>
  <path class="cls-17" d="M213.41,461.72c0,1.18-.18,2.35-.55,3.47-1.92,5.88-8.24,9.08-14.11,7.17-4.51-1.47-7.6-5.63-7.71-10.37v-.27c-.11-6.18,4.82-11.28,11-11.38,6.18-.11,11.28,4.82,11.38,11,0,.13,0,.26,0,.38h0Z"/>
  <path class="cls-22" d="M203.99,486.28c-4.32-1.68-9.87-7.22-8.48-9.81.31-.65.49-1.36.54-2.08l5.91,4.86,3.66,3,2.78-7.08c.24,1.48.47,2.62.47,2.62,0,0-.82,1.15-1.31,1.22s2.63,9.67-3.56,7.28Z"/>
  <polygon class="cls-10" points="219.27 507.74 214.34 590.65 207.9 591.07 191.23 543 193.97 485.92 194.54 473.87 201.96 479.95 205.62 482.95 208.48 475.67 213.8 480.3 219.27 507.74"/>
  <path class="cls-22" d="M197.97,591.07c-.22.54-.39,1.1-.5,1.68-4.68-.72-9.23-2.14-13.49-4.22l-.09-.05.03-.53.02-.27,1.64-3.05s13.18,4.51,12.4,6.43Z"/>
  <path class="cls-22" d="M209.59,592.76c-1.2.2-2.4.34-3.62.41-.07-1.64-.11-2.76-.11-2.76l3.64-.73.09,3.08Z"/>
  <path class="cls-22" d="M219.14,590.8c-2.33.61-5.92,1.29-9.13.86l-.05-2.07,8.77-1.76s.24,1.62.41,2.97Z"/>
  <path class="cls-22" d="M209.95,592.04c-13.41,2.29-25.69-4.27-25.69-4.27l.12-2.22s.3-25.21-.54-27.15-1.5-11.73-1.02-13.24-1.74-24.06-1.74-24.06l-.36-9.16-13.17-5.33,5.89-12.27c.8-1.72,1.48-3.49,2.05-5.3,1.02-3.19,5.78-6.32,5.78-6.32,0,0,4.87-3.13,6.8-3.01s4.45-2.77,4.45-2.77c1.86-4.75,3.55-2.6,3.55-2.6,0,.23,0,0-.09.7-.65,5.22,10.58,21.7,10.74,21.99h0l1.07,26.05,1.08,32.97,1.1,35.98Z"/>
  <path class="cls-14" d="M209.59,592.04c-13.41,2.29-25.69-4.27-25.69-4.27l.12-2.22s.3-25.21-.54-27.15-1.5-11.73-1.02-13.24-1.74-24.06-1.74-24.06l-.36-9.16-13.17-5.35,5.89-12.27c.79-1.72,1.48-3.49,2.05-5.3,1.02-3.19,5.78-6.32,5.78-6.32,0,0,4.87-3.13,6.8-3.01s4.45-2.77,4.45-2.77c1.87-4.75,3.92-2.6,3.92-2.6,0,.23-.2.33-.09.7,1.44,5.06,10.22,21.7,10.38,21.99h0l1.08,26.05,1.08,32.97,1.08,36Z"/>
  <path class="cls-22" d="M205.97,497.75c-1.44-.6-9.08-9.32-9.08-9.32v-1.99c-.28-.65-1.93-.26-3.27.2l.58-12.06.65.54c1.43,5.06,10.96,22.33,11.12,22.62Z"/>
  <path class="cls-14" d="M206.33,497.03c-1.45-.6-9.09-9.32-9.09-9.32v-1.99c-.28-.65-1.93-.26-3.27.2l.58-12.06.65.54c1.44,5.06,10.96,22.33,11.12,22.62Z"/>
  <path class="cls-22" d="M184.26,540.53c.18,0,9.32-.96,9.32-.96,0,0,5.54,10.89,5.17,13.54s-1.02,4.99-3.25,4.58-11.99.33-11.99.33l.74-17.48Z"/>
  <path class="cls-14" d="M183.89,539.81c.18,0,9.32-.96,9.32-.96,0,0,5.53,10.89,5.17,13.54-.36,2.65-1.02,4.99-3.25,4.58s-11.99.33-11.99.33l.74-17.48Z"/>
  <path class="cls-17" d="M190.78,534.7s8.39,4.51,8.57,5.89-4.27-.6-5.23-.84c-.63-.15-1.28-.25-1.93-.3l-6.41.17,5-4.92Z"/>
  <circle class="cls-22" cx="203.63" cy="497.43" r=".88"/>
  <circle class="cls-16" cx="203.63" cy="497.07" r=".88"/>
  <circle class="cls-22" cx="205.26" cy="535.66" r=".88"/>
  <circle class="cls-16" cx="205.26" cy="535.3" r=".88"/>
  <circle class="cls-22" cx="204.51" cy="516.55" r=".88"/>
  <circle class="cls-16" cx="204.51" cy="516.19" r=".88"/>
  <path class="cls-14" d="M224.87,539.26s.6.9,0,1.32.06,1.44.06,1.44c0,0-1.5.88-.84,1.67s.24,4.37.24,4.37l-1.81,2.99s.11,1.93.11,4.53c0,4.06-.24,9.77-1.56,12.38l.18,21.36s-6.32,2.31-11.61,1.61l-.78-34.28s1.14-19.44,1.57-23.17c.25-1.94.35-3.89.3-5.84,0,0-.18-5.83-.78-8.54,0,0-.65-11.73-.72-14.98-.03-1.55.05-6.09.14-10.4.1-4.71.22-9.16.22-9.16l-1.19-9.45s1.19-.12,1.55.36c.16.15.34.29.52.4h0c2.06,1.39,9.34,5.68,9.34,5.68,0,0,4.03,1.6,4.99,3.9.96,2.3,1.64,3.92,2.1,4.58s.72,3.73.72,3.73c0,0,1.39,5.66,2.47,6.62s1.87,7.05,1.87,7.05l-9.57,7.52s-.84,12.51-1.02,13,3.48,11.3,3.48,11.3Z"/>
  <path class="cls-14" d="M225.23,539.26s.6.9,0,1.32.06,1.44.06,1.44c0,0-1.49.89-.84,1.68s.24,4.37.24,4.37l-1.81,2.99s.11,1.93.12,4.53c0,4.06-.24,9.77-1.56,12.38l.18,21.36s-6.33,2.31-11.62,1.61l-.78-34.28s1.14-19.44,1.57-23.17c.25-1.94.35-3.89.3-5.84,0,0-.18-5.83-.78-8.54,0,0-.65-11.73-.72-14.98-.03-1.55.06-6.09.14-10.4.1-4.71.22-9.16.22-9.16l-1.58-9.57s1.58,0,1.94.49c.16.15.34.29.52.4h0c2.06,1.39,9.34,5.68,9.34,5.68,0,0,4.03,1.6,4.99,3.9s1.64,3.92,2.11,4.58.72,3.73.72,3.73c0,0,1.39,5.66,2.47,6.62s1.86,7.04,1.86,7.04l-9.57,7.52s-.84,12.51-1.02,13,3.5,11.3,3.5,11.3Z"/>
  <path class="cls-22" d="M213.77,487.36l.86,2.52-4.55,4.58c.1-4.71.22-9.16.22-9.16l-1.58-9.57s1.58,0,1.94.49c.16.15.33.29.52.4h0l3.87,11.15-1.29-.41Z"/>
  <path class="cls-14" d="M213.41,486.63l.87,2.52-4.55,4.58c.1-4.71.22-9.16.22-9.16l-1.58-9.57s1.58,0,1.94.49c.16.15.34.29.52.4h0l3.87,11.15-1.29-.41Z"/>
  <path class="cls-22" d="M213.41,461.72c0,1.18-.18,2.35-.55,3.47-.12.02-.25-.01-.35-.09-.09-2.94-1.53-5.71-3.32-8.06-.5-.71-1.11-1.34-1.8-1.86-.7-.53-1.57-.77-2.44-.69-.98.13-1.85.8-2.84.89-1.31.11-2.48-.8-3.78-.84-1.07.01-2.08.48-2.78,1.29-.68.81-1.19,1.75-1.49,2.76-.51,1.54-.79,3.14-.83,4.76-.02.92-.1,2.06-.96,2.4.13-1.36-.32-2.72-1.23-3.73l-.02-.02v-.27c-.11-6.18,4.82-11.28,11-11.38,6.18-.11,11.28,4.82,11.38,11,0,.13,0,.26,0,.38h0Z"/>
  <path class="cls-5" d="M206.85,443.95c-1.7-.8-3.63-.95-5.44-.43-.91.27-1.76.7-2.68.92-1.96.47-4.25-.04-5.94,1.11-.94.65-1.5,1.69-2.02,2.69l-1.31,2.49c-.71,1.36-1.43,2.75-1.73,4.25-.3,1.5-.12,3.18.83,4.39.69.88,1.72,1.43,2.47,2.26.91,1.02,1.36,2.37,1.23,3.73.85-.33.94-1.48.96-2.39.04-1.62.32-3.23.83-4.76.3-1.01.81-1.95,1.49-2.76.7-.81,1.71-1.28,2.78-1.29,1.31.05,2.48.95,3.78.84.98-.08,1.85-.75,2.84-.88.87-.08,1.74.16,2.44.69.69.52,1.3,1.15,1.8,1.86,1.79,2.35,3.23,5.11,3.32,8.06.37.27.9-.08,1.09-.5s.19-.91.42-1.31c.27-.46.78-.71,1.18-1.05,1.02-.88,1.28-2.36,1.24-3.71s-.3-2.71-.05-4.03c.15-.81.5-1.57.69-2.37s.21-1.7-.24-2.39c-.65-1.01-2.03-1.21-3.23-1.31-1.36-.12-2.58.03-3.45-1.12-.41-.6-.87-1.16-1.37-1.68-.17-.17-1.92-1.25-1.92-1.32Z"/>
  <path class="cls-22" d="M171.31,512.92l-3.42-6.32-1.08,9.75s.6,4.33.48,4.99,2.47,6.62,2.47,6.62c0,0,8.55,15.22,12.04,16.01l11.79-8.42-3.13-3.97s-1.08-.42-1.35,0c0,0-5.81-9.99-6.41-10.71s-.48-2.17-.48-2.17c0,0-.9-.96-.6-1.86s-1.74-4.03-1.74-4.03l1.86-1.74-10.42,1.86Z"/>
  <path class="cls-14" d="M168.07,505.88l-.9.72-1.08,9.75s.6,4.33.48,4.99,2.47,6.62,2.47,6.62c0,0,8.54,15.22,12.03,16.01l11.79-8.42-3.13-3.97s-1.08-.42-1.35,0c0,0-5.81-9.99-6.41-10.71s-.48-2.17-.48-2.17c0,0-.9-.96-.6-1.86s-1.75-4.03-1.75-4.03l1.86-1.74-12.93-5.17Z"/>
  <path class="cls-22" d="M224.08,544.07c.65.79.24,4.36.24,4.36l-1.81,2.99s.11,1.93.11,4.53l-3.04.95c-.95.3-1.96-.23-2.26-1.18-.06-.19-.09-.39-.08-.59l.52-16.88,7.08,2.71c-.6.42.06,1.45.06,1.45,0,0-1.5.88-.84,1.67Z"/>
  <path class="cls-14" d="M224.45,543.71c.65.79.24,4.37.24,4.37l-1.81,2.99s.11,1.93.12,4.53l-3.09.96c-.93.29-1.92-.23-2.21-1.16-.06-.19-.08-.38-.08-.58l.53-16.93,7.08,2.71c-.61.42.06,1.44.06,1.44,0,0-1.49.88-.84,1.67Z"/>
  <path class="cls-17" d="M226.79,535.66s-.48,3.07-1.68,3.25-1.74,4.97-2.94,4.8-.41-4.45-.36-5.28-1.31-4.27-.3-5.05,4.21,0,4.21,0l1.08,2.29Z"/>
  <path class="cls-22" d="M229.35,512.01l2.27-4.58s.9,3.49.9,5.35,1.26,2.05,1.26,2.05c0,0,1.38,1.64.65,2.83s-1.02,4.15-1.02,4.15c0,0,.24,5.65-.84,6.44s-1.31,2.65-1.31,2.65c0,0-1.99,3.55-1.93,4.39s-2.77,6.56-2.77,6.56c0,0,1.38-7.1-6.68-10.17,0,0-.06-2.41.54-3.07s1.54-.96.95-4.3-.17-7.33-.17-8.13,1.81-5.8,1.81-5.8l6.33,1.63Z"/>
  <path class="cls-14" d="M230.33,506.78l1.98.65s.91,3.49.91,5.35,1.26,2.05,1.26,2.05c0,0,1.38,1.64.65,2.83s-1.02,4.15-1.02,4.15c0,0,.24,5.65-.84,6.44s-1.32,2.65-1.32,2.65c0,0-1.99,3.55-1.92,4.39s-2.77,6.56-2.77,6.56c0,0,1.39-7.1-6.68-10.17,0,0-.06-2.41.54-3.07s1.54-.96.95-4.3c-.59-3.34-.17-7.33-.17-8.13s1.81-5.8,1.81-5.8l6.63-3.6Z"/>
  <path class="cls-22" d="M186.56,625.46s3.16-1.99,5.23-.54-5.23.54-5.23.54Z"/>
  <path class="cls-22" d="M211.11,619.32s2.8-.36,5.14,2.17c2.35,2.53-5.14-2.17-5.14-2.17Z"/>
  <g class="cls-23">
    <path class="cls-7" d="M215.2,461.15c-.4.35-.92.6-1.19,1.06-.23.4-.24.88-.42,1.31s-.72.77-1.09.5c-.09-2.94-1.54-5.71-3.32-8.06-.5-.71-1.1-1.34-1.8-1.86-.7-.53-1.57-.77-2.44-.69-.98.13-1.84.8-2.84.88-1.31.11-2.48-.79-3.78-.84-1.07.01-2.08.48-2.77,1.29-.68.81-1.19,1.74-1.49,2.76-.51,1.54-.79,3.14-.83,4.76-.02.91-.1,2.05-.95,2.39.02.24.02.48,0,.73.85-.33.94-1.48.96-2.39.04-1.62.32-3.23.83-4.76.3-1.01.81-1.95,1.49-2.76.7-.81,1.71-1.28,2.77-1.29,1.31.05,2.49.95,3.78.84.98-.08,1.85-.75,2.84-.88.87-.08,1.74.16,2.44.69.69.52,1.3,1.15,1.8,1.86,1.78,2.35,3.23,5.11,3.32,8.06.37.27.9-.08,1.09-.5s.19-.91.42-1.31c.27-.46.78-.71,1.19-1.05,1.02-.88,1.28-2.36,1.24-3.71v-.12c-.06,1.16-.37,2.35-1.24,3.1Z"/>
    <path class="cls-7" d="M191.05,460.92c-.75-.83-1.78-1.38-2.47-2.26-.58-.78-.91-1.71-.95-2.68-.1,1.21.24,2.42.95,3.4.69.88,1.72,1.43,2.47,2.26.72.81,1.16,1.84,1.23,2.92.1-1.33-.34-2.64-1.23-3.64Z"/>
    <path class="cls-7" d="M217.08,451.05c-.19.8-.54,1.56-.69,2.37-.09.54-.13,1.09-.1,1.64.01-.31.04-.62.1-.93.16-.81.5-1.57.69-2.37.11-.44.15-.9.11-1.35-.02.22-.06.43-.11.65Z"/>
  </g>
  <ellipse class="cls-2" cx="127.63" cy="633.64" rx="31.87" ry="5.12"/>
  <rect class="cls-6" x="126.61" y="535.59" width="2.05" height="46.17"/>
  <path class="cls-16" d="M141.54,581.62l-.13,2.08-.18,2.94-.08,1.22-.18,2.94-.08,1.22-.18,2.94-2.07,33.38c-.19,2.98-2.66,5.3-5.64,5.3h-10.75c-2.99,0-5.46-2.32-5.64-5.3l-2.06-33.41-.18-2.94-.08-1.22-.18-2.94-.08-1.22-.18-2.94-.13-2.08c-.09-1.62,1.15-3.01,2.77-3.11.06,0,.11,0,.17,0h21.98c1.61.01,2.91,1.33,2.9,2.95,0,.06,0,.12,0,.18Z"/>
  <polygon class="cls-21" points="141.41 583.7 141.23 586.63 114.03 586.63 113.84 583.7 141.41 583.7"/>
  <polygon class="cls-21" points="141.16 587.85 140.98 590.79 114.29 590.79 114.1 587.85 141.16 587.85"/>
  <polygon class="cls-21" points="140.9 592.02 140.72 594.95 114.54 594.95 114.36 592.02 140.9 592.02"/>
  <path class="cls-10" d="M110.71,552.89c11.94,8.64,16.93,22.15,16.93,22.15,0,0-14.39-.49-26.33-9.13-11.94-8.64-16.92-22.15-16.92-22.15,0,0,14.38.49,26.33,9.13Z"/>
  <path class="cls-24" d="M84.38,543.76s14.94,8.29,19.73,15.16c4.79,6.86,23.53,16.13,23.53,16.13"/>
  <path class="cls-10" d="M118.42,535.49c6.5,4.7,9.22,12.06,9.22,12.06,0,0-7.83-.27-14.33-4.97s-9.21-12.06-9.21-12.06c0,0,7.83.27,14.33,4.97Z"/>
  <path class="cls-24" d="M104.09,530.51s8.13,4.51,10.74,8.25c2.61,3.73,12.81,8.78,12.81,8.78"/>
  <path class="cls-10" d="M137.07,547.17c-7.47,8.21-9.05,18.93-9.05,18.93,0,0,10.53-2.58,17.99-10.79s9.05-18.93,9.05-18.93c0,0-10.52,2.59-17.99,10.79Z"/>
  <path class="cls-24" d="M155.07,536.38s-9.73,8.41-12.2,14.21-14.84,15.51-14.84,15.51"/>
  <path class="cls-15" d="M411.17,544.28s-5.4-26.86-3.33-30.21c0,0,.08-3.11-.05-7.07v-.45c.36.24.74.46,1.13.65,1.9.98,4.09,1.26,6.18.8l-1.64-1.82c-.39-.43-.8-.91-.89-1.48s.15-1.09.35-1.6c1.55-3.92,1.64-8.86-1.36-11.86-2.53-2.52-3.14-5.77-5.89-8.07-2-1.68-3.11-4.15-4.15-6.54-.88-2.02-1.77-4.05-2.27-6.19-.39-1.67-.55-3.4-1.09-5.03s-1.55-3.22-3.13-3.95c-.56-.26-1.19-.41-1.7-.75-.67-.45-1.08-1.19-1.57-1.84-2.48-3.27-10.77-1.34-14.69-.02-1.07.33-2.05.88-2.9,1.61l.04-.06s.07-.1.1-.15c-.43.35-.8.76-1.1,1.23-.57.91-.81,1.96-1.29,2.94-.58,1.16-3.78,4.4-2.4,5.71.1.09.21.16.33.21.52.22,1.09.27,1.64.16l-.06.14c-.47,1.15-.71,2.38-.71,3.63,0,5.37,4.43,9.73,9.9,9.73,1.03,0,2.05-.16,3.03-.47.02.12.04.25.07.37,0,.05.02.1.02.15h0l-.17.24s-.02-.03-.03-.04l-5.13,7.18c-.78.55-5.3,3.82-5.56,6.28-.27,2.69-.54,5.83-.54,5.83l-.04.67c-.45.38-1.05.54-1.64.44-1.6-.26-1.6,5.89-1.6,5.89,0,0-1.07.98-1.8.13s-2.67,2.03-2.67,2.03l-12.13.52h0l-.28.02-.65-2.02c-.15-.44-.62-.69-1.07-.55-.05.02-.1.04-.15.06l-.05.03-.09.06-.04.04s-.05.04-.07.07l-.04.05-.02.02h0c-.15.21-.2.48-.12.73l.56,1.74c-2.34.47-4.74,1.8-2.78,5.46l-9.9-1.83,3.2,2.69,16.53,3.41c-.22.39-.08.96.61,1.76,2.94,3.46,8.31,4.4,10.47,4.64.57,1.28,1.28,2.48,2.12,3.6l-.19,3.44s-5.47,26.25-6.47,27.58c.51-.57.97-1.18,1.38-1.82-1.59,5.39-3.8,12.77-4.39,13.88-.94,1.77-1.8,8.91-.74,9.37.33.14,1.26.07,2.6-.03v.59l-.06,22.43s.27,13.76-.47,15.07-.93,4.06-.93,4.06c0,0-2.94,5.43-5.28,7.61-.02.02-.03.03-.05.05l-.07-.51s-2.8,3.54-9,3.34c0,0-3.73,2.43,1.8,2.56s12.6-.2,12.6-.2c0,0,4.94-7.52,9.07-6.54v5.7h1.27v-5.79c1.19-.78,2-2.01,2.25-3.41.22-1.45-.34-2.91-1.48-3.84-.51-.46-.8-1.11-.81-1.79l-.05.04c0-.11-.03-.23-.04-.35-.36-2.94-.82-9.02.79-13.51,2.2-6.16,2.87-14.74,1.27-19.85-.52-1.63-.94-3.29-1.27-4.97-.04-.21-.08-.42-.11-.61,1.1.15,2.18.37,3.25.65,3.71,1.02,11.83,1.21,18.77,1.16.02.19.04.39.06.59.12,1.39.38,2.76.77,4.09.87,2.62,1.27,14.15,1.27,14.15,0,0,1.12,9.48.51,13.34-.33,2.15-.65,4.3-.84,6.47v.04s-1.84,5.23-3.18,8.07c-.03.07-.07.14-.1.21-.36.03-.71.11-1.05.23,0,0-1.8,3.6-3.6,4.19s-1.2,2.55,2.86,1.83c4.07-.72,10.2-1.31,10.2-1.31l.26-3.67,1.25-1.56-.33,3.66,1.33-.26-.18-4.45,2.04-2.56s2.47-2.2-1.2-6.52v.09c-.04-.06-.08-.13-.12-.19v-.02c-.61-.94-1.09-2.7-.21-5.82,1.6-5.63,2.53-10.74,2.53-10.74,0,0,3.58-13.69-.72-20.17h.19c-.44-.91-.75-1.88-.93-2.88-.02-.12-.04-.24-.06-.36,3.18-.18,6.31-.76,8.85-2,0-.01-1.54-32.51-2.81-37.68ZM370.76,521.61v.07l-.65.03.65-.1ZM368.52,521.93c-.11.02-.21.07-.29.14-.28.4-.46.86-.51,1.34l-1.02-.23s-.72-.15-1.75-.33l-.49-.49c1.34-.11,2.73-.27,4.06-.44Z"/>
  <polygon class="cls-11" points="402.28 633.18 401.89 637.81 403.2 637.55 403 632.52 402.28 633.18"/>
  <path class="cls-12" d="M372.51,611.17c-1.57,4.48-1.13,10.53-.78,13.46.13,1.09.25,1.75.25,1.75,0,0-2.35,5.36-2.55,5.56s-6.92,4.31-6.92,4.31l-4.7,2.74s-4.77-2.09-2.48-2.81c.47-.19.89-.47,1.23-.84,2.29-2.17,5.16-7.58,5.16-7.58,0,0,.2-2.74.92-4.05s.46-15.02.46-15.02l.06-22.35v-2.91l8.94.07c.06.99.19,1.97.39,2.94.32,1.67.74,3.33,1.25,4.96,1.58,5.1.92,13.64-1.23,19.78Z"/>
  <path class="cls-22" d="M371.99,626.38s-2.35,5.36-2.55,5.56-6.92,4.31-6.92,4.31l-4.7,2.74s-4.77-2.09-2.48-2.81c.47-.19.89-.47,1.23-.84l.2,1.43,1.57-.07,13.41-12.07c.12,1.08.24,1.74.24,1.74Z"/>
  <path class="cls-11" d="M371.82,624.95l-13.48,12.15-1.57.07-.33-2.29s-2.74,3.53-8.83,3.33c0,0-3.66,2.42,1.76,2.55,5.42.13,12.34-.2,12.34-.2,0,0,4.83-7.52,8.88-6.54v5.68h1.24v-5.73c1.17-.79,1.96-2.01,2.2-3.4.22-1.44-.33-2.89-1.44-3.82-.49-.46-.78-1.11-.78-1.79Z"/>
  <path class="cls-12" d="M403.53,618.16c-.87,3.11-.4,4.86.2,5.8v.02c.76,1.16,1.29,2.46,1.56,3.82l.05.29-6.14,8.94-3.33,1.31s-5.35-1.83-4.38-2.35c.25-.13.63-.81,1.07-1.75,1.31-2.83,3.11-8.05,3.11-8.05v-.04c.19-2.16.49-4.3.82-6.44.6-3.85-.5-13.3-.5-13.3,0,0-.39-11.49-1.24-14.1-.38-1.33-.64-2.69-.76-4.07-.18-1.64-.22-2.98-.22-2.98,0,0,3.53-4.91,9.99.39.52.42.97.92,1.35,1.47,4.46,6.35.87,20.34.87,20.34,0,0-.9,5.09-2.47,10.7Z"/>
  <path class="cls-22" d="M405.35,628.08l-6.14,8.94-3.33,1.31s-5.35-1.83-4.38-2.35c.25-.13.63-.81,1.07-1.75,2.27-.02,3.44,2.14,3.44,2.14l2.87-.46s3.79-7.44,4.64-7.9.13-3.4.13-3.4v-.75s.04.06.07.08v.02c.76,1.16,1.29,2.46,1.56,3.82l.06.29Z"/>
  <path class="cls-11" d="M396.21,636.57s-1.64-3-4.77-1.89c0,0-1.76,3.6-3.53,4.18s-1.17,2.54,2.81,1.83,9.99-1.31,9.99-1.31l.26-3.66,4.05-5.16s2.41-2.19-1.18-6.5v.75s.72,2.94-.13,3.4-4.62,7.9-4.62,7.9l-2.88.46Z"/>
  <path class="cls-22" d="M372.12,583.49c.06.99.19,1.97.39,2.94-3.68-.54-7.1-.27-9.34-.09v-2.91l8.95.07Z"/>
  <path class="cls-22" d="M405.48,587.93s-5.23.26-11.47.31c-.18-1.64-.22-2.98-.22-2.98,0,0,3.53-4.91,9.99.39.52.42.97.92,1.35,1.47.1.28.22.55.35.82Z"/>
  <path class="cls-11" d="M405.48,587.34s-22.92,1.11-29.91-.85c-6.99-1.96-13.91-.26-14.95-.72s-.2-7.57.72-9.34,5.94-19.59,5.94-19.59l4.83-25.2,5.09-1.4.36-.1,8.87-2.45,6.5-1.8s12.93,50.47,11.82,54.2c-.4,1.43-.47,2.92-.19,4.38.17.99.48,1.96.91,2.87Z"/>
  <path class="cls-13" d="M355.27,514.4s-4.58,4.91-1.11,7.64,5.75.26,5.75.26l-4.63-7.9Z"/>
  <path class="cls-22" d="M355.27,514.4s-4.58,4.91-1.11,7.64,5.75.26,5.75.26l-4.63-7.9Z"/>
  <path class="cls-12" d="M392.26,482.15s-.54.51-1.34,1.26c-1.15,1.08-2.86,2.65-4.37,3.97-2.09,1.82-3.82,3.16-3.2,2.02s.5-3.13.19-4.99c-.02-.12-.04-.25-.07-.37-.25-1.37-.59-2.72-1.01-4.04,0,0,3.38-4.37,5.25-6.09.7-.65,1.18-.92,1.21-.47.03.61.49,1.96,1.06,3.39.02.05.03.09.05.13.38.98.81,1.99,1.18,2.86.58,1.33,1.03,2.33,1.03,2.33Z"/>
  <path class="cls-22" d="M390.04,476.96c-.65,3.48-3.14,6.33-6.5,7.44-.26-1.49-.62-2.97-1.08-4.41,0,0,6.37-8.23,6.47-6.56.02.63.52,2.03,1.11,3.53Z"/>
  <path class="cls-22" d="M382.91,486.6l.82-1.16s.55,3.33,2.55,1.86,2.11,11.05,2.11,11.05l-2.16,32.22-15.57-.93.44-15.57,1.76-7.85,4.36-11.41,2.59-3.77,3.09-4.44Z"/>
  <path class="cls-11" d="M388.39,498.55l-1.96,29.14-.21,3.09-8.68-.52-.33-.02-6.54-.39.44-15.57,1.76-7.85,4.36-11.41,2.59-3.77,3.09-4.46.82-1.16s.55,3.33,2.55,1.86l.04-.03h0c1.96-1.24,2.05,11.1,2.05,11.1Z"/>
  <path class="cls-14" d="M373.1,503.7s-.78,1.64-2.35,1.37-1.57,5.89-1.57,5.89c0,0-1.04.98-1.76.13s-2.62,2.02-2.62,2.02l-11.89.52s5.29,2.42,4.25,9.73c0,0,17.96-1.11,18.54-2.81s-2.61-16.86-2.61-16.86Z"/>
  <path class="cls-18" d="M373.1,503.7s-.78,1.64-2.35,1.37-1.57,5.89-1.57,5.89c0,0-1.04.98-1.76.13s-2.62,2.02-2.62,2.02l-11.89.52s5.29,2.42,4.25,9.73c0,0,17.96-1.11,18.54-2.81s-2.61-16.86-2.61-16.86Z"/>
  <polygon class="cls-14" points="338.56 517.47 341.69 520.15 367.48 525.57 364.28 522.31 338.56 517.47"/>
  <path class="cls-14" d="M382.96,487.63c-.43.65-1.65,4-2.68,6.93-.85,2.44-1.57,4.58-1.57,4.58,0,0-1.66,10.84-2.52,12.8s-.39,9.6-.39,9.6l-3.17,18.87s-1.44,9.73-3.65,15.54c-2.19,5.72-4.62,8.4-4.7,8.49.98-1.33,6.33-27.47,6.33-27.47l1.77-32.97s.26-3.13.52-5.81,5.56-6.34,5.56-6.34l5.11-7.26c.51.69.17,1.88-.61,3.06Z"/>
  <path class="cls-12" d="M369.64,530.01s-7.52-.33-11.17-4.7,8.42-1.75,8.42-1.75l3.14.72-.39,5.73Z"/>
  <path class="cls-22" d="M404.76,580.09c-.4,1.43-.47,2.92-.19,4.38-8.21.58-16.98-1.64-16.98-1.64-1.64,1.5-5.94,3.72-5.94,3.72l-2.35-29.11c-1.5-3.92-2.09-24.49-2.09-24.49,0,0,.13-1.08.33-2.69,0-.04,0-.08.02-.12.59-4.5,1.75-12.96,2.32-14.1.78-1.57-2.41-5.75-2.41-5.75l1.46-12.41.18-1.5c3.07-1.37,5.42-5.75,5.42-5.75l1.81-3.16h0c1.96-1.26,2.06,11.08,2.06,11.08l-1.96,29.14,6.5-1.8s12.96,50.46,11.85,54.18Z"/>
  <path class="cls-14" d="M413.19,582.1c-8.94,4.44-25.2.33-25.2.33-1.64,1.5-5.94,3.72-5.94,3.72l-2.35-29.11c-1.5-3.92-2.09-24.49-2.09-24.49,0,0,1.89-15.34,2.68-16.91.23-.46.12-1.14-.15-1.87-1.33-3.49-1.83-7.24-1.43-10.95l.63-5.33.17-1.49c3.07-1.37,5.42-5.75,5.42-5.75l1.64-2.86,3.01-5.28,1.43-2.5.24.22,1.85,1.67s.78.65,1.96,1.64c2.56,2.16,6.99,5.96,9.27,8.28,2.01,2.05,2.64,10.01,2.83,16.01.12,3.95.05,7.04.05,7.04-2.02,3.33,3.27,30.09,3.27,30.09,1.23,5.17,2.73,37.55,2.73,37.55Z"/>
  <path class="cls-18" d="M396.02,490.18s-6.14,11.69-5.43,16.13c.71,4.44,2.74,9.47,1.76,10.64-.68.9-1.74,1.43-2.87,1.44-.98.07-3.6,1.89-3.6,2.09s-2.42.2-4.58,1.11-5.35,1.44-5.35,1.44c0,0-6.21-.2-6.79.39s-1.17,4.11.07,6.92,2.62,4.91,3.66,5.29,7.64-1.83,12.99-2.35c5.35-.52,11.17-4.77,11.17-4.77,0,0,6.4-2.29,7.52-6.14s-1.37-25.01-1.37-25.01c0,0-1.88-9.86-7.17-7.18Z"/>
  <path class="cls-18" d="M395.23,489.2s-6.14,11.69-5.42,16.13c.72,4.44,2.74,9.47,1.76,10.65-.68.9-1.74,1.43-2.87,1.44-.98.07-3.6,1.89-3.6,2.09s-2.42.2-4.58,1.11-5.35,1.44-5.35,1.44c0,0-6.21-.2-6.79.39s-1.18,4.11.07,6.92,2.62,4.91,3.66,5.29,7.64-1.83,12.99-2.35c5.35-.52,11.17-4.77,11.17-4.77,0,0,6.4-2.29,7.51-6.14,1.11-3.85-1.37-25.01-1.37-25.01,0,0-1.88-9.86-7.17-7.18Z"/>
  <path class="cls-14" d="M395.82,489.59s-6.14,11.69-5.42,16.13c.72,4.44,2.74,9.47,1.76,10.64-.68.9-1.74,1.44-2.87,1.44-.98.07-3.6,1.89-3.6,2.09s-2.41.2-4.58,1.11-5.35,1.44-5.35,1.44c0,0-6.21-.2-6.79.39s-1.17,4.11.07,6.92,2.62,4.91,3.66,5.29,7.64-1.83,12.99-2.35,11.17-4.77,11.17-4.77c0,0,6.4-2.29,7.52-6.14,1.12-3.85-1.35-25.01-1.35-25.01,0,0-1.91-9.84-7.2-7.18Z"/>
  <path class="cls-22" d="M395.69,520.94s-4.91-.98-3.2.65c1.71,1.64,1.7,3.07,3.79,3s-.59-3.66-.59-3.66Z"/>
  <path class="cls-22" d="M403.98,556.13s-2.22,1.5,2.02,4.96-2.02-4.96-2.02-4.96Z"/>
  <path class="cls-22" d="M399.75,568.47c0,.2-.78,7.2,2.15,8.94s-2.15-8.94-2.15-8.94Z"/>
  <path class="cls-12" d="M353.12,513.62c-2.37.08-7.48.8-4.83,5.75,2.34,4.38,6.29,1.45,8.5-.77-.54-2.07-1.86-3.85-3.67-4.98Z"/>
  <path class="cls-12" d="M356.82,518.56l.1-.1-.1.1Z"/>
  <path class="cls-22" d="M395.04,483.33c-2.51,1.72-4.62,3.17-5.03,3.47-1.13.83-3.27,5.73-4.65,8.23-1.1,2.01-4.68,2.53-6.03,2.66l.17-1.49c3.07-1.37,5.42-5.75,5.42-5.75l6.07-10.64,2.09,1.9s.78.65,1.96,1.64Z"/>
  <path class="cls-8" d="M395.04,483.14c-2.51,1.72-4.62,3.17-5.03,3.47-1.13.83-3.27,5.73-4.65,8.23-1.1,2.01-4.68,2.53-6.03,2.66l.17-1.49c3.07-1.37,5.42-5.75,5.42-5.75l6.07-10.64,2.09,1.89s.78.65,1.96,1.64Z"/>
  <path class="cls-12" d="M390.2,474.8c0,1.96-.59,3.88-1.71,5.5-3.04,4.41-9.07,5.53-13.49,2.5-4.41-3.04-5.53-9.07-2.5-13.49,3.04-4.41,9.07-5.53,13.49-2.5,2.63,1.81,4.2,4.8,4.2,7.99Z"/>
  <path class="cls-22" d="M407.13,507.43c-1.33-.82-2.41-1.98-3.13-3.36-.55-1.08-.91-2.33-1.84-3.09-.84-.69-1.96-.85-3.01-1.16-3.44-1.02-6.33-4.16-6.43-7.74-.05-1.69.47-3.37.24-5.04-.14-.95-.51-1.84-1.09-2.6-.29-.36-.6-.7-.95-1.02-.46-.43-.94-.85-1.36-1.31-.26-.28-.49-.6-.69-.93-.16-.27-.28-.57-.38-.87-.65-2-.06-4.38-.78-6.4l-.04-.11c-.27-.72-.82-1.44-1.59-1.49s-1.43.58-2.16.87c-1.53.6-3.19-.42-4.47-1.45s-2.72-2.21-4.35-1.99c-1.08.15-1.93.89-2.92,1.27-.22.09-.45.15-.69.2,1.99-4.97,7.64-7.38,12.61-5.39,3.68,1.48,6.09,5.04,6.09,9.01,0,.68-.07,1.36-.21,2.02.02.05.03.09.05.13.38.98.81,1.99,1.18,2.86l1.85,1.67s.78.65,1.96,1.64c2.56,2.16,6.99,5.96,9.27,8.28,2.01,2.05,2.64,10.01,2.83,16.01Z"/>
  <path class="cls-20" d="M372.08,465.02c.47-.95.7-2.02,1.26-2.92.82-1.31,2.25-2.15,3.73-2.65,3.84-1.32,11.96-3.25,14.39,0,.48.65.87,1.38,1.53,1.83.5.34,1.11.49,1.66.75,1.55.73,2.53,2.31,3.06,3.92s.68,3.35,1.07,5.01c.49,2.14,1.36,4.16,2.22,6.17,1.02,2.37,2.1,4.84,4.06,6.51,2.68,2.29,3.27,5.53,5.76,8.04,2.94,2.98,2.85,7.9,1.33,11.81-.2.51-.43,1.05-.35,1.6s.48,1.04.87,1.48l1.61,1.82c-3.81.92-8.11-1.07-9.89-4.56-.55-1.08-.91-2.32-1.84-3.09-.84-.69-1.96-.85-3.01-1.16-3.44-1.02-6.33-4.16-6.43-7.75-.05-1.68.47-3.37.24-5.04-.13-.95-.51-1.85-1.1-2.62-.9-1.17-2.26-1.96-2.99-3.27-1.24-2.19-.3-5.03-1.19-7.38-.27-.72-.82-1.44-1.59-1.49s-1.43.58-2.16.87c-1.53.6-3.19-.42-4.46-1.45s-2.72-2.21-4.35-1.98c-1.08.15-1.92.88-2.91,1.27-.73.28-2.22.53-2.86-.09-1.35-1.25,1.78-4.47,2.35-5.64Z"/>
  <path class="cls-22" d="M405.31,502.76c-.55-1.08-.91-2.32-1.84-3.09-.84-.69-1.96-.85-3.01-1.16-3.44-1.02-6.32-4.16-6.43-7.74-.05-1.68.47-3.37.24-5.04-.14-.95-.51-1.84-1.1-2.6-.9-1.17-2.26-1.96-2.99-3.27-1.24-2.18-.3-5.03-1.19-7.38-.27-.72-.82-1.44-1.59-1.49s-1.43.59-2.16.87c-1.53.6-3.19-.42-4.46-1.45s-2.72-2.21-4.35-1.99c-1.08.15-1.93.89-2.91,1.27-.73.28-2.22.54-2.86-.08-1.35-1.31,1.79-4.53,2.35-5.69.47-.96.7-2.02,1.26-2.92.03-.05.06-.1.09-.15-.42.35-.78.76-1.08,1.22-.56.9-.79,1.96-1.26,2.92-.57,1.16-3.7,4.39-2.35,5.69.65.62,2.13.37,2.86.09.98-.38,1.84-1.12,2.91-1.27,1.64-.23,3.07.95,4.35,1.98s2.94,2.05,4.47,1.45c.73-.28,1.37-.93,2.16-.87s1.31.78,1.59,1.49c.89,2.35-.05,5.19,1.19,7.38.73,1.29,2.09,2.09,2.99,3.27.59.76.96,1.66,1.1,2.62.24,1.67-.29,3.35-.24,5.04.11,3.6,2.99,6.73,6.43,7.75,1.04.31,2.17.47,3.01,1.16.94.77,1.31,2.01,1.84,3.09,1.77,3.49,6.08,5.48,9.89,4.56l-.76-.86c-3.3.05-6.64-1.83-8.15-4.8Z"/>
  <path class="cls-22" d="M382.76,487.83c-.43.65-1.65,4-2.68,6.93-.96-.37-1.83-2.75-1.83-2.75l5.11-7.27c.52.72.18,1.91-.6,3.09Z"/>
  <path class="cls-8" d="M382.96,487.63c-.43.65-1.65,4-2.68,6.93-.96-.37-1.83-2.75-1.83-2.75l5.11-7.26c.52.72.18,1.91-.6,3.09Z"/>
  <path class="cls-9" d="M353.25,521.05l-2.83-8.93c-.14-.44.1-.91.54-1.05,0,0,0,0,0,0h0c.44-.14.91.11,1.05.54l2.83,8.92-.28,1.87-1.31-1.35Z"/>
  <path class="cls-19" d="M350.69,511.33h0c.44-.14.91.1,1.05.54l2.83,8.92-.21,1.4.21.22.28-1.87-2.85-8.92c-.14-.44-.61-.68-1.05-.54h0c-.18.06-.33.17-.43.33.06-.03.11-.05.17-.08Z"/>
  <polygon class="cls-1" points="353.25 521.05 354.84 520.54 354.61 522.07 354.56 522.41 354.1 521.93 353.25 521.05"/>
  <path class="cls-3" d="M354.1,521.93s.06-.06.1-.09c.05-.03.11-.03.15,0,.02.03.04.06.06.09.04.07.12.12.2.13l-.05.33-.46-.46Z"/>
  <path class="cls-12" d="M350.41,515.29s5.68-.03,4.34,2.38-3.43,2.71-3.43,2.71l-.92-5.09Z"/>
  <path class="cls-10" d="M315.07,406.82h-.25c-9.76,0-18.39,5.16-23.35,12.78-4.96-7.62-13.6-12.78-23.35-12.78h-.25c-15.24.15-27.53,12.54-27.53,27.78,0,9.1,3.98,22,11.75,32.62,14.8,20.23,39.38,37.94,39.38,37.94,0,0,24.58-17.7,39.38-37.94,7.77-10.62,11.75-23.52,11.75-32.62,0-15.24-12.29-27.64-27.53-27.78ZM311.56,468.78c-2.27,0-4.31-1.41-5.12-3.54h-5.83c-.79,0-1.49-.51-1.74-1.26l-1.79-5.4-5.67,19.82c-.23.78-.94,1.32-1.76,1.32h-.11c-.85-.04-1.56-.67-1.7-1.52l-5.84-35.15-4.27,20.8c-.2.81-.93,1.38-1.77,1.38h-8.22c-1.01.04-1.86-.74-1.9-1.75-.04-1.01.74-1.86,1.75-1.9.05,0,.1,0,.15,0h6.78l6.05-27.97c.24-.99,1.23-1.59,2.21-1.36.72.17,1.27.77,1.39,1.51l5.97,35.86,5.08-17.73c.22-.77.91-1.3,1.71-1.31h.04c.79,0,1.49.51,1.73,1.26l3.24,9.75h4.44c.95-2.88,4.04-4.44,6.92-3.49,2.88.95,4.44,4.04,3.49,6.92-.74,2.25-2.84,3.77-5.21,3.77h0Z"/>
</svg>