<?xml version="1.0" encoding="UTF-8"?>
<svg id="Layer_2" data-name="Layer 2" xmlns="http://www.w3.org/2000/svg" viewBox="0 0 1057.51 287.68">
  <defs>
    <style>
      .cls-1 {
        letter-spacing: -.04em;
      }

      .cls-2 {
        fill: none;
        stroke: #008c44;
        stroke-miterlimit: 10;
        stroke-width: 12.49px;
      }

      .cls-3 {
        letter-spacing: -.03em;
      }

      .cls-4 {
        fill: #008c44;
        font-family: Outfit-Black, Outfit;
        font-size: 105.13px;
        font-variation-settings: 'wght' 900;
        font-weight: 800;
      }
    </style>
  </defs>
  <g id="Layer_1-2" data-name="Layer 1">
    <g>
      <path class="cls-2" d="M116.44,193.69c1.4,2.89,4.33,4.72,7.54,4.72h42.26c4.65,0,8.07,4.25,7.18,8.72-.07.33-.13.67-.14,1.01l-3.02,56.27c-.6,11.11-11.04,19.01-21.9,16.57-17.22-3.87-38.47-8.39-48.79-10.52-30.79-6.37-59.88-5.66-86.9-8.44-3.63-.37-6.43-4-6.43-8.35V33.06c0-4.59,3.1-8.32,6.95-8.38,21.69-.33,47.34,1.25,75.76,6.92,28.28,5.64,53.04,14.09,73.81,22.98l-.15.31-17.71,36.58c-.85,1.77.21,3.98,1.93,3.98,1.8,0,2.93,2.33,2.02,4.19l-17.2,35.53c-.9,1.86.22,4.19,2.03,4.19h1.45c1.8,0,2.93,2.33,2.03,4.19l-20.74,42.85c-1.12,2.31-1.12,5,0,7.3h0Z"/>
      <path class="cls-2" d="M248.06,193.69c1.12-2.3,1.11-4.99,0-7.3l-20.74-42.86c-.9-1.86.22-4.19,2.02-4.19h1.46c1.8,0,2.93-2.32,2.02-4.19l-17.2-35.53c-.9-1.86.22-4.19,2.03-4.19s2.78-2.21,1.92-3.98l-17.71-36.58-.14-.3c20.77-8.91,45.53-17.35,73.8-22.99,28.43-5.67,54.08-7.25,75.76-6.92,3.85.06,6.95,3.79,6.95,8.38v220.63c0,4.35-2.79,7.97-6.42,8.35-27.02,2.78-56.11,2.07-86.9,8.44-10.31,2.13-31.57,6.65-48.78,10.52-10.85,2.44-21.3-5.46-21.9-16.57l-3.05-56.78c-1.25-4.65,2.25-9.22,7.06-9.22h42.27c3.21,0,6.14-1.84,7.54-4.73h0Z"/>
      <polyline class="cls-2" points="162.77 54.59 162.76 54.58 182.25 14.34 201.73 54.59"/>
    </g>
    <text class="cls-4" transform="translate(413.68 115.5)"><tspan x="0" y="0">CEMA</tspan><tspan class="cls-1" x="311.51" y="0">R</tspan><tspan class="cls-3" x="378.69" y="0">A</tspan><tspan x="455.12" y="0"> </tspan><tspan x="0" y="126.16">EDUCATION</tspan></text>
  </g>
</svg>