<?xml version="1.0" encoding="UTF-8"?>
<svg id="Layer_2" data-name="Layer 2" xmlns="http://www.w3.org/2000/svg" viewBox="0 0 1051.3 287.68">
  <defs>
    <style>
      .cls-1 {
        fill: #008c44;
        stroke-width: 0px;
      }
    </style>
  </defs>
  <g id="Layer_1-2" data-name="Layer 1">
    <g>
      <path class="cls-1" d="M152.32,287.68c-1.78,0-3.57-.2-5.34-.59-17.31-3.89-38.6-8.41-48.68-10.5-19.84-4.1-39.06-5.21-57.64-6.27-9.91-.57-19.28-1.11-28.63-2.07-6.86-.71-12.03-6.97-12.03-14.56V33.06c0-8.08,5.75-14.51,13.1-14.62,25.78-.38,51.7,1.98,77.08,7.04,25.44,5.08,50.69,12.94,75.05,23.37l6.02,2.58-3.01,6.2-16.18,33.43c.75.6,1.42,1.35,1.95,2.2,1.7,2.72,1.88,6.22.47,9.12l-15.37,31.74c1.28.7,2.38,1.73,3.2,3.03,1.7,2.72,1.89,6.21.49,9.11l-20.75,42.85c-.29.59-.29,1.27,0,1.86.35.73,1.11,1.2,1.92,1.2h42.26c4.08,0,7.9,1.8,10.48,4.95,2.59,3.15,3.62,7.24,2.83,11.23-.02.08-.03.15-.04.22l-3.01,56.17c-.38,7.14-3.87,13.7-9.57,18.02-4.25,3.22-9.38,4.91-14.6,4.91ZM18.6,30.89c-1.77,0-3.54.01-5.31.04-.12.06-.79.76-.79,2.13v220.63c0,1.26.62,2.04.87,2.14,9.03.92,18.25,1.46,28.02,2.02,19.03,1.09,38.71,2.22,59.45,6.51,10.12,2.09,31.5,6.63,48.89,10.54,3.38.76,6.9,0,9.65-2.09,2.76-2.09,4.45-5.27,4.63-8.72l3.02-56.27c.04-.75.16-1.41.25-1.89.08-.39-.08-.69-.23-.87-.21-.26-.49-.39-.83-.39h-42.26c-5.57,0-10.73-3.24-13.16-8.25h0c-1.96-4.05-1.96-8.7,0-12.75l18.92-39.08c-1.28-.7-2.38-1.73-3.2-3.03-1.71-2.71-1.89-6.21-.49-9.11l15.73-32.5c-.78-.61-1.46-1.36-2.01-2.23-1.68-2.67-1.86-6.1-.48-8.96l14.98-30.95c-21.68-8.84-44.03-15.59-66.53-20.07-22.77-4.54-46-6.84-69.14-6.84ZM146.83,101.7h0,0ZM143.24,96.92h0s0,0,0,0ZM146.84,89.21h0,0Z"/>
      <path class="cls-1" d="M212.17,287.68c-5.23,0-10.35-1.69-14.61-4.91-5.7-4.31-9.18-10.88-9.56-18.01l-3.02-56.22c-.83-3.88.07-7.87,2.5-11.05,2.59-3.38,6.51-5.31,10.76-5.31h42.27c.81,0,1.56-.47,1.92-1.2h0c.29-.59.29-1.27,0-1.86l-20.74-42.85c-1.41-2.89-1.22-6.38.48-9.11.82-1.31,1.92-2.34,3.2-3.04l-15.37-31.76c-1.41-2.9-1.22-6.39.49-9.11.54-.85,1.2-1.59,1.95-2.2l-16.34-33.77-2.8-5.87,5.98-2.56c24.31-10.42,49.56-18.29,75.04-23.37,25.38-5.06,51.32-7.43,77.08-7.04,7.35.11,13.1,6.54,13.1,14.62v220.63c0,7.59-5.17,13.85-12.03,14.56-9.36.96-18.72,1.5-28.63,2.07-18.58,1.07-37.8,2.17-57.64,6.27-10.14,2.1-31.48,6.63-48.68,10.5-1.77.4-3.56.59-5.34.59ZM198.25,204.67c-.43,0-.7.23-.85.42-.15.19-.3.51-.18.93l.17.63,3.08,57.44c.19,3.46,1.87,6.63,4.63,8.72,2.76,2.09,6.28,2.85,9.66,2.09,17.27-3.89,38.7-8.43,48.89-10.54,20.74-4.29,40.42-5.42,59.46-6.51,9.77-.56,19-1.09,28.07-2.03.14-.07.82-.77.82-2.13V33.06c0-1.37-.67-2.06-.87-2.14-24.82-.36-49.86,1.92-74.38,6.81-22.54,4.5-44.89,11.24-66.53,20.08l14.98,30.95c1.38,2.84,1.2,6.28-.47,8.95-.55.88-1.23,1.63-2.01,2.24l15.73,32.49c1.41,2.9,1.22,6.39-.48,9.11-.82,1.31-1.92,2.34-3.2,3.04l18.92,39.09c1.96,4.05,1.96,8.69,0,12.74-2.43,5.01-7.59,8.25-13.16,8.25h-42.27ZM217.67,101.7h0,0ZM213.96,94.2s0,0,0,0h0ZM217.66,89.21h0,0Z"/>
      <polygon class="cls-1" points="158.35 59.01 155.21 55.86 182.25 0 207.35 51.87 196.11 57.31 182.25 28.67 168.39 57.31 162.77 54.59 158.35 59.01"/>
    </g>
    <g>
      <path class="cls-1" d="M456.88,116.77c-5.75,0-11.09-.96-16.03-2.89s-9.27-4.64-12.98-8.15c-3.72-3.5-6.61-7.62-8.67-12.35-2.07-4.73-3.1-9.86-3.1-15.4s1.03-10.76,3.1-15.46c2.07-4.7,4.94-8.76,8.62-12.2,3.68-3.43,7.97-6.11,12.88-8.04,4.91-1.93,10.23-2.89,15.98-2.89s11.14.91,15.98,2.73c4.84,1.82,9.04,4.35,12.62,7.57l-13.98,14.09c-1.68-1.82-3.73-3.26-6.15-4.31-2.42-1.05-5.24-1.58-8.46-1.58-2.8,0-5.38.46-7.73,1.37-2.35.91-4.36,2.24-6.04,4-1.68,1.75-3,3.87-3.94,6.36-.95,2.49-1.42,5.27-1.42,8.36s.47,5.98,1.42,8.46c.95,2.49,2.26,4.61,3.94,6.36,1.68,1.75,3.7,3.1,6.04,4.05,2.35.95,4.92,1.42,7.73,1.42,3.15,0,5.97-.49,8.46-1.47,2.49-.98,4.64-2.42,6.47-4.31l14.09,14.09c-3.72,3.22-7.88,5.73-12.51,7.52-4.63,1.79-10.06,2.68-16.3,2.68Z"/>
      <path class="cls-1" d="M492.95,115.5V40.65h21.03v74.86h-21.03ZM509.98,58.1v-17.45h39.53v17.45h-39.53ZM509.98,85.86v-17.03h36.27v17.03h-36.27ZM509.98,115.5v-17.45h40.16v17.45h-40.16Z"/>
      <path class="cls-1" d="M560.12,115.5V40.65h15.24l27.86,40.79h-6.62l27.75-40.79h15.24v74.86h-20.82v-40.37l3.05.84-15.24,21.87h-13.46l-15.14-21.87,2.94-.84v40.37h-20.82Z"/>
      <path class="cls-1" d="M646.44,115.5l28.49-74.86h21.45l28.18,74.86h-21.87l-20.92-63.61h7.57l-21.45,63.61h-21.45ZM664.94,102.89v-16.4h41.84v16.4h-41.84Z"/>
      <path class="cls-1" d="M731.39,115.5V40.65h21.03v74.86h-21.03ZM748.42,85.65v-14.51h12.72c2.87,0,5.06-.7,6.57-2.1,1.51-1.4,2.26-3.26,2.26-5.57s-.75-4.17-2.26-5.57c-1.51-1.4-3.7-2.1-6.57-2.1h-12.72v-15.14h16.09c5.19,0,9.74.95,13.67,2.84,3.92,1.89,7.01,4.52,9.25,7.88,2.24,3.36,3.36,7.29,3.36,11.78s-1.14,8.41-3.42,11.77c-2.28,3.36-5.45,5.99-9.51,7.89-4.07,1.89-8.87,2.84-14.4,2.84h-15.03ZM771.76,115.5l-20.4-31.96,18.92-4.1,25.34,36.06h-23.87Z"/>
      <path class="cls-1" d="M792.99,115.5l28.49-74.86h21.45l28.18,74.86h-21.87l-20.92-63.61h7.57l-21.45,63.61h-21.45ZM811.5,102.89v-16.4h41.84v16.4h-41.84Z"/>
      <path class="cls-1" d="M419.88,241.67v-74.86h21.03v74.86h-21.03ZM436.91,184.26v-17.45h39.53v17.45h-39.53ZM436.91,212.02v-17.03h36.27v17.03h-36.27ZM436.91,241.67v-17.45h40.16v17.45h-40.16Z"/>
      <path class="cls-1" d="M487.06,241.67v-74.86h21.03v74.86h-21.03ZM501.15,241.67v-17.87h17.45c3.92,0,7.32-.72,10.2-2.16,2.87-1.44,5.08-3.63,6.62-6.57,1.54-2.94,2.31-6.59,2.31-10.93s-.79-7.95-2.37-10.83c-1.58-2.87-3.79-5.03-6.62-6.47-2.84-1.44-6.22-2.16-10.15-2.16h-18.5v-17.87h18.5c5.89,0,11.3.88,16.24,2.63,4.94,1.75,9.23,4.28,12.88,7.57,3.64,3.29,6.47,7.24,8.46,11.83,2,4.59,3,9.73,3,15.4s-1,10.81-3,15.4c-2,4.59-4.82,8.53-8.46,11.83-3.65,3.3-7.92,5.82-12.83,7.57-4.91,1.75-10.27,2.63-16.09,2.63h-17.66Z"/>
      <path class="cls-1" d="M599.23,242.93c-6.59,0-12.34-1.35-17.24-4.05-4.91-2.7-8.73-6.43-11.46-11.2-2.73-4.77-4.1-10.23-4.1-16.4v-44.47h21.03v46.36c0,2.38.53,4.42,1.58,6.1,1.05,1.68,2.47,2.96,4.26,3.84,1.79.88,3.77,1.31,5.94,1.31s4.22-.44,5.94-1.31c1.72-.88,3.07-2.14,4.05-3.79.98-1.65,1.47-3.66,1.47-6.04v-46.47h21.13v44.58c0,6.17-1.35,11.62-4.05,16.35-2.7,4.73-6.48,8.45-11.35,11.14-4.87,2.7-10.6,4.05-17.19,4.05Z"/>
      <path class="cls-1" d="M679.87,242.93c-5.75,0-11.09-.96-16.03-2.89s-9.27-4.64-12.98-8.15c-3.72-3.5-6.61-7.62-8.67-12.35-2.07-4.73-3.1-9.86-3.1-15.4s1.03-10.76,3.1-15.46c2.07-4.7,4.94-8.76,8.62-12.2,3.68-3.43,7.97-6.11,12.88-8.04,4.91-1.93,10.23-2.89,15.98-2.89s11.14.91,15.98,2.73c4.84,1.82,9.04,4.35,12.62,7.57l-13.98,14.09c-1.68-1.82-3.73-3.26-6.15-4.31-2.42-1.05-5.24-1.58-8.46-1.58-2.8,0-5.38.46-7.73,1.37-2.35.91-4.36,2.24-6.04,4-1.68,1.75-3,3.87-3.94,6.36-.95,2.49-1.42,5.27-1.42,8.36s.47,5.98,1.42,8.46c.95,2.49,2.26,4.61,3.94,6.36,1.68,1.75,3.7,3.1,6.04,4.05,2.35.95,4.92,1.42,7.73,1.42,3.15,0,5.97-.49,8.46-1.47,2.49-.98,4.64-2.42,6.47-4.31l14.09,14.09c-3.72,3.22-7.88,5.73-12.51,7.52-4.63,1.79-10.06,2.68-16.3,2.68Z"/>
      <path class="cls-1" d="M710.36,241.67l28.49-74.86h21.45l28.18,74.86h-21.87l-20.92-63.61h7.57l-21.45,63.61h-21.45ZM728.86,229.05v-16.4h41.84v16.4h-41.84Z"/>
      <path class="cls-1" d="M790.78,184.68v-17.87h65.92v17.87h-65.92ZM813.18,241.67v-74.86h21.03v74.86h-21.03Z"/>
      <path class="cls-1" d="M864.59,241.67v-74.86h21.03v74.86h-21.03Z"/>
      <path class="cls-1" d="M935.03,243.14c-5.89,0-11.3-.98-16.24-2.94-4.94-1.96-9.25-4.7-12.93-8.2-3.68-3.5-6.54-7.64-8.57-12.41-2.03-4.77-3.05-9.92-3.05-15.45s1-10.76,3-15.46c2-4.7,4.82-8.79,8.46-12.3,3.64-3.5,7.94-6.22,12.88-8.15,4.94-1.93,10.36-2.89,16.24-2.89s11.3.96,16.24,2.89c4.94,1.93,9.23,4.64,12.88,8.15,3.64,3.51,6.46,7.62,8.46,12.35,2,4.73,3,9.9,3,15.51s-1,10.67-3,15.4c-2,4.73-4.82,8.87-8.46,12.41-3.65,3.54-7.92,6.27-12.83,8.2-4.91,1.93-10.27,2.89-16.08,2.89ZM934.82,224.63c3.92,0,7.32-.84,10.2-2.52,2.87-1.68,5.08-4.06,6.62-7.15,1.54-3.08,2.31-6.69,2.31-10.83,0-3.08-.44-5.87-1.31-8.36-.88-2.49-2.16-4.63-3.84-6.41-1.68-1.79-3.7-3.15-6.04-4.1-2.35-.95-4.99-1.42-7.94-1.42-3.93,0-7.33.82-10.2,2.47-2.88,1.65-5.08,4-6.62,7.04-1.54,3.05-2.31,6.64-2.31,10.78,0,3.15.44,5.99,1.31,8.52.88,2.52,2.16,4.68,3.84,6.47,1.68,1.79,3.7,3.15,6.05,4.1,2.35.95,4.99,1.42,7.94,1.42Z"/>
      <path class="cls-1" d="M984.02,241.67v-74.86h14.72l6.31,15.77v59.08h-21.03ZM1035.53,241.67l-43.42-54.56,6.62-20.29,43.42,54.56-6.62,20.29ZM1035.53,241.67l-5.26-16.61v-58.24h21.03v74.86h-15.77Z"/>
    </g>
  </g>
</svg>