<?xml version="1.0" encoding="UTF-8"?>
<svg id="Layer_2" data-name="Layer 2" xmlns="http://www.w3.org/2000/svg" viewBox="0 0 352.47 162.37">
  <defs>
    <style>
      .cls-1 {
        fill: #008c44;
        stroke-width: 0px;
      }
    </style>
  </defs>
  <g id="Layer_1-2" data-name="Layer 1">
    <g>
      <path class="cls-1" d="M67.25,141.12c-3.36,0-6.48-.58-9.34-1.74-2.87-1.16-5.37-2.77-7.5-4.83-2.14-2.05-3.8-4.47-4.98-7.26-1.18-2.78-1.77-5.81-1.77-9.09s.58-6.24,1.74-9c1.16-2.76,2.81-5.16,4.95-7.19,2.14-2.03,4.63-3.63,7.47-4.79,2.84-1.16,5.95-1.74,9.31-1.74s6.62.55,9.4,1.65c2.78,1.1,5.23,2.61,7.35,4.52l-7.47,7.54c-1.08-1.16-2.39-2.08-3.92-2.74-1.54-.66-3.32-1-5.36-1-1.74,0-3.37.3-4.89.9s-2.8,1.46-3.86,2.58-1.89,2.47-2.49,4.05c-.6,1.58-.9,3.32-.9,5.23s.3,3.78.9,5.36c.6,1.58,1.43,2.93,2.49,4.05s2.34,1.99,3.83,2.62c1.5.62,3.13.93,4.92.93,2.08,0,3.89-.32,5.45-.96,1.56-.64,2.92-1.55,4.08-2.71l7.47,7.47c-2.16,1.91-4.6,3.42-7.32,4.51-2.72,1.1-5.91,1.65-9.56,1.65Z"/>
      <path class="cls-1" d="M88.92,140.37v-44.16h11.15v44.16h-11.15ZM97.77,105.62v-9.4h23.6v9.4h-23.6ZM97.77,122.43v-9.16h21.67v9.16h-21.67ZM97.77,140.37v-9.4h23.92v9.4h-23.92Z"/>
      <path class="cls-1" d="M127.97,140.37v-44.16h8.03l16.88,25.6h-3.67l16.82-25.6h8.03v44.16h-11.08v-25.66l1.74.44-10.03,15.26h-7.35l-9.96-15.26,1.68-.44v25.66h-11.08Z"/>
      <path class="cls-1" d="M178.6,140.37l17.19-44.16h10.77l17,44.16h-11.71l-12.77-37.12h3.99l-12.95,37.12h-11.52ZM189.07,132.65v-8.84h24.41v8.84h-24.41Z"/>
      <path class="cls-1" d="M228.11,140.37v-44.16h11.15v44.16h-11.15ZM236.96,122.5v-7.91h8.41c1.79,0,3.17-.46,4.14-1.37s1.46-2.14,1.46-3.67-.49-2.71-1.46-3.64c-.98-.93-2.36-1.4-4.14-1.4h-8.41v-8.28h10.03c2.95,0,5.55.56,7.82,1.68,2.26,1.12,4.04,2.66,5.33,4.61,1.29,1.95,1.93,4.23,1.93,6.85s-.65,4.96-1.96,6.91c-1.31,1.95-3.12,3.48-5.45,4.58-2.33,1.1-5.04,1.65-8.16,1.65h-9.53ZM252.03,140.37l-12.83-18.93,10.09-2.43,15.63,21.36h-12.89Z"/>
      <path class="cls-1" d="M263.86,140.37l17.19-44.16h10.77l17,44.16h-11.71l-12.77-37.12h3.99l-12.95,37.12h-11.52ZM274.32,132.65v-8.84h24.41v8.84h-24.41Z"/>
    </g>
    <g>
      <path class="cls-1" d="M168.05,78.67c-.49,0-.98-.05-1.46-.16-4.74-1.07-10.56-2.3-13.31-2.87-5.43-1.12-10.68-1.42-15.76-1.72-2.71-.16-5.27-.3-7.83-.57-1.88-.19-3.29-1.91-3.29-3.98V9.04c0-2.21,1.57-3.97,3.58-4,7.05-.1,14.14.54,21.08,1.93,6.96,1.39,13.86,3.54,20.52,6.39l1.65.71-.82,1.7-4.42,9.14c.21.17.39.37.53.6.47.74.52,1.7.13,2.49l-4.2,8.68c.35.19.65.47.88.83.47.74.52,1.7.13,2.49l-5.67,11.72c-.08.16-.08.35,0,.51.1.2.3.33.52.33h11.56c1.11,0,2.16.49,2.87,1.35.71.86.99,1.98.77,3.07,0,.02,0,.04-.01.06l-.82,15.36c-.11,1.95-1.06,3.75-2.62,4.93-1.16.88-2.56,1.34-3.99,1.34ZM131.48,8.45c-.48,0-.97,0-1.45.01-.03.02-.22.21-.22.58v60.34c0,.35.17.56.24.59,2.47.25,4.99.4,7.66.55,5.21.3,10.59.61,16.26,1.78,2.77.57,8.62,1.81,13.37,2.88.92.21,1.89,0,2.64-.57.75-.57,1.22-1.44,1.27-2.39l.83-15.39c.01-.21.04-.38.07-.52.02-.11-.02-.19-.06-.24-.06-.07-.13-.11-.23-.11h-11.56c-1.52,0-2.94-.89-3.6-2.26h0c-.54-1.11-.54-2.38,0-3.49l5.17-10.69c-.35-.19-.65-.47-.87-.83-.47-.74-.52-1.7-.13-2.49l4.3-8.89c-.21-.17-.4-.37-.55-.61-.46-.73-.51-1.67-.13-2.45l4.1-8.47c-5.93-2.42-12.04-4.26-18.2-5.49-6.23-1.24-12.58-1.87-18.91-1.87ZM166.55,27.81h0,0ZM165.57,26.51h0s0,0,0,0ZM166.55,24.4h0,0Z"/>
      <path class="cls-1" d="M184.42,78.67c-1.43,0-2.83-.46-3.99-1.34-1.56-1.18-2.51-2.97-2.62-4.93l-.83-15.37c-.23-1.06.02-2.15.68-3.02.71-.92,1.78-1.45,2.94-1.45h11.56c.22,0,.43-.13.52-.33h0c.08-.16.08-.35,0-.51l-5.67-11.72c-.38-.79-.33-1.75.13-2.49.22-.36.53-.64.88-.83l-4.2-8.68c-.38-.79-.33-1.75.13-2.49.15-.23.33-.44.53-.6l-4.47-9.24-.77-1.61,1.63-.7c6.65-2.85,13.55-5,20.52-6.39,6.94-1.39,14.04-2.03,21.08-1.93,2.01.03,3.58,1.79,3.58,4v60.34c0,2.08-1.41,3.79-3.29,3.98-2.56.26-5.12.41-7.83.57-5.08.29-10.34.59-15.76,1.72-2.77.57-8.61,1.81-13.31,2.87-.48.11-.97.16-1.46.16ZM180.61,55.97c-.12,0-.19.06-.23.11-.04.05-.08.14-.05.25l.05.17.84,15.71c.05.94.51,1.81,1.27,2.38.76.57,1.72.78,2.64.57,4.72-1.06,10.58-2.31,13.37-2.88,5.67-1.17,11.06-1.48,16.26-1.78,2.67-.15,5.19-.3,7.68-.55.04-.02.22-.21.22-.58V9.04c0-.37-.18-.56-.24-.59-6.79-.1-13.64.53-20.34,1.86-6.16,1.23-12.28,3.07-18.2,5.49l4.1,8.46c.38.78.33,1.72-.13,2.45-.15.24-.34.45-.55.61l4.3,8.89c.38.79.33,1.75-.13,2.49-.22.36-.53.64-.88.83l5.17,10.69c.54,1.11.54,2.38,0,3.48-.66,1.37-2.08,2.26-3.6,2.26h-11.56ZM185.92,27.81h0,0ZM184.91,25.76s0,0,0,0h0ZM185.92,24.4h0,0Z"/>
      <polygon class="cls-1" points="169.7 16.14 168.84 15.28 176.24 0 183.1 14.18 180.03 15.67 176.24 7.84 172.45 15.67 170.91 14.93 169.7 16.14"/>
    </g>
    <g>
      <path class="cls-1" d="M6.98,162.37c-1,0-1.92-.17-2.77-.51s-1.58-.82-2.21-1.43c-.63-.61-1.12-1.33-1.47-2.15-.35-.82-.53-1.71-.53-2.67s.17-1.83.52-2.65c.35-.81.83-1.53,1.46-2.14.62-.62,1.36-1.09,2.2-1.42.84-.33,1.76-.5,2.77-.5s1.92.17,2.77.5c.84.33,1.58.8,2.2,1.42.62.62,1.11,1.34,1.46,2.15s.52,1.7.52,2.66-.17,1.84-.52,2.66-.83,1.54-1.46,2.15c-.62.62-1.35,1.09-2.19,1.43-.84.34-1.75.5-2.74.5ZM6.94,159.44c.72,0,1.35-.16,1.9-.48.54-.32.96-.76,1.25-1.34s.43-1.25.43-2.02c0-.56-.08-1.07-.25-1.54-.17-.46-.41-.86-.72-1.2-.32-.34-.7-.59-1.14-.77-.44-.18-.93-.27-1.47-.27-.72,0-1.35.16-1.89.47-.54.31-.96.75-1.25,1.32-.3.57-.45,1.23-.45,1.99,0,.59.08,1.12.25,1.59s.41.87.72,1.21.7.59,1.15.77c.45.18.94.27,1.47.27Z"/>
      <path class="cls-1" d="M19.01,162.13l-4.89-12.99h3.5l3.66,10.5h-1.5l3.72-10.5h3.43l-4.93,12.99h-2.99Z"/>
      <path class="cls-1" d="M28.3,162.13v-12.99h3.28v12.99h-3.28ZM30.9,151.91v-2.77h6.94v2.77h-6.94ZM30.9,156.85v-2.69h6.37v2.69h-6.37ZM30.9,162.13v-2.77h7.03v2.77h-7.03Z"/>
      <path class="cls-1" d="M39.79,162.13v-12.99h3.28v12.99h-3.28ZM42.39,156.87v-2.33h2.47c.52,0,.93-.13,1.22-.4.29-.27.43-.63.43-1.08s-.14-.8-.43-1.07-.69-.41-1.22-.41h-2.47v-2.44h2.95c.87,0,1.63.17,2.3.49.67.33,1.19.78,1.57,1.36s.57,1.25.57,2.01-.19,1.46-.58,2.03c-.38.57-.92,1.02-1.6,1.35-.68.32-1.48.49-2.4.49h-2.8ZM46.82,162.13l-3.77-5.57,2.97-.71,4.6,6.28h-3.79Z"/>
      <path class="cls-1" d="M55.45,162.35c-1.09,0-2.03-.17-2.82-.5-.79-.34-1.52-.86-2.18-1.57l2.09-2.09c.44.46.92.82,1.43,1.08.51.26,1.09.38,1.74.38.55,0,.97-.09,1.27-.28.3-.19.45-.45.45-.78s-.11-.57-.34-.77c-.23-.2-.52-.37-.87-.51s-.75-.29-1.19-.44-.87-.32-1.3-.51c-.43-.2-.82-.44-1.18-.74-.36-.3-.65-.67-.87-1.1-.22-.43-.33-.98-.33-1.64,0-.82.2-1.53.6-2.13.4-.6.95-1.05,1.66-1.36.71-.31,1.53-.47,2.47-.47s1.81.16,2.61.48c.8.32,1.45.76,1.95,1.32l-2.09,2.09c-.39-.4-.78-.7-1.18-.9-.4-.2-.84-.29-1.33-.29-.45,0-.81.08-1.06.24-.26.16-.38.38-.38.68s.11.53.33.7c.22.18.51.34.87.49.36.15.76.29,1.19.44.43.15.86.32,1.29.51.43.2.82.45,1.18.75.36.31.65.69.87,1.15.22.46.33,1.03.33,1.69,0,1.28-.46,2.28-1.37,3.01-.92.72-2.19,1.08-3.83,1.08Z"/>
      <path class="cls-1" d="M62.32,162.13v-12.99h3.28v12.99h-3.28ZM64.92,151.91v-2.77h6.94v2.77h-6.94ZM64.92,156.85v-2.69h6.37v2.69h-6.37ZM64.92,162.13v-2.77h7.03v2.77h-7.03Z"/>
      <path class="cls-1" d="M72.83,162.13l5.06-12.99h3.17l5,12.99h-3.44l-3.76-10.92h1.17l-3.81,10.92h-3.39ZM75.91,159.86v-2.6h7.18v2.6h-7.18Z"/>
      <path class="cls-1" d="M91.1,162.35c-1.09,0-2.03-.17-2.82-.5-.79-.34-1.52-.86-2.18-1.57l2.09-2.09c.44.46.92.82,1.43,1.08.51.26,1.09.38,1.74.38.55,0,.97-.09,1.27-.28.3-.19.45-.45.45-.78s-.11-.57-.34-.77c-.23-.2-.52-.37-.87-.51s-.75-.29-1.19-.44-.87-.32-1.3-.51c-.43-.2-.82-.44-1.18-.74-.36-.3-.65-.67-.87-1.1-.22-.43-.33-.98-.33-1.64,0-.82.2-1.53.6-2.13.4-.6.95-1.05,1.66-1.36.71-.31,1.53-.47,2.47-.47s1.81.16,2.61.48c.8.32,1.45.76,1.95,1.32l-2.09,2.09c-.39-.4-.78-.7-1.18-.9-.4-.2-.84-.29-1.33-.29-.45,0-.81.08-1.06.24-.26.16-.38.38-.38.68s.11.53.33.7c.22.18.51.34.87.49.36.15.76.29,1.19.44.43.15.86.32,1.29.51.43.2.82.45,1.18.75.36.31.65.69.87,1.15.22.46.33,1.03.33,1.69,0,1.28-.46,2.28-1.37,3.01-.92.72-2.19,1.08-3.83,1.08Z"/>
      <path class="cls-1" d="M101.35,162.13v-12.99h3.28v12.99h-3.28ZM103.95,151.91v-2.77h6.94v2.77h-6.94ZM103.95,156.85v-2.69h6.37v2.69h-6.37ZM103.95,162.13v-2.77h7.03v2.77h-7.03Z"/>
      <path class="cls-1" d="M112.84,162.13v-12.99h3.28v12.99h-3.28ZM115.04,162.13v-2.82h3.13c.72,0,1.36-.14,1.9-.42.55-.28.97-.7,1.26-1.25.29-.56.44-1.23.44-2.02s-.15-1.44-.45-1.98c-.3-.54-.72-.95-1.26-1.24s-1.18-.43-1.9-.43h-3.26v-2.82h3.28c1,0,1.93.16,2.78.47.85.31,1.58.75,2.21,1.33.62.57,1.1,1.26,1.45,2.05.34.79.51,1.67.51,2.64s-.17,1.85-.51,2.65c-.34.8-.82,1.49-1.45,2.06-.62.57-1.36,1.02-2.2,1.33s-1.76.47-2.75.47h-3.19Z"/>
      <path class="cls-1" d="M132.13,162.35c-1.1,0-2.07-.23-2.9-.7-.84-.47-1.49-1.11-1.96-1.92-.47-.81-.71-1.74-.71-2.79v-7.78h3.28v8.04c0,.46.1.86.3,1.2.2.34.48.59.82.77.35.18.74.27,1.16.27s.82-.09,1.15-.27c.33-.18.59-.43.79-.76.2-.33.29-.73.29-1.19v-8.06h3.3v7.8c0,1.05-.23,1.98-.69,2.78-.46.81-1.1,1.44-1.93,1.91-.83.47-1.8.7-2.91.7Z"/>
      <path class="cls-1" d="M146.05,162.35c-.99,0-1.9-.17-2.75-.51-.84-.34-1.58-.82-2.21-1.42-.63-.6-1.12-1.32-1.47-2.13s-.52-1.71-.52-2.67.17-1.83.51-2.65.83-1.52,1.46-2.12c.63-.6,1.36-1.07,2.2-1.41.84-.34,1.75-.51,2.74-.51s1.95.16,2.77.48c.82.32,1.54.77,2.16,1.33l-2.2,2.22c-.32-.34-.7-.61-1.15-.81-.45-.2-.98-.29-1.58-.29-.51,0-.99.09-1.44.27-.45.18-.82.43-1.14.76-.31.33-.56.73-.73,1.19-.18.47-.27.98-.27,1.54s.09,1.11.27,1.58c.18.46.42.86.73,1.19.31.33.69.59,1.13.77.44.18.92.28,1.45.28.61,0,1.14-.1,1.6-.28.46-.19.86-.45,1.2-.8l2.2,2.2c-.63.56-1.35,1-2.15,1.33-.8.32-1.74.49-2.81.49Z"/>
      <path class="cls-1" d="M151.45,162.13l5.06-12.99h3.17l5,12.99h-3.44l-3.76-10.92h1.17l-3.81,10.92h-3.39ZM154.53,159.86v-2.6h7.18v2.6h-7.18Z"/>
      <path class="cls-1" d="M165.19,151.96v-2.82h11.23v2.82h-11.23ZM169.15,162.13v-12.9h3.28v12.9h-3.28Z"/>
      <path class="cls-1" d="M177.9,162.13v-12.99h3.28v12.99h-3.28Z"/>
      <path class="cls-1" d="M189.81,162.37c-1,0-1.92-.17-2.77-.51s-1.58-.82-2.21-1.43c-.63-.61-1.12-1.33-1.47-2.15-.35-.82-.53-1.71-.53-2.67s.17-1.83.52-2.65c.35-.81.83-1.53,1.46-2.14.62-.62,1.36-1.09,2.2-1.42.84-.33,1.76-.5,2.77-.5s1.92.17,2.77.5c.84.33,1.58.8,2.2,1.42.62.62,1.11,1.34,1.46,2.15s.52,1.7.52,2.66-.17,1.84-.52,2.66-.83,1.54-1.46,2.15c-.62.62-1.35,1.09-2.19,1.43-.84.34-1.75.5-2.74.5ZM189.77,159.44c.72,0,1.35-.16,1.9-.48.54-.32.96-.76,1.25-1.34s.43-1.25.43-2.02c0-.56-.08-1.07-.25-1.54-.17-.46-.41-.86-.72-1.2-.32-.34-.7-.59-1.14-.77-.44-.18-.93-.27-1.47-.27-.72,0-1.35.16-1.89.47-.54.31-.96.75-1.25,1.32-.3.57-.45,1.23-.45,1.99,0,.59.08,1.12.25,1.59s.41.87.72,1.21.7.59,1.15.77c.45.18.94.27,1.47.27Z"/>
      <path class="cls-1" d="M198.36,162.13v-12.99h2.29l.99,2.67v10.31h-3.28ZM207.32,162.13l-7.58-9.62.92-3.37,7.6,9.62-.93,3.37ZM207.32,162.13l-.84-2.73v-10.26h3.28v12.99h-2.44Z"/>
      <path class="cls-1" d="M221.76,162.35c-.99,0-1.9-.17-2.75-.51-.84-.34-1.58-.82-2.21-1.42-.63-.6-1.12-1.32-1.47-2.13s-.52-1.71-.52-2.67.17-1.83.51-2.65.83-1.52,1.46-2.12c.63-.6,1.36-1.07,2.2-1.41.84-.34,1.75-.51,2.74-.51s1.95.16,2.77.48c.82.32,1.54.77,2.16,1.33l-2.2,2.22c-.32-.34-.7-.61-1.15-.81-.45-.2-.98-.29-1.58-.29-.51,0-.99.09-1.44.27-.45.18-.82.43-1.14.76-.31.33-.56.73-.73,1.19-.18.47-.27.98-.27,1.54s.09,1.11.27,1.58c.18.46.42.86.73,1.19.31.33.69.59,1.13.77.44.18.92.28,1.45.28.61,0,1.14-.1,1.6-.28.46-.19.86-.45,1.2-.8l2.2,2.2c-.63.56-1.35,1-2.15,1.33-.8.32-1.74.49-2.81.49Z"/>
      <path class="cls-1" d="M234.45,162.37c-1,0-1.92-.17-2.77-.51s-1.58-.82-2.21-1.43c-.63-.61-1.12-1.33-1.47-2.15-.35-.82-.53-1.71-.53-2.67s.17-1.83.52-2.65c.35-.81.83-1.53,1.46-2.14.62-.62,1.36-1.09,2.2-1.42.84-.33,1.76-.5,2.77-.5s1.92.17,2.77.5c.84.33,1.58.8,2.2,1.42.62.62,1.11,1.34,1.46,2.15s.52,1.7.52,2.66-.17,1.84-.52,2.66-.83,1.54-1.46,2.15c-.62.62-1.35,1.09-2.19,1.43-.84.34-1.75.5-2.74.5ZM234.41,159.44c.72,0,1.35-.16,1.9-.48.54-.32.96-.76,1.25-1.34s.43-1.25.43-2.02c0-.56-.08-1.07-.25-1.54-.17-.46-.41-.86-.72-1.2-.32-.34-.7-.59-1.14-.77-.44-.18-.93-.27-1.47-.27-.72,0-1.35.16-1.89.47-.54.31-.96.75-1.25,1.32-.3.57-.45,1.23-.45,1.99,0,.59.08,1.12.25,1.59s.41.87.72,1.21.7.59,1.15.77c.45.18.94.27,1.47.27Z"/>
      <path class="cls-1" d="M243.01,162.13v-12.99h2.29l.99,2.67v10.31h-3.28ZM251.96,162.13l-7.58-9.62.92-3.37,7.6,9.62-.93,3.37ZM251.96,162.13l-.84-2.73v-10.26h3.28v12.99h-2.44Z"/>
      <path class="cls-1" d="M260.5,162.35c-1.09,0-2.03-.17-2.82-.5-.79-.34-1.52-.86-2.18-1.57l2.09-2.09c.44.46.92.82,1.43,1.08.51.26,1.09.38,1.74.38.55,0,.97-.09,1.27-.28.3-.19.45-.45.45-.78s-.11-.57-.34-.77c-.23-.2-.52-.37-.87-.51s-.75-.29-1.19-.44-.87-.32-1.3-.51c-.43-.2-.82-.44-1.18-.74-.36-.3-.65-.67-.87-1.1-.22-.43-.33-.98-.33-1.64,0-.82.2-1.53.6-2.13.4-.6.95-1.05,1.66-1.36.71-.31,1.53-.47,2.47-.47s1.81.16,2.61.48c.8.32,1.45.76,1.95,1.32l-2.09,2.09c-.39-.4-.78-.7-1.18-.9-.4-.2-.84-.29-1.33-.29-.45,0-.81.08-1.06.24-.26.16-.38.38-.38.68s.11.53.33.7c.22.18.51.34.87.49.36.15.76.29,1.19.44.43.15.86.32,1.29.51.43.2.82.45,1.18.75.36.31.65.69.87,1.15.22.46.33,1.03.33,1.69,0,1.28-.46,2.28-1.37,3.01-.92.72-2.19,1.08-3.83,1.08Z"/>
      <path class="cls-1" d="M272.94,162.35c-1.1,0-2.07-.23-2.9-.7-.84-.47-1.49-1.11-1.96-1.92-.47-.81-.71-1.74-.71-2.79v-7.78h3.28v8.04c0,.46.1.86.3,1.2.2.34.48.59.82.77.35.18.74.27,1.16.27s.82-.09,1.15-.27c.33-.18.59-.43.79-.76.2-.33.29-.73.29-1.19v-8.06h3.3v7.8c0,1.05-.23,1.98-.69,2.78-.46.81-1.1,1.44-1.93,1.91-.83.47-1.8.7-2.91.7Z"/>
      <path class="cls-1" d="M280.56,162.13v-12.99h3.28v12.99h-3.28ZM283.18,162.13v-2.82h6.25v2.82h-6.25Z"/>
      <path class="cls-1" d="M288.91,151.96v-2.82h11.23v2.82h-11.23ZM292.87,162.13v-12.9h3.28v12.9h-3.28Z"/>
      <path class="cls-1" d="M300.65,162.13l5.06-12.99h3.17l5,12.99h-3.44l-3.76-10.92h1.17l-3.81,10.92h-3.39ZM303.73,159.86v-2.6h7.18v2.6h-7.18Z"/>
      <path class="cls-1" d="M315.21,162.13v-12.99h2.29l.99,2.67v10.31h-3.28ZM324.17,162.13l-7.58-9.62.92-3.37,7.6,9.62-.93,3.37ZM324.17,162.13l-.84-2.73v-10.26h3.28v12.99h-2.44Z"/>
      <path class="cls-1" d="M335.22,162.35c-.99,0-1.9-.17-2.75-.51-.84-.34-1.58-.82-2.21-1.42-.63-.6-1.12-1.32-1.47-2.13s-.52-1.71-.52-2.67.17-1.83.51-2.65.83-1.52,1.46-2.12c.63-.6,1.36-1.07,2.2-1.41.84-.34,1.75-.51,2.74-.51s1.95.16,2.77.48c.82.32,1.54.77,2.16,1.33l-2.2,2.22c-.32-.34-.7-.61-1.15-.81-.45-.2-.98-.29-1.58-.29-.51,0-.99.09-1.44.27-.45.18-.82.43-1.14.76-.31.33-.56.73-.73,1.19-.18.47-.27.98-.27,1.54s.09,1.11.27,1.58c.18.46.42.86.73,1.19.31.33.69.59,1.13.77.44.18.92.28,1.45.28.61,0,1.14-.1,1.6-.28.46-.19.86-.45,1.2-.8l2.2,2.2c-.63.56-1.35,1-2.15,1.33-.8.32-1.74.49-2.81.49Z"/>
      <path class="cls-1" d="M345.04,157.48l-4.96-8.33h3.77l3.79,6.78h-2.64l3.77-6.78h3.7l-5,8.33h-2.44ZM344.67,162.13v-5.99h3.28v5.99h-3.28Z"/>
    </g>
  </g>
</svg>