<?xml version="1.0" encoding="UTF-8"?>
<svg id="Layer_2" data-name="Layer 2" xmlns="http://www.w3.org/2000/svg" viewBox="0 0 355.12 162.59">
  <defs>
    <style>
      .cls-1 {
        fill: #008c44;
        stroke-width: 0px;
      }
    </style>
  </defs>
  <g id="Layer_1-2" data-name="Layer 1">
    <g>
      <path class="cls-1" d="M0,162.37v-13.24h2.96v13.24H0ZM2.27,151.68v-2.55h7.16v2.55H2.27ZM2.27,156.85v-2.49h6.6v2.49H2.27ZM2.27,162.37v-2.55h7.28v2.55H2.27Z"/>
      <path class="cls-1" d="M11.53,162.37v-13.24h2.96v13.24h-2.96ZM13.56,162.37v-2.59h3.26c.8,0,1.5-.16,2.09-.49s1.05-.79,1.38-1.4c.33-.61.49-1.33.49-2.17s-.17-1.54-.5-2.15-.79-1.07-1.39-1.39-1.28-.48-2.07-.48h-3.36v-2.59h3.39c1,0,1.92.16,2.77.48.84.32,1.58.78,2.21,1.37.63.59,1.12,1.29,1.47,2.09.35.8.53,1.69.53,2.68s-.17,1.85-.53,2.65c-.35.81-.84,1.51-1.46,2.1-.63.59-1.36,1.05-2.2,1.38s-1.76.49-2.75.49h-3.34Z"/>
      <path class="cls-1" d="M31.03,162.57c-1.1,0-2.07-.23-2.9-.7-.83-.47-1.48-1.11-1.95-1.93-.47-.82-.7-1.75-.7-2.78v-8.03h2.96v8.18c0,.54.12,1,.35,1.39.23.39.54.68.93.88s.83.3,1.31.3.9-.1,1.29-.3c.38-.2.68-.49.89-.88.21-.39.32-.84.32-1.37v-8.2h2.98v8.04c0,1.04-.23,1.96-.69,2.78-.46.81-1.11,1.45-1.93,1.92s-1.78.7-2.85.7Z"/>
      <path class="cls-1" d="M45.12,162.57c-.99,0-1.9-.17-2.75-.52s-1.58-.83-2.21-1.45c-.63-.62-1.12-1.35-1.47-2.18-.35-.83-.53-1.73-.53-2.69s.17-1.86.53-2.69c.35-.83.84-1.55,1.47-2.17.63-.61,1.37-1.09,2.2-1.43.84-.34,1.76-.52,2.76-.52,1.05,0,1.98.17,2.8.51.82.34,1.53.8,2.15,1.39l-1.99,2.01c-.34-.38-.75-.67-1.25-.88s-1.07-.32-1.72-.32c-.58,0-1.1.1-1.58.29-.47.19-.89.47-1.24.83-.35.36-.62.8-.81,1.31s-.28,1.07-.28,1.67.09,1.19.28,1.7c.19.51.46.94.81,1.31.35.37.76.65,1.24.84.48.19,1,.29,1.58.29.67,0,1.26-.1,1.76-.31.5-.21.92-.5,1.28-.89l2.01,2.01c-.62.6-1.35,1.07-2.17,1.4s-1.78.5-2.87.5Z"/>
      <path class="cls-1" d="M50.78,162.37l5.23-13.24h2.68l5.19,13.24h-3.13l-3.96-10.97h1.09l-4.05,10.97h-3.06ZM53.78,159.98v-2.4h7.2v2.4h-7.2Z"/>
      <path class="cls-1" d="M64.52,151.71v-2.59h11.25v2.59h-11.25ZM68.67,162.37v-13.07h2.98v13.07h-2.98Z"/>
      <path class="cls-1" d="M77.41,162.37v-13.24h2.96v13.24h-2.96Z"/>
      <path class="cls-1" d="M89.24,162.59c-1,0-1.93-.17-2.78-.52-.85-.35-1.59-.84-2.23-1.46s-1.13-1.35-1.48-2.18c-.35-.83-.53-1.73-.53-2.69s.17-1.88.53-2.7c.35-.82.84-1.55,1.46-2.17.62-.62,1.36-1.1,2.21-1.44.85-.34,1.78-.52,2.78-.52s1.9.17,2.75.52c.84.34,1.58.83,2.22,1.44.64.62,1.13,1.34,1.47,2.17.34.83.52,1.73.52,2.71s-.17,1.86-.52,2.69c-.35.83-.84,1.56-1.46,2.18-.62.62-1.36,1.1-2.19,1.45s-1.75.52-2.74.52ZM89.2,159.89c.79,0,1.48-.17,2.06-.52.59-.35,1.05-.84,1.38-1.46s.5-1.35.5-2.17c0-.61-.09-1.17-.28-1.68s-.46-.94-.81-1.31-.77-.65-1.26-.84c-.49-.19-1.02-.29-1.59-.29-.79,0-1.48.17-2.07.52-.59.34-1.05.83-1.38,1.44-.33.62-.49,1.34-.49,2.17,0,.62.09,1.19.28,1.71s.46.95.81,1.32c.35.37.77.65,1.25.84.48.19,1.02.29,1.6.29Z"/>
      <path class="cls-1" d="M98.01,162.37v-13.24h2.08l.88,2.64v10.59h-2.96ZM107.15,162.37l-7.78-10,.73-3.24,7.8,10-.75,3.24ZM107.15,162.37l-.79-2.64v-10.6h2.98v13.24h-2.19Z"/>
      <path class="cls-1" d="M121.75,162.59c-1,0-1.93-.17-2.78-.52-.85-.35-1.59-.84-2.23-1.46s-1.13-1.35-1.48-2.18c-.35-.83-.53-1.73-.53-2.69s.17-1.88.53-2.7c.35-.82.84-1.55,1.46-2.17.62-.62,1.36-1.1,2.21-1.44.85-.34,1.78-.52,2.78-.52s1.9.17,2.75.52c.84.34,1.58.83,2.22,1.44.64.62,1.13,1.34,1.47,2.17.34.83.52,1.73.52,2.71s-.17,1.86-.52,2.69c-.35.83-.84,1.56-1.46,2.18-.62.62-1.36,1.1-2.19,1.45s-1.75.52-2.74.52ZM121.72,159.89c.79,0,1.48-.17,2.06-.52.59-.35,1.05-.84,1.38-1.46s.5-1.35.5-2.17c0-.61-.09-1.17-.28-1.68s-.46-.94-.81-1.31-.77-.65-1.26-.84c-.49-.19-1.02-.29-1.59-.29-.79,0-1.48.17-2.07.52-.59.34-1.05.83-1.38,1.44-.33.62-.49,1.34-.49,2.17,0,.62.09,1.19.28,1.71s.46.95.81,1.32c.35.37.77.65,1.25.84.48.19,1.02.29,1.6.29Z"/>
      <path class="cls-1" d="M134.11,162.37l-5.1-13.24h3.17l3.88,10.71h-1.29l3.92-10.71h3.13l-5.16,13.24h-2.55Z"/>
      <path class="cls-1" d="M143.36,162.37v-13.24h2.96v13.24h-2.96ZM145.62,151.68v-2.55h7.16v2.55h-7.16ZM145.62,156.85v-2.49h6.6v2.49h-6.6ZM145.62,162.37v-2.55h7.28v2.55h-7.28Z"/>
      <path class="cls-1" d="M154.89,162.37v-13.24h2.96v13.24h-2.96ZM157.16,156.93v-2.21h2.79c.58,0,1.03-.15,1.35-.44.32-.29.49-.69.49-1.19s-.16-.87-.48-1.18c-.32-.31-.77-.47-1.34-.47h-2.81v-2.31h3.15c.89,0,1.66.17,2.33.5.66.33,1.18.79,1.55,1.38s.55,1.26.55,2.01c0,.8-.19,1.49-.56,2.07-.38.58-.9,1.03-1.57,1.36-.68.33-1.47.49-2.38.49h-3.06ZM162.09,162.37l-4.12-5.7,2.72-.75,4.91,6.45h-3.51Z"/>
      <path class="cls-1" d="M170.53,162.57c-1.1,0-2.04-.17-2.82-.52-.78-.35-1.49-.89-2.13-1.61l1.91-1.91c.42.49.9.87,1.42,1.13.52.27,1.12.4,1.81.4.61,0,1.09-.12,1.43-.35s.52-.55.52-.95c0-.35-.11-.64-.33-.86-.22-.22-.52-.42-.89-.58-.38-.16-.78-.32-1.22-.46-.44-.14-.88-.32-1.32-.52-.44-.2-.85-.44-1.22-.73-.37-.29-.67-.66-.89-1.11-.22-.45-.34-1.01-.34-1.67,0-.82.2-1.53.59-2.12.39-.59.95-1.03,1.66-1.34s1.52-.46,2.42-.46,1.79.16,2.55.49c.76.33,1.39.76,1.89,1.31l-1.93,1.93c-.4-.41-.8-.72-1.21-.92-.41-.2-.86-.3-1.36-.3s-.92.1-1.22.29c-.3.19-.45.47-.45.83,0,.33.11.59.34.8.22.21.52.38.89.54.37.15.78.3,1.22.45.44.15.89.32,1.33.52.44.19.85.45,1.21.76s.66.7.89,1.16.35,1.04.35,1.74c0,1.26-.45,2.25-1.35,2.97s-2.15,1.08-3.75,1.08Z"/>
      <path class="cls-1" d="M177.47,162.37v-13.24h2.96v13.24h-2.96ZM179.73,151.68v-2.55h7.16v2.55h-7.16ZM179.73,156.85v-2.49h6.6v2.49h-6.6ZM179.73,162.37v-2.55h7.28v2.55h-7.28Z"/>
      <path class="cls-1" d="M188.02,162.37l5.23-13.24h2.68l5.19,13.24h-3.13l-3.96-10.97h1.09l-4.05,10.97h-3.06ZM191.02,159.98v-2.4h7.2v2.4h-7.2Z"/>
      <path class="cls-1" d="M206.27,162.57c-1.1,0-2.04-.17-2.82-.52-.78-.35-1.49-.89-2.13-1.61l1.91-1.91c.42.49.9.87,1.42,1.13.52.27,1.12.4,1.81.4.61,0,1.09-.12,1.43-.35s.52-.55.52-.95c0-.35-.11-.64-.33-.86-.22-.22-.52-.42-.89-.58-.38-.16-.78-.32-1.22-.46-.44-.14-.88-.32-1.32-.52-.44-.2-.85-.44-1.22-.73-.37-.29-.67-.66-.89-1.11-.22-.45-.34-1.01-.34-1.67,0-.82.2-1.53.59-2.12.39-.59.95-1.03,1.66-1.34s1.52-.46,2.42-.46,1.79.16,2.55.49c.76.33,1.39.76,1.89,1.31l-1.93,1.93c-.4-.41-.8-.72-1.21-.92-.41-.2-.86-.3-1.36-.3s-.92.1-1.22.29c-.3.19-.45.47-.45.83,0,.33.11.59.34.8.22.21.52.38.89.54.37.15.78.3,1.22.45.44.15.89.32,1.33.52.44.19.85.45,1.21.76s.66.7.89,1.16.35,1.04.35,1.74c0,1.26-.45,2.25-1.35,2.97s-2.15,1.08-3.75,1.08Z"/>
      <path class="cls-1" d="M223.05,162.57c-.99,0-1.9-.17-2.75-.52s-1.58-.83-2.21-1.45c-.63-.62-1.12-1.35-1.47-2.18-.35-.83-.53-1.73-.53-2.69s.17-1.86.53-2.69c.35-.83.84-1.55,1.47-2.17.63-.61,1.37-1.09,2.2-1.43.84-.34,1.76-.52,2.76-.52,1.05,0,1.98.17,2.8.51.82.34,1.53.8,2.15,1.39l-1.99,2.01c-.34-.38-.75-.67-1.25-.88s-1.07-.32-1.72-.32c-.58,0-1.1.1-1.58.29-.47.19-.89.47-1.24.83-.35.36-.62.8-.81,1.31s-.28,1.07-.28,1.67.09,1.19.28,1.7c.19.51.46.94.81,1.31.35.37.76.65,1.24.84.48.19,1,.29,1.58.29.67,0,1.26-.1,1.76-.31.5-.21.92-.5,1.28-.89l2.01,2.01c-.62.6-1.35,1.07-2.17,1.4s-1.78.5-2.87.5Z"/>
      <path class="cls-1" d="M236.03,162.59c-1,0-1.93-.17-2.78-.52-.85-.35-1.59-.84-2.23-1.46s-1.13-1.35-1.48-2.18c-.35-.83-.53-1.73-.53-2.69s.17-1.88.53-2.7c.35-.82.84-1.55,1.46-2.17.62-.62,1.36-1.1,2.21-1.44.85-.34,1.78-.52,2.78-.52s1.9.17,2.75.52c.84.34,1.58.83,2.22,1.44.64.62,1.13,1.34,1.47,2.17.34.83.52,1.73.52,2.71s-.17,1.86-.52,2.69c-.35.83-.84,1.56-1.46,2.18-.62.62-1.36,1.1-2.19,1.45s-1.75.52-2.74.52ZM235.99,159.89c.79,0,1.48-.17,2.06-.52.59-.35,1.05-.84,1.38-1.46s.5-1.35.5-2.17c0-.61-.09-1.17-.28-1.68s-.46-.94-.81-1.31-.77-.65-1.26-.84c-.49-.19-1.02-.29-1.59-.29-.79,0-1.48.17-2.07.52-.59.34-1.05.83-1.38,1.44-.33.62-.49,1.34-.49,2.17,0,.62.09,1.19.28,1.71s.46.95.81,1.32c.35.37.77.65,1.25.84.48.19,1.02.29,1.6.29Z"/>
      <path class="cls-1" d="M244.8,162.37v-13.24h2.08l.88,2.64v10.59h-2.96ZM253.93,162.37l-7.78-10,.73-3.24,7.8,10-.75,3.24ZM253.93,162.37l-.79-2.64v-10.6h2.98v13.24h-2.19Z"/>
      <path class="cls-1" d="M262.37,162.57c-1.1,0-2.04-.17-2.82-.52-.78-.35-1.49-.89-2.13-1.61l1.91-1.91c.42.49.9.87,1.42,1.13.52.27,1.12.4,1.81.4.61,0,1.09-.12,1.43-.35s.52-.55.52-.95c0-.35-.11-.64-.33-.86-.22-.22-.52-.42-.89-.58-.38-.16-.78-.32-1.22-.46-.44-.14-.88-.32-1.32-.52-.44-.2-.85-.44-1.22-.73-.37-.29-.67-.66-.89-1.11-.22-.45-.34-1.01-.34-1.67,0-.82.2-1.53.59-2.12.39-.59.95-1.03,1.66-1.34s1.52-.46,2.42-.46,1.79.16,2.55.49c.76.33,1.39.76,1.89,1.31l-1.93,1.93c-.4-.41-.8-.72-1.21-.92-.41-.2-.86-.3-1.36-.3s-.92.1-1.22.29c-.3.19-.45.47-.45.83,0,.33.11.59.34.8.22.21.52.38.89.54.37.15.78.3,1.22.45.44.15.89.32,1.33.52.44.19.85.45,1.21.76s.66.7.89,1.16.35,1.04.35,1.74c0,1.26-.45,2.25-1.35,2.97s-2.15,1.08-3.75,1.08Z"/>
      <path class="cls-1" d="M274.9,162.57c-1.1,0-2.07-.23-2.9-.7-.83-.47-1.48-1.11-1.95-1.93-.47-.82-.7-1.75-.7-2.78v-8.03h2.96v8.18c0,.54.12,1,.35,1.39.23.39.54.68.93.88s.83.3,1.31.3.9-.1,1.29-.3c.38-.2.68-.49.89-.88.21-.39.32-.84.32-1.37v-8.2h2.98v8.04c0,1.04-.23,1.96-.69,2.78-.46.81-1.11,1.45-1.93,1.92s-1.78.7-2.85.7Z"/>
      <path class="cls-1" d="M282.7,162.37v-13.24h2.96v13.24h-2.96ZM284.99,162.37v-2.59h6.54v2.59h-6.54Z"/>
      <path class="cls-1" d="M290.95,151.71v-2.59h11.25v2.59h-11.25ZM295.09,162.37v-13.07h2.98v13.07h-2.98Z"/>
      <path class="cls-1" d="M302.86,162.37l5.23-13.24h2.68l5.19,13.24h-3.13l-3.96-10.97h1.09l-4.05,10.97h-3.06ZM305.86,159.98v-2.4h7.2v2.4h-7.2Z"/>
      <path class="cls-1" d="M317.5,162.37v-13.24h2.08l.88,2.64v10.59h-2.96ZM326.63,162.37l-7.78-10,.73-3.24,7.8,10-.75,3.24ZM326.63,162.37l-.79-2.64v-10.6h2.98v13.24h-2.19Z"/>
      <path class="cls-1" d="M337.62,162.57c-.99,0-1.9-.17-2.75-.52s-1.58-.83-2.21-1.45c-.63-.62-1.12-1.35-1.47-2.18-.35-.83-.53-1.73-.53-2.69s.17-1.86.53-2.69c.35-.83.84-1.55,1.47-2.17.63-.61,1.37-1.09,2.2-1.43.84-.34,1.76-.52,2.76-.52,1.05,0,1.98.17,2.8.51.82.34,1.53.8,2.15,1.39l-1.99,2.01c-.34-.38-.75-.67-1.25-.88s-1.07-.32-1.72-.32c-.58,0-1.1.1-1.58.29-.47.19-.89.47-1.24.83-.35.36-.62.8-.81,1.31s-.28,1.07-.28,1.67.09,1.19.28,1.7c.19.51.46.94.81,1.31.35.37.76.65,1.24.84.48.19,1,.29,1.58.29.67,0,1.26-.1,1.76-.31.5-.21.92-.5,1.28-.89l2.01,2.01c-.62.6-1.35,1.07-2.17,1.4s-1.78.5-2.87.5Z"/>
      <path class="cls-1" d="M347.82,157.45l-5.1-8.33h3.41l3.92,6.71h-2.21l3.92-6.71h3.36l-5.14,8.33h-2.16ZM347.45,162.37v-6.28h2.98v6.28h-2.98Z"/>
    </g>
    <g>
      <path class="cls-1" d="M68.57,141.12c-3.36,0-6.48-.58-9.34-1.74-2.87-1.16-5.37-2.77-7.5-4.83-2.14-2.05-3.8-4.47-4.98-7.26-1.18-2.78-1.77-5.81-1.77-9.09s.58-6.24,1.74-9c1.16-2.76,2.81-5.16,4.95-7.19,2.14-2.03,4.63-3.63,7.47-4.79,2.84-1.16,5.95-1.74,9.31-1.74s6.62.55,9.4,1.65c2.78,1.1,5.23,2.61,7.35,4.52l-7.47,7.54c-1.08-1.16-2.39-2.08-3.92-2.74-1.54-.66-3.32-1-5.36-1-1.74,0-3.37.3-4.89.9s-2.8,1.46-3.86,2.58-1.89,2.47-2.49,4.05c-.6,1.58-.9,3.32-.9,5.23s.3,3.78.9,5.36c.6,1.58,1.43,2.93,2.49,4.05s2.34,1.99,3.83,2.62c1.5.62,3.13.93,4.92.93,2.08,0,3.89-.32,5.45-.96,1.56-.64,2.92-1.55,4.08-2.71l7.47,7.47c-2.16,1.91-4.6,3.42-7.32,4.51-2.72,1.1-5.91,1.65-9.56,1.65Z"/>
      <path class="cls-1" d="M90.24,140.37v-44.16h11.15v44.16h-11.15ZM99.09,105.62v-9.4h23.6v9.4h-23.6ZM99.09,122.43v-9.16h21.67v9.16h-21.67ZM99.09,140.37v-9.4h23.92v9.4h-23.92Z"/>
      <path class="cls-1" d="M129.29,140.37v-44.16h8.03l16.88,25.6h-3.67l16.82-25.6h8.03v44.16h-11.08v-25.66l1.74.44-10.03,15.26h-7.35l-9.96-15.26,1.68-.44v25.66h-11.08Z"/>
      <path class="cls-1" d="M179.93,140.37l17.19-44.16h10.77l17,44.16h-11.71l-12.77-37.12h3.99l-12.95,37.12h-11.52ZM190.39,132.65v-8.84h24.41v8.84h-24.41Z"/>
      <path class="cls-1" d="M229.44,140.37v-44.16h11.15v44.16h-11.15ZM238.28,122.5v-7.91h8.41c1.79,0,3.17-.46,4.14-1.37s1.46-2.14,1.46-3.67-.49-2.71-1.46-3.64c-.98-.93-2.36-1.4-4.14-1.4h-8.41v-8.28h10.03c2.95,0,5.55.56,7.82,1.68,2.26,1.12,4.04,2.66,5.33,4.61,1.29,1.95,1.93,4.23,1.93,6.85s-.65,4.96-1.96,6.91c-1.31,1.95-3.12,3.48-5.45,4.58-2.33,1.1-5.04,1.65-8.16,1.65h-9.53ZM253.35,140.37l-12.83-18.93,10.09-2.43,15.63,21.36h-12.89Z"/>
      <path class="cls-1" d="M265.19,140.37l17.19-44.16h10.77l17,44.16h-11.71l-12.77-37.12h3.99l-12.95,37.12h-11.52ZM275.65,132.65v-8.84h24.41v8.84h-24.41Z"/>
    </g>
    <g>
      <path class="cls-1" d="M169.38,78.67c-.49,0-.98-.05-1.46-.16-4.74-1.07-10.56-2.3-13.31-2.87-5.43-1.12-10.68-1.42-15.76-1.72-2.71-.16-5.27-.3-7.83-.57-1.88-.19-3.29-1.91-3.29-3.98V9.04c0-2.21,1.57-3.97,3.58-4,7.05-.1,14.14.54,21.08,1.93,6.96,1.39,13.86,3.54,20.52,6.39l1.65.71-.82,1.7-4.42,9.14c.21.17.39.37.53.6.47.74.52,1.7.13,2.49l-4.2,8.68c.35.19.65.47.88.83.47.74.52,1.7.13,2.49l-5.67,11.72c-.08.16-.08.35,0,.51.1.2.3.33.52.33h11.56c1.11,0,2.16.49,2.87,1.35.71.86.99,1.98.77,3.07,0,.02,0,.04-.01.06l-.82,15.36c-.11,1.95-1.06,3.75-2.62,4.93-1.16.88-2.56,1.34-3.99,1.34ZM132.8,8.45c-.48,0-.97,0-1.45.01-.03.02-.22.21-.22.58v60.34c0,.35.17.56.24.59,2.47.25,4.99.4,7.66.55,5.21.3,10.59.61,16.26,1.78,2.77.57,8.62,1.81,13.37,2.88.92.21,1.89,0,2.64-.57.75-.57,1.22-1.44,1.27-2.39l.83-15.39c.01-.21.04-.38.07-.52.02-.11-.02-.19-.06-.24-.06-.07-.13-.11-.23-.11h-11.56c-1.52,0-2.94-.89-3.6-2.26h0c-.54-1.11-.54-2.38,0-3.49l5.17-10.69c-.35-.19-.65-.47-.87-.83-.47-.74-.52-1.7-.13-2.49l4.3-8.89c-.21-.17-.4-.37-.55-.61-.46-.73-.51-1.67-.13-2.45l4.1-8.47c-5.93-2.42-12.04-4.26-18.2-5.49-6.23-1.24-12.58-1.87-18.91-1.87ZM167.87,27.81h0,0ZM166.89,26.51h0s0,0,0,0ZM167.88,24.4h0,0Z"/>
      <path class="cls-1" d="M185.74,78.67c-1.43,0-2.83-.46-3.99-1.34-1.56-1.18-2.51-2.97-2.62-4.93l-.83-15.37c-.23-1.06.02-2.15.68-3.02.71-.92,1.78-1.45,2.94-1.45h11.56c.22,0,.43-.13.52-.33h0c.08-.16.08-.35,0-.51l-5.67-11.72c-.38-.79-.33-1.75.13-2.49.22-.36.53-.64.88-.83l-4.2-8.68c-.38-.79-.33-1.75.13-2.49.15-.23.33-.44.53-.6l-4.47-9.24-.77-1.61,1.63-.7c6.65-2.85,13.55-5,20.52-6.39,6.94-1.39,14.04-2.03,21.08-1.93,2.01.03,3.58,1.79,3.58,4v60.34c0,2.08-1.41,3.79-3.29,3.98-2.56.26-5.12.41-7.83.57-5.08.29-10.34.59-15.76,1.72-2.77.57-8.61,1.81-13.31,2.87-.48.11-.97.16-1.46.16ZM181.94,55.97c-.12,0-.19.06-.23.11-.04.05-.08.14-.05.25l.05.17.84,15.71c.05.94.51,1.81,1.27,2.38.76.57,1.72.78,2.64.57,4.72-1.06,10.58-2.31,13.37-2.88,5.67-1.17,11.06-1.48,16.26-1.78,2.67-.15,5.19-.3,7.68-.55.04-.02.22-.21.22-.58V9.04c0-.37-.18-.56-.24-.59-6.79-.1-13.64.53-20.34,1.86-6.16,1.23-12.28,3.07-18.2,5.49l4.1,8.46c.38.78.33,1.72-.13,2.45-.15.24-.34.45-.55.61l4.3,8.89c.38.79.33,1.75-.13,2.49-.22.36-.53.64-.88.83l5.17,10.69c.54,1.11.54,2.38,0,3.48-.66,1.37-2.08,2.26-3.6,2.26h-11.56ZM187.25,27.81h0,0ZM186.23,25.76s0,0,0,0h0ZM187.24,24.4h0,0Z"/>
      <polygon class="cls-1" points="171.02 16.14 170.16 15.28 177.56 0 184.43 14.18 181.35 15.67 177.56 7.84 173.77 15.67 172.23 14.93 171.02 16.14"/>
    </g>
  </g>
</svg>