<?xml version="1.0" encoding="UTF-8"?>
<svg id="Layer_2" data-name="Layer 2" xmlns="http://www.w3.org/2000/svg" viewBox="0 0 342.95 160.31">
  <defs>
    <style>
      .cls-1 {
        fill: #008c44;
        stroke-width: 0px;
      }
    </style>
  </defs>
  <g id="Layer_1-2" data-name="Layer 1">
    <g>
      <path class="cls-1" d="M0,160.13v-13.05h2.14v13.05H0ZM1.47,149.03v-1.96h7.22v1.96H1.47ZM1.47,154.4v-1.88h6.68v1.88H1.47ZM1.47,160.13v-1.96h7.31v1.96H1.47Z"/>
      <path class="cls-1" d="M11,160.13v-13.05h2.14v13.05h-2.14ZM12.48,160.13v-1.96h3.43c.9,0,1.68-.19,2.36-.58.68-.38,1.21-.92,1.58-1.61s.57-1.49.57-2.4-.19-1.68-.58-2.37-.92-1.22-1.59-1.6c-.68-.39-1.46-.58-2.34-.58h-3.43v-1.96h3.49c.95,0,1.82.16,2.63.49s1.51.79,2.12,1.38c.6.59,1.07,1.28,1.41,2.07.34.79.5,1.65.5,2.58s-.17,1.78-.5,2.57c-.34.8-.8,1.49-1.4,2.08-.6.59-1.3,1.05-2.11,1.38-.81.33-1.68.49-2.61.49h-3.52Z"/>
      <path class="cls-1" d="M29.84,160.31c-.98,0-1.86-.22-2.65-.67-.78-.45-1.4-1.06-1.86-1.84-.45-.78-.68-1.66-.68-2.64v-8.09h2.14v8.08c0,.63.13,1.18.4,1.65.27.47.63.83,1.09,1.08s.98.38,1.55.38,1.1-.13,1.55-.38c.45-.26.8-.62,1.06-1.08.26-.47.39-1.01.39-1.63v-8.09h2.14v8.11c0,.98-.22,1.86-.67,2.63s-1.06,1.38-1.83,1.83c-.77.45-1.65.67-2.65.67Z"/>
      <path class="cls-1" d="M43.6,160.31c-.95,0-1.82-.17-2.62-.51-.8-.34-1.5-.82-2.1-1.44-.6-.61-1.06-1.33-1.38-2.14-.32-.81-.49-1.69-.49-2.62s.16-1.81.49-2.62c.32-.81.78-1.53,1.38-2.14.6-.61,1.3-1.09,2.1-1.44.8-.35,1.68-.52,2.62-.52,1.06,0,1.97.17,2.74.52.77.35,1.45.82,2.05,1.42l-1.45,1.46c-.39-.42-.85-.75-1.41-.99-.55-.24-1.2-.35-1.93-.35-.65,0-1.24.11-1.77.34s-1,.54-1.39.96c-.39.42-.69.91-.9,1.48s-.32,1.2-.32,1.88.11,1.31.32,1.88.51,1.07.9,1.48c.39.42.85.74,1.39.96.53.22,1.12.34,1.77.34.8,0,1.47-.12,2.02-.36.55-.24,1.02-.58,1.41-1l1.45,1.45c-.6.61-1.3,1.09-2.11,1.44-.81.35-1.73.52-2.78.52Z"/>
      <path class="cls-1" d="M49.44,160.13l5.37-13.05h1.49l5.33,13.05h-2.31l-4.18-10.57h.78l-4.21,10.57h-2.27ZM52.09,157.61v-1.86h6.92v1.86h-6.92Z"/>
      <path class="cls-1" d="M62.53,149.03v-1.96h10.65v1.96h-10.65ZM66.78,160.13v-12.68h2.14v12.68h-2.14Z"/>
      <path class="cls-1" d="M75.05,160.13v-13.05h2.14v13.05h-2.14Z"/>
      <path class="cls-1" d="M86.03,160.31c-.93,0-1.8-.17-2.61-.52-.81-.35-1.52-.83-2.13-1.45s-1.08-1.33-1.43-2.14c-.34-.81-.51-1.69-.51-2.62s.17-1.8.51-2.61c.34-.81.81-1.52,1.42-2.14.6-.61,1.31-1.09,2.11-1.44.8-.34,1.67-.51,2.6-.51s1.8.17,2.6.51c.8.34,1.51.82,2.12,1.44.61.62,1.08,1.33,1.43,2.15.34.81.51,1.69.51,2.62s-.17,1.81-.51,2.62c-.34.81-.81,1.53-1.42,2.14-.6.61-1.31,1.09-2.11,1.44-.8.35-1.66.52-2.58.52ZM85.99,158.26c.88,0,1.66-.2,2.32-.6.66-.4,1.19-.95,1.57-1.65.38-.7.57-1.51.57-2.43,0-.68-.11-1.31-.33-1.87-.22-.57-.53-1.06-.92-1.47-.4-.42-.87-.74-1.41-.96-.54-.22-1.14-.34-1.8-.34-.87,0-1.64.2-2.3.59-.66.39-1.19.94-1.57,1.63s-.57,1.5-.57,2.42c0,.68.11,1.31.33,1.89.22.58.52,1.07.91,1.48.39.41.86.73,1.41.96.55.23,1.14.34,1.79.34Z"/>
      <path class="cls-1" d="M94.83,160.13v-13.05h1.49l.65,2.46v10.59h-2.14ZM103.88,160.13l-7.81-10.2.26-2.85,7.81,10.2-.26,2.85ZM103.88,160.13l-.65-2.29v-10.76h2.14v13.05h-1.49Z"/>
      <path class="cls-1" d="M117.94,160.31c-.93,0-1.8-.17-2.61-.52-.81-.35-1.52-.83-2.13-1.45s-1.08-1.33-1.43-2.14c-.34-.81-.51-1.69-.51-2.62s.17-1.8.51-2.61c.34-.81.81-1.52,1.42-2.14.6-.61,1.31-1.09,2.11-1.44.8-.34,1.67-.51,2.6-.51s1.8.17,2.6.51c.8.34,1.51.82,2.12,1.44.61.62,1.08,1.33,1.43,2.15.34.81.51,1.69.51,2.62s-.17,1.81-.51,2.62c-.34.81-.81,1.53-1.42,2.14-.6.61-1.31,1.09-2.11,1.44-.8.35-1.66.52-2.58.52ZM117.9,158.26c.88,0,1.66-.2,2.32-.6.66-.4,1.19-.95,1.57-1.65.38-.7.57-1.51.57-2.43,0-.68-.11-1.31-.33-1.87-.22-.57-.53-1.06-.92-1.47-.4-.42-.87-.74-1.41-.96-.54-.22-1.14-.34-1.8-.34-.87,0-1.64.2-2.3.59-.66.39-1.19.94-1.57,1.63s-.57,1.5-.57,2.42c0,.68.11,1.31.33,1.89.22.58.52,1.07.91,1.48.39.41.86.73,1.41.96.55.23,1.14.34,1.79.34Z"/>
      <path class="cls-1" d="M130.38,160.13l-5.28-13.05h2.33l4.12,10.57h-.82l4.16-10.57h2.29l-5.31,13.05h-1.49Z"/>
      <path class="cls-1" d="M139.05,160.13v-13.05h2.14v13.05h-2.14ZM140.52,149.03v-1.96h7.22v1.96h-7.22ZM140.52,154.4v-1.88h6.68v1.88h-6.68ZM140.52,160.13v-1.96h7.31v1.96h-7.31Z"/>
      <path class="cls-1" d="M150.05,160.13v-13.05h2.14v13.05h-2.14ZM151.53,154.59v-1.77h3.3c.66,0,1.17-.17,1.54-.51.37-.34.55-.82.55-1.43,0-.55-.18-1.01-.54-1.38-.36-.37-.87-.56-1.53-.56h-3.32v-1.87h3.41c.82,0,1.54.16,2.16.49.62.33,1.1.78,1.45,1.34.34.57.51,1.21.51,1.93,0,.76-.17,1.42-.51,1.98-.34.56-.82,1-1.45,1.31-.62.31-1.34.47-2.16.47h-3.41ZM157.22,160.13l-4.57-5.67,2-.73,5.28,6.4h-2.7Z"/>
      <path class="cls-1" d="M164.77,160.31c-1.03,0-1.91-.19-2.63-.56-.72-.37-1.37-.92-1.94-1.64l1.45-1.45c.36.52.79.93,1.29,1.22s1.13.44,1.9.44c.72,0,1.3-.15,1.72-.45.43-.3.64-.71.64-1.23,0-.43-.11-.79-.34-1.06-.22-.27-.52-.5-.89-.68-.37-.18-.77-.34-1.21-.48-.44-.14-.88-.3-1.32-.49-.44-.18-.85-.41-1.21-.68-.37-.27-.66-.63-.89-1.06-.22-.43-.34-.99-.34-1.66,0-.77.19-1.43.57-1.97.38-.54.89-.95,1.54-1.24.65-.29,1.37-.43,2.16-.43.86,0,1.63.17,2.3.5.68.34,1.23.76,1.65,1.29l-1.45,1.45c-.37-.42-.76-.74-1.17-.94s-.87-.31-1.39-.31c-.65,0-1.15.13-1.52.39s-.55.63-.55,1.1c0,.4.11.72.34.96.22.24.52.45.89.62.37.17.77.33,1.21.48.44.15.88.32,1.32.5.44.19.84.43,1.21.72.37.29.66.67.89,1.13.22.46.34,1.04.34,1.73,0,1.17-.41,2.1-1.24,2.78s-1.94,1.03-3.35,1.03Z"/>
      <path class="cls-1" d="M171.5,160.13v-13.05h2.14v13.05h-2.14ZM172.97,149.03v-1.96h7.22v1.96h-7.22ZM172.97,154.4v-1.88h6.68v1.88h-6.68ZM172.97,160.13v-1.96h7.31v1.96h-7.31Z"/>
      <path class="cls-1" d="M181.53,160.13l5.37-13.05h1.49l5.33,13.05h-2.31l-4.18-10.57h.78l-4.21,10.57h-2.27ZM184.18,157.61v-1.86h6.92v1.86h-6.92Z"/>
      <path class="cls-1" d="M198.78,160.31c-1.03,0-1.91-.19-2.63-.56-.72-.37-1.37-.92-1.94-1.64l1.45-1.45c.36.52.79.93,1.29,1.22s1.13.44,1.9.44c.72,0,1.3-.15,1.72-.45.43-.3.64-.71.64-1.23,0-.43-.11-.79-.34-1.06-.22-.27-.52-.5-.89-.68-.37-.18-.77-.34-1.21-.48-.44-.14-.88-.3-1.32-.49-.44-.18-.85-.41-1.21-.68-.37-.27-.66-.63-.89-1.06-.22-.43-.34-.99-.34-1.66,0-.77.19-1.43.57-1.97.38-.54.89-.95,1.54-1.24.65-.29,1.37-.43,2.16-.43.86,0,1.63.17,2.3.5.68.34,1.23.76,1.65,1.29l-1.45,1.45c-.37-.42-.76-.74-1.17-.94s-.87-.31-1.39-.31c-.65,0-1.15.13-1.52.39s-.55.63-.55,1.1c0,.4.11.72.34.96.22.24.52.45.89.62.37.17.77.33,1.21.48.44.15.88.32,1.32.5.44.19.84.43,1.21.72.37.29.66.67.89,1.13.22.46.34,1.04.34,1.73,0,1.17-.41,2.1-1.24,2.78s-1.94,1.03-3.35,1.03Z"/>
      <path class="cls-1" d="M215.18,160.31c-.95,0-1.82-.17-2.62-.51-.8-.34-1.5-.82-2.1-1.44-.6-.61-1.06-1.33-1.38-2.14-.32-.81-.49-1.69-.49-2.62s.16-1.81.49-2.62c.32-.81.78-1.53,1.38-2.14.6-.61,1.3-1.09,2.1-1.44.8-.35,1.68-.52,2.62-.52,1.06,0,1.97.17,2.74.52.77.35,1.45.82,2.05,1.42l-1.45,1.46c-.39-.42-.85-.75-1.41-.99-.55-.24-1.2-.35-1.93-.35-.65,0-1.24.11-1.77.34s-1,.54-1.39.96c-.39.42-.69.91-.9,1.48s-.32,1.2-.32,1.88.11,1.31.32,1.88.51,1.07.9,1.48c.39.42.85.74,1.39.96.53.22,1.12.34,1.77.34.8,0,1.47-.12,2.02-.36.55-.24,1.02-.58,1.41-1l1.45,1.45c-.6.61-1.3,1.09-2.11,1.44-.81.35-1.73.52-2.78.52Z"/>
      <path class="cls-1" d="M227.99,160.31c-.93,0-1.8-.17-2.61-.52-.81-.35-1.52-.83-2.13-1.45s-1.08-1.33-1.43-2.14c-.34-.81-.51-1.69-.51-2.62s.17-1.8.51-2.61c.34-.81.81-1.52,1.42-2.14.6-.61,1.31-1.09,2.11-1.44.8-.34,1.67-.51,2.6-.51s1.8.17,2.6.51c.8.34,1.51.82,2.12,1.44.61.62,1.08,1.33,1.43,2.15.34.81.51,1.69.51,2.62s-.17,1.81-.51,2.62c-.34.81-.81,1.53-1.42,2.14-.6.61-1.31,1.09-2.11,1.44-.8.35-1.66.52-2.58.52ZM227.95,158.26c.88,0,1.66-.2,2.32-.6.66-.4,1.19-.95,1.57-1.65.38-.7.57-1.51.57-2.43,0-.68-.11-1.31-.33-1.87-.22-.57-.53-1.06-.92-1.47-.4-.42-.87-.74-1.41-.96-.54-.22-1.14-.34-1.8-.34-.87,0-1.64.2-2.3.59-.66.39-1.19.94-1.57,1.63s-.57,1.5-.57,2.42c0,.68.11,1.31.33,1.89.22.58.52,1.07.91,1.48.39.41.86.73,1.41.96.55.23,1.14.34,1.79.34Z"/>
      <path class="cls-1" d="M236.79,160.13v-13.05h1.49l.65,2.46v10.59h-2.14ZM245.84,160.13l-7.81-10.2.26-2.85,7.81,10.2-.26,2.85ZM245.84,160.13l-.65-2.29v-10.76h2.14v13.05h-1.49Z"/>
      <path class="cls-1" d="M253.54,160.31c-1.03,0-1.91-.19-2.63-.56-.72-.37-1.37-.92-1.94-1.64l1.45-1.45c.36.52.79.93,1.29,1.22s1.13.44,1.9.44c.72,0,1.3-.15,1.72-.45.43-.3.64-.71.64-1.23,0-.43-.11-.79-.34-1.06-.22-.27-.52-.5-.89-.68-.37-.18-.77-.34-1.21-.48-.44-.14-.88-.3-1.32-.49-.44-.18-.85-.41-1.21-.68-.37-.27-.66-.63-.89-1.06-.22-.43-.34-.99-.34-1.66,0-.77.19-1.43.57-1.97.38-.54.89-.95,1.54-1.24.65-.29,1.37-.43,2.16-.43.86,0,1.63.17,2.3.5.68.34,1.23.76,1.65,1.29l-1.45,1.45c-.37-.42-.76-.74-1.17-.94s-.87-.31-1.39-.31c-.65,0-1.15.13-1.52.39s-.55.63-.55,1.1c0,.4.11.72.34.96.22.24.52.45.89.62.37.17.77.33,1.21.48.44.15.88.32,1.32.5.44.19.84.43,1.21.72.37.29.66.67.89,1.13.22.46.34,1.04.34,1.73,0,1.17-.41,2.1-1.24,2.78s-1.94,1.03-3.35,1.03Z"/>
      <path class="cls-1" d="M265.53,160.31c-.98,0-1.86-.22-2.65-.67-.78-.45-1.4-1.06-1.86-1.84-.45-.78-.68-1.66-.68-2.64v-8.09h2.14v8.08c0,.63.13,1.18.4,1.65.27.47.63.83,1.09,1.08s.98.38,1.55.38,1.1-.13,1.55-.38c.45-.26.8-.62,1.06-1.08.26-.47.39-1.01.39-1.63v-8.09h2.14v8.11c0,.98-.22,1.86-.67,2.63s-1.06,1.38-1.83,1.83c-.77.45-1.65.67-2.65.67Z"/>
      <path class="cls-1" d="M273.36,160.13v-13.05h2.14v13.05h-2.14ZM274.84,160.13v-1.96h6.83v1.96h-6.83Z"/>
      <path class="cls-1" d="M281.05,149.03v-1.96h10.65v1.96h-10.65ZM285.3,160.13v-12.68h2.14v12.68h-2.14Z"/>
      <path class="cls-1" d="M292.59,160.13l5.37-13.05h1.49l5.33,13.05h-2.31l-4.18-10.57h.78l-4.21,10.57h-2.27ZM295.24,157.61v-1.86h6.92v1.86h-6.92Z"/>
      <path class="cls-1" d="M306.65,160.13v-13.05h1.49l.65,2.46v10.59h-2.14ZM315.7,160.13l-7.81-10.2.26-2.85,7.81,10.2-.26,2.85ZM315.7,160.13l-.65-2.29v-10.76h2.14v13.05h-1.49Z"/>
      <path class="cls-1" d="M325.96,160.31c-.95,0-1.82-.17-2.62-.51-.8-.34-1.5-.82-2.1-1.44-.6-.61-1.06-1.33-1.38-2.14-.32-.81-.49-1.69-.49-2.62s.16-1.81.49-2.62c.32-.81.78-1.53,1.38-2.14.6-.61,1.3-1.09,2.1-1.44.8-.35,1.68-.52,2.62-.52,1.06,0,1.97.17,2.74.52.77.35,1.45.82,2.05,1.42l-1.45,1.46c-.39-.42-.85-.75-1.41-.99-.55-.24-1.2-.35-1.93-.35-.65,0-1.24.11-1.77.34s-1,.54-1.39.96c-.39.42-.69.91-.9,1.48s-.32,1.2-.32,1.88.11,1.31.32,1.88.51,1.07.9,1.48c.39.42.85.74,1.39.96.53.22,1.12.34,1.77.34.8,0,1.47-.12,2.02-.36.55-.24,1.02-.58,1.41-1l1.45,1.45c-.6.61-1.3,1.09-2.11,1.44-.81.35-1.73.52-2.78.52Z"/>
      <path class="cls-1" d="M336.32,154.91l-5.09-7.83h2.48l3.97,6.25h-1.16l3.97-6.25h2.44l-5.13,7.83h-1.49ZM336.03,160.13v-6.57h2.14v6.57h-2.14Z"/>
    </g>
    <g>
      <path class="cls-1" d="M74.27,133.46c-2.99,0-5.77-.5-8.35-1.5-2.57-1-4.83-2.42-6.76-4.24-1.93-1.82-3.44-3.97-4.51-6.43-1.08-2.46-1.61-5.14-1.61-8.02s.54-5.6,1.61-8.05c1.08-2.44,2.57-4.56,4.49-6.35,1.92-1.79,4.15-3.18,6.7-4.19,2.55-1,5.33-1.5,8.32-1.5s5.8.47,8.32,1.42c2.52.95,4.71,2.26,6.57,3.94l-7.28,7.33c-.88-.95-1.94-1.7-3.2-2.24-1.26-.55-2.73-.82-4.41-.82-1.46,0-2.8.24-4.02.71-1.22.47-2.27,1.17-3.15,2.08s-1.56,2.02-2.05,3.31c-.49,1.3-.74,2.75-.74,4.35s.25,3.11.74,4.41c.49,1.3,1.18,2.4,2.05,3.31.88.91,1.92,1.61,3.15,2.11,1.22.49,2.56.74,4.02.74,1.64,0,3.11-.25,4.41-.77,1.29-.51,2.42-1.26,3.37-2.24l7.33,7.33c-1.93,1.68-4.1,2.98-6.51,3.91-2.41.93-5.24,1.4-8.48,1.4Z"/>
      <path class="cls-1" d="M93.04,132.8v-38.97h10.95v38.97h-10.95ZM101.91,102.92v-9.09h20.58v9.09h-20.58ZM101.91,117.37v-8.87h18.88v8.87h-18.88ZM101.91,132.8v-9.09h20.91v9.09h-20.91Z"/>
      <path class="cls-1" d="M128.02,132.8v-38.97h7.94l14.5,21.24h-3.45l14.45-21.24h7.94v38.97h-10.84v-21.02l1.59.44-7.94,11.38h-7.01l-7.88-11.38,1.53-.44v21.02h-10.84Z"/>
      <path class="cls-1" d="M172.95,132.8l14.83-38.97h11.16l14.67,38.97h-11.38l-10.89-33.11h3.94l-11.17,33.11h-11.16ZM182.58,126.24v-8.54h21.78v8.54h-21.78Z"/>
      <path class="cls-1" d="M217.17,132.8v-38.97h10.95v38.97h-10.95ZM226.04,117.26v-7.55h6.62c1.5,0,2.64-.36,3.42-1.09.78-.73,1.18-1.7,1.18-2.9s-.39-2.17-1.18-2.9c-.79-.73-1.93-1.09-3.42-1.09h-6.62v-7.88h8.37c2.7,0,5.07.49,7.11,1.48,2.04.98,3.65,2.35,4.82,4.1,1.17,1.75,1.75,3.8,1.75,6.13s-.59,4.38-1.78,6.13c-1.19,1.75-2.84,3.12-4.95,4.1-2.12.99-4.62,1.48-7.5,1.48h-7.83ZM238.19,132.8l-10.62-16.64,9.85-2.13,13.19,18.77h-12.42Z"/>
      <path class="cls-1" d="M249.24,132.8l14.83-38.97h11.16l14.67,38.97h-11.38l-10.89-33.11h3.94l-11.17,33.11h-11.16ZM258.88,126.24v-8.54h21.78v8.54h-21.78Z"/>
    </g>
    <g>
      <path class="cls-1" d="M163.29,78.67c-.49,0-.98-.05-1.46-.16-4.74-1.07-10.56-2.3-13.31-2.87-5.43-1.12-10.68-1.42-15.76-1.72-2.71-.16-5.27-.3-7.83-.57-1.88-.19-3.29-1.91-3.29-3.98V9.04c0-2.21,1.57-3.97,3.58-4,7.05-.1,14.14.54,21.08,1.93,6.96,1.39,13.86,3.54,20.52,6.39l1.65.71-.82,1.7-4.42,9.14c.21.17.39.37.53.6.47.74.52,1.7.13,2.49l-4.2,8.68c.35.19.65.47.88.83.47.74.52,1.7.13,2.49l-5.67,11.72c-.08.16-.08.35,0,.51.1.2.3.33.52.33h11.56c1.11,0,2.16.49,2.87,1.35.71.86.99,1.98.77,3.07,0,.02,0,.04-.01.06l-.82,15.36c-.11,1.95-1.06,3.75-2.62,4.93-1.16.88-2.56,1.34-3.99,1.34ZM126.72,8.45c-.48,0-.97,0-1.45.01-.03.02-.22.21-.22.58v60.34c0,.35.17.56.24.59,2.47.25,4.99.4,7.66.55,5.21.3,10.59.61,16.26,1.78,2.77.57,8.62,1.81,13.37,2.88.92.21,1.89,0,2.64-.57.75-.57,1.22-1.44,1.27-2.39l.83-15.39c.01-.21.04-.38.07-.52.02-.11-.02-.19-.06-.24-.06-.07-.13-.11-.23-.11h-11.56c-1.52,0-2.94-.89-3.6-2.26h0c-.54-1.11-.54-2.38,0-3.49l5.17-10.69c-.35-.19-.65-.47-.87-.83-.47-.74-.52-1.7-.13-2.49l4.3-8.89c-.21-.17-.4-.37-.55-.61-.46-.73-.51-1.67-.13-2.45l4.1-8.47c-5.93-2.42-12.04-4.26-18.2-5.49-6.23-1.24-12.58-1.87-18.91-1.87ZM161.79,27.81h0,0ZM160.81,26.51h0s0,0,0,0ZM161.79,24.4h0,0Z"/>
      <path class="cls-1" d="M179.66,78.67c-1.43,0-2.83-.46-3.99-1.34-1.56-1.18-2.51-2.97-2.62-4.93l-.83-15.37c-.23-1.06.02-2.15.68-3.02.71-.92,1.78-1.45,2.94-1.45h11.56c.22,0,.43-.13.52-.33h0c.08-.16.08-.35,0-.51l-5.67-11.72c-.38-.79-.33-1.75.13-2.49.22-.36.53-.64.88-.83l-4.2-8.68c-.38-.79-.33-1.75.13-2.49.15-.23.33-.44.53-.6l-4.47-9.24-.77-1.61,1.63-.7c6.65-2.85,13.55-5,20.52-6.39,6.94-1.39,14.04-2.03,21.08-1.93,2.01.03,3.58,1.79,3.58,4v60.34c0,2.08-1.41,3.79-3.29,3.98-2.56.26-5.12.41-7.83.57-5.08.29-10.34.59-15.76,1.72-2.77.57-8.61,1.81-13.31,2.87-.48.11-.97.16-1.46.16ZM175.85,55.97c-.12,0-.19.06-.23.11-.04.05-.08.14-.05.25l.05.17.84,15.71c.05.94.51,1.81,1.27,2.38.76.57,1.72.78,2.64.57,4.72-1.06,10.58-2.31,13.37-2.88,5.67-1.17,11.06-1.48,16.26-1.78,2.67-.15,5.19-.3,7.68-.55.04-.02.22-.21.22-.58V9.04c0-.37-.18-.56-.24-.59-6.79-.1-13.64.53-20.34,1.86-6.16,1.23-12.28,3.07-18.2,5.49l4.1,8.46c.38.78.33,1.72-.13,2.45-.15.24-.34.45-.55.61l4.3,8.89c.38.79.33,1.75-.13,2.49-.22.36-.53.64-.88.83l5.17,10.69c.54,1.11.54,2.38,0,3.48-.66,1.37-2.08,2.26-3.6,2.26h-11.56ZM181.16,27.81h0,0ZM180.15,25.76s0,0,0,0h0ZM181.16,24.4h0,0Z"/>
      <polygon class="cls-1" points="164.94 16.14 164.08 15.28 171.47 0 178.34 14.18 175.26 15.67 171.47 7.84 167.68 15.67 166.15 14.93 164.94 16.14"/>
    </g>
  </g>
</svg>