<?xml version="1.0" encoding="UTF-8"?>
<svg id="Layer_2" data-name="Layer 2" xmlns="http://www.w3.org/2000/svg" viewBox="0 0 493.07 389.16">
  <defs>
    <style>
      .cls-1 {
        fill: none;
        stroke: #008c44;
        stroke-miterlimit: 10;
        stroke-width: 16.9px;
      }
    </style>
  </defs>
  <g id="Layer_1-2" data-name="Layer 1">
    <g>
      <path class="cls-1" d="M157.51,262.02c1.89,3.91,5.85,6.39,10.2,6.39h57.17c6.28,0,10.91,5.75,9.72,11.8-.09.45-.17.9-.19,1.36l-4.09,76.12c-.81,15.03-14.94,25.72-29.62,22.42-23.29-5.24-52.04-11.34-66-14.23-41.65-8.61-81-7.65-117.55-11.42-4.91-.51-8.69-5.41-8.69-11.29V44.72c0-6.21,4.19-11.25,9.4-11.33,29.34-.45,64.04,1.69,102.49,9.36,38.25,7.63,71.74,19.06,99.85,31.09l-.2.42-23.95,49.48c-1.16,2.39.29,5.38,2.61,5.38,2.43,0,3.96,3.15,2.74,5.66l-23.26,48.06c-1.22,2.52.3,5.66,2.74,5.66h1.97c2.44,0,3.96,3.15,2.74,5.66l-28.06,57.97c-1.51,3.12-1.51,6.76,0,9.88h0Z"/>
      <path class="cls-1" d="M335.57,262.02c1.51-3.12,1.51-6.75,0-9.87l-28.06-57.97c-1.22-2.51.3-5.66,2.74-5.66h1.97c2.43,0,3.96-3.14,2.74-5.66l-23.26-48.06c-1.22-2.51.3-5.66,2.74-5.66s3.77-2.99,2.6-5.38l-23.95-49.48-.2-.41c28.09-12.05,61.59-23.46,99.84-31.1,38.46-7.67,73.16-9.81,102.49-9.36,5.21.08,9.4,5.12,9.4,11.33v298.45c0,5.88-3.77,10.78-8.69,11.29-36.55,3.77-75.9,2.81-117.56,11.42-13.95,2.89-42.71,8.99-65.99,14.23-14.68,3.31-28.82-7.38-29.62-22.42l-4.12-76.81c-1.7-6.29,3.04-12.47,9.55-12.47h57.18c4.34,0,8.31-2.48,10.2-6.39h0Z"/>
      <polyline class="cls-1" points="220.19 73.85 220.18 73.84 246.54 19.39 272.9 73.85"/>
    </g>
  </g>
</svg>