<?xml version="1.0" encoding="UTF-8"?>
<svg id="Layer_1" data-name="Layer 1" xmlns="http://www.w3.org/2000/svg" viewBox="0 0 530 780">
  <defs>
    <style>
      .cls-1 {
        fill: #a0616a;
      }

      .cls-1, .cls-2, .cls-3, .cls-4, .cls-5, .cls-6, .cls-7, .cls-8, .cls-9 {
        stroke-width: 0px;
      }

      .cls-2 {
        fill: #e6e6e6;
      }

      .cls-3 {
        fill: #9e616a;
      }

      .cls-4 {
        fill: #009245;
      }

      .cls-5 {
        fill: #ccc;
      }

      .cls-6 {
        fill: #fff;
      }

      .cls-7 {
        fill: #3f3d56;
      }

      .cls-8 {
        fill: #f2f2f2;
      }

      .cls-9 {
        fill: #2f2e41;
      }
    </style>
  </defs>
  <path class="cls-8" d="M378.1,645.93v-.39c.36-13.07,6.45-25.32,16.64-33.49,2.84-2.24,5.96-4.12,9.27-5.59l.31-.14.06.34c.64,4.08,1.66,8.24,2.13,10.09l3.17-12.38.35-.1c3.31-.97,6.87.17,9,2.88,2.23,2.71,2.58,6.5.89,9.57-.74,1.38-1.47,2.82-2.17,4.2-2.41,4.78-4.92,9.72-8.56,13.55-5.64,5.83-13.6,8.8-21.69,8.09l-9.42,3.36h0Z"/>
  <path class="cls-8" d="M281.64,532.87h-81.9c-6.13,0-11.1-4.98-11.11-11.11v-115.22c.03-28,22.73-50.7,50.74-50.73h42.28c6.13,0,11.1,4.98,11.11,11.11v154.85c0,6.13-4.98,11.1-11.11,11.11Z"/>
  <path class="cls-6" d="M202.6,455.93c-2.59,0-4.68,2.1-4.68,4.68v26.3c0,2.59,2.1,4.68,4.68,4.68h79.59c2.59,0,4.68-2.1,4.68-4.68v-26.3c0-2.59-2.1-4.68-4.68-4.68h-79.59Z"/>
  <path class="cls-6" d="M282.39,438.87h-79.59c-2.79,0-5.06-2.27-5.07-5.07.02-17.31,14.05-31.34,31.36-31.36h53.3c2.79,0,5.06,2.27,5.07,5.07v26.3c0,2.79-2.27,5.06-5.07,5.07h0Z"/>
  <path class="cls-6" d="M316.66,487.56h-91.62c-1.12,0-2.03-.91-2.03-2.03v-24.14c0-1.12.91-2.03,2.03-2.03h91.62c1.12,0,2.03.91,2.03,2.03v24.14c0,1.12-.91,2.03-2.03,2.03h0Z"/>
  <path class="cls-5" d="M316.66,487.94h-91.62c-1.33,0-2.41-1.08-2.41-2.41v-24.14c0-1.33,1.08-2.41,2.41-2.41h91.62c1.33,0,2.41,1.08,2.41,2.41v24.14c0,1.33-1.08,2.41-2.41,2.41h0ZM225.03,459.74c-.91,0-1.65.74-1.65,1.65v24.14c0,.91.74,1.65,1.65,1.65h91.62c.91,0,1.65-.74,1.65-1.65v-24.14c0-.91-.74-1.65-1.65-1.65h-91.62Z"/>
  <circle class="cls-2" cx="232.82" cy="467.5" r="3.3"/>
  <path class="cls-2" d="M311.18,475.81h-80.67c-.54,0-.98-.44-.98-.98s.44-.98.98-.98h80.68c.54,0,.98.44.98.98s-.44.98-.98.98h-.01Z"/>
  <path class="cls-2" d="M303.17,479.68h-72.66c-.54,0-.98-.44-.98-.98s.44-.98.98-.98h72.66c.54,0,.98.44.98.98s-.44.98-.98.98h0Z"/>
  <path class="cls-6" d="M221.47,645.02l-22.43-8.94c-1.04-.41-1.55-1.6-1.13-2.64l33.93-85.11c.41-1.04,1.6-1.55,2.64-1.13l22.43,8.94c1.04.41,1.55,1.6,1.13,2.64l-33.93,85.11c-.41,1.04-1.6,1.55-2.64,1.13h0Z"/>
  <path class="cls-5" d="M221.32,645.38l-22.43-8.94c-1.24-.5-1.84-1.9-1.35-3.14l33.93-85.11c.5-1.24,1.9-1.84,3.14-1.35l22.43,8.94c1.24.5,1.84,1.9,1.35,3.14l-33.93,85.11c-.5,1.24-1.9,1.84-3.14,1.35h0ZM198.26,633.59c-.34.85.08,1.8.92,2.14l22.43,8.94c.85.34,1.8-.08,2.14-.92l33.93-85.11c.34-.85-.08-1.8-.92-2.14l-22.43-8.94c-.85-.34-1.8.08-2.14.92l-33.93,85.11h0Z"/>
  <circle class="cls-2" cx="236.51" cy="558.58" r="3.3"/>
  <path class="cls-2" d="M213.94,634.99c-.5-.2-.75-.77-.55-1.28l29.87-74.94c.2-.5.77-.75,1.28-.55.5.2.75.77.55,1.28h0s-29.87,74.94-29.87,74.94c-.2.5-.77.75-1.28.55h0Z"/>
  <path class="cls-2" d="M220.51,628.98c-.5-.2-.75-.77-.55-1.28l26.9-67.49c.2-.5.77-.75,1.27-.55s.75.77.55,1.27h0s-26.9,67.5-26.9,67.5c-.2.5-.77.75-1.28.55h0Z"/>
  <circle class="cls-6" cx="276.66" cy="369.9" r="8.68"/>
  <path class="cls-2" d="M280.94,369.56h-3.91v-3.91c0-.2-.17-.37-.36-.37s-.37.17-.37.36h0v3.91h-3.91c-.2,0-.37.17-.37.37s.17.37.37.37h3.91v3.91c0,.2.17.37.36.37s.37-.17.37-.36h0v-3.91h3.91c.2,0,.37-.17.37-.37s-.17-.37-.37-.37h0Z"/>
  <path class="cls-4" d="M383.59,377.05h-29.27c-3.97,0-7.18-3.21-7.18-7.18s3.21-7.18,7.18-7.18h29.27c3.97,0,7.18,3.21,7.18,7.18s-3.21,7.18-7.18,7.18Z"/>
  <rect class="cls-7" x="311.3" y="339.58" width="1.1" height="56.58" transform="translate(-60.5 674.36) rotate(-89.17)"/>
  <path class="cls-7" d="M281.19,370.46c-1.53,0-2.77-1.23-2.77-2.76,0-1.53,1.23-2.77,2.76-2.77s2.77,1.23,2.77,2.76c0,1.06-.6,2.03-1.55,2.49-.38.18-.79.28-1.21.28ZM281.19,366.04c-.92,0-1.66.74-1.66,1.66s.74,1.66,1.66,1.66,1.66-.74,1.66-1.66c0-.25-.06-.5-.17-.73h0c-.28-.57-.86-.93-1.49-.93h0Z"/>
  <path class="cls-4" d="M111.71,386.44c0-3.97,3.21-7.18,7.18-7.18h29.27c3.97,0,7.18,3.21,7.18,7.18s-3.21,7.18-7.18,7.18h-29.27c-3.97,0-7.18-3.21-7.18-7.18Z"/>
  <rect class="cls-7" x="162.35" y="383.89" width="56.58" height="1.1" transform="translate(-5.55 2.8) rotate(-.83)"/>
  <path class="cls-7" d="M220.08,386.76c-1.36-.67-1.92-2.31-1.25-3.67.67-1.36,2.31-1.92,3.67-1.25s1.92,2.31,1.25,3.67c-.46.94-1.42,1.54-2.46,1.54-.42,0-.83-.09-1.21-.28ZM220.75,382.7c-.41.14-.76.45-.95.84h0c-.4.82-.06,1.82.76,2.22s1.82.06,2.22-.76c.4-.82.06-1.82-.76-2.22-.4-.19-.86-.22-1.27-.08h0Z"/>
  <path class="cls-4" d="M109.5,603.52c0-3.97,3.21-7.18,7.18-7.18h29.27c3.97,0,7.18,3.21,7.18,7.18s-3.21,7.18-7.18,7.18h-29.27c-3.97,0-7.18-3.21-7.18-7.18Z"/>
  <rect class="cls-7" x="160.15" y="600.96" width="56.58" height="1.1" transform="translate(-8.69 2.79) rotate(-.83)"/>
  <path class="cls-7" d="M217.87,603.83c-1.36-.67-1.92-2.31-1.25-3.67s2.31-1.92,3.67-1.25c1.36.67,1.92,2.31,1.25,3.67-.46.94-1.42,1.54-2.46,1.54-.42,0-.83-.09-1.21-.28ZM218.54,599.78c-.41.14-.76.45-.95.84h0c-.4.82-.06,1.82.76,2.22s1.82.06,2.22-.76.06-1.82-.76-2.22c-.4-.19-.86-.22-1.27-.08h0Z"/>
  <path class="cls-4" d="M117.23,466.53c0-3.97,3.21-7.18,7.18-7.18h29.27c3.97,0,7.18,3.21,7.18,7.18s-3.21,7.18-7.18,7.18h-29.27c-3.97,0-7.18-3.21-7.18-7.18Z"/>
  <rect class="cls-7" x="167.88" y="463.98" width="56.58" height="1.1" transform="translate(-6.71 2.89) rotate(-.83)"/>
  <path class="cls-7" d="M225.6,466.85c-1.36-.67-1.92-2.31-1.25-3.67.67-1.36,2.31-1.92,3.67-1.25,1.36.67,1.92,2.31,1.25,3.67-.46.94-1.42,1.54-2.46,1.54-.42,0-.83-.09-1.21-.28ZM226.27,462.79c-.41.14-.76.45-.95.84h0c-.4.82-.06,1.82.76,2.22.82.4,1.82.06,2.22-.76.4-.82.06-1.82-.76-2.22-.4-.19-.86-.22-1.27-.08h0Z"/>
  <path class="cls-4" d="M375.86,422.9h-29.27c-3.97,0-7.18-3.21-7.18-7.18s3.21-7.18,7.18-7.18h29.27c3.97,0,7.18,3.21,7.18,7.18s-3.21,7.18-7.18,7.18Z"/>
  <rect class="cls-7" x="303.57" y="385.43" width="1.1" height="56.58" transform="translate(-113.96 711.81) rotate(-89.17)"/>
  <path class="cls-7" d="M273.45,416.31c-1.53,0-2.77-1.23-2.77-2.76s1.23-2.77,2.76-2.77c1.53,0,2.77,1.23,2.77,2.76,0,1.06-.6,2.03-1.55,2.49-.38.18-.79.28-1.21.28ZM273.45,411.89c-.92,0-1.66.74-1.66,1.66s.74,1.66,1.66,1.66,1.66-.74,1.66-1.66c0-.25-.06-.5-.17-.73h0c-.28-.57-.86-.93-1.49-.93h0Z"/>
  <path class="cls-3" d="M391.52,504.69l-8.5.38c-1.92,5.21-.56,17.86-.56,17.86l-4.47,20.79c-1.47,1.46-1.47,3.84-.01,5.31,1.46,1.47,3.84,1.47,5.31.01.96-.95,1.33-2.34.98-3.64l9.07-24.93-1.82-15.79h0Z"/>
  <path class="cls-7" d="M385.86,481.95h0c4.95-.17,9.11,3.72,9.27,8.68.02.56-.02,1.11-.1,1.66l-.82,5.31s2.34,18.08-.51,23l-5.44,14.71-8.87-.45,2.45-16.06s.62-7.95-1.65-11.31c-1.39-2.06-2.79-9.81-3.03-16.29-.16-4.94,3.72-9.08,8.66-9.24h.03Z"/>
  <polygon class="cls-3" points="379.71 640.04 374.19 640.04 371.56 618.74 379.71 618.74 379.71 640.04"/>
  <path class="cls-9" d="M379.9,645.8h-16.98v-.22c0-3.65,2.96-6.61,6.61-6.61h0l3.1-2.35,5.79,2.35h1.48v6.82h0Z"/>
  <polygon class="cls-3" points="359.76 640.04 354.24 640.04 351.61 618.74 359.77 618.74 359.76 640.04"/>
  <path class="cls-9" d="M359.96,645.8h-16.98v-.22c0-3.65,2.96-6.61,6.61-6.61h0l3.1-2.35,5.79,2.35h1.48v6.82h0Z"/>
  <path class="cls-9" d="M339.72,582c3.28,10.45,4.54,18.64,7.04,28.98.99,1.82,5.24,16.9,5.24,16.9,0,0,6.37.7,8.62-1.08,2.25-1.78-.07-10.6-.07-10.6,1.49-6.67-2.18-17.17-2.39-23.64.45-2.71-1.94-5.04-2.15-7.63,1.58-1.2,9.26-20.05,10.82-25.31-.81,16.05,6.25,52.69,2.54,64.86-2.16,7.07,2.86,5.5,10.3,5.84,3.31-.98,1.97-6.66,1.97-6.66,0,0,2.25-3.75,2.25-5.2,1.61-6.81,3.55-21.6,3.02-24.93.24-3.53.36-38.8,3.06-51.15,1.8-9.84-20.23-12.01-26.56-14.36-10.57-5.09-8.78,2.15-14.35,8.82-5.37,11.49-8.53,32.02-9.32,45.16h0Z"/>
  <path class="cls-7" d="M364.38,478.55l6.42-7.23,10.15,1.13,6.5,9.09h0c7.18,1.65,8.5,7.52,7.24,14.78-2.52,14.52-8.74,24.66-5.92,31.82,4.29,10.87,2.21,19.24-8.06,17.71-10.27-1.52-33.96-11.59-27.29-18.27,6.67-6.68.71-10.17.71-10.17l4.68-25.52c-1.2-6.51-1.02-12.66,5.57-13.34h0Z"/>
  <path class="cls-3" d="M365.21,501.46l-8.09-2.64c-3.63,4.2-6.81,16.52-6.81,16.52l-11.49,17.89c-1.89.85-2.73,3.08-1.88,4.97s3.08,2.73,4.97,1.88c1.23-.55,2.07-1.72,2.2-3.06l17.26-20.14,3.85-15.42h0Z"/>
  <path class="cls-7" d="M367.92,478.19h0c4.7,1.59,7.21,6.69,5.62,11.38-.18.52-.4,1.03-.68,1.52l-2.63,4.68s-4.18,17.75-8.57,21.35l-10.26,11.86-8.14-3.55,7.95-14.17s3.37-7.22,2.44-11.17c-.57-2.41.84-10.17,2.89-16.32,1.59-4.68,6.68-7.19,11.36-5.6,0,0,.01,0,.02,0h0Z"/>
  <circle id="fe5d9414-b808-43bb-a4dc-97fa5cac342b" class="cls-1" cx="378.34" cy="459.29" r="10.49"/>
  <path class="cls-9" d="M369.21,449.86c.15-.87.51-1.7,1.03-2.41,1.03-1.22,2.84-1.38,4.07-.35.08.07.16.14.23.22-.17-.48-.21-.98-.14-1.49.77.37,1.59.61,2.42.72l-1.86-1.94c3.82-1.7,6.98-1.61,9.26.85.65.7,1.99.21,2.69.94.7.72.74,2.28-.14,2.68,1.75-.66,3.76.3,4.91,1.9,1.15,1.6,1.58,3.71,1.66,5.76.1,2.66-.39,5.48-2.02,7.44-1.06,1.28-2.51,2.08-3.68,3.23l-.03.03c-2.62,2.68-6.47,3.76-10.1,2.81-.2-.06-.4-.12-.6-.17-1,.45-2.24-.17-2.87-1.17-.67-1.07-.81-2.44-.83-3.74-.04-1.71.07-3.41.31-5.1.28-1.9.53-4.34-.98-5.29-1.17-.75-2.63-.01-3.81.72-.12-1.89.05-3.79.48-5.64h0Z"/>
</svg>